<svg xmlns="http://www.w3.org/2000/svg" width="13.437" height="28.889" viewBox="0 0 13.437 28.889">
  <path id="Trazado_41" data-name="Trazado 41" d="M187.427,140.345v5h2.992v14.393h5.947V145.327c1.214,0,2.352-.014,3.491.008.4.008.535-.12.55-.521.021-.578.122-1.15.181-1.728.092-.893.179-1.787.276-2.758h-4.518v-2.216c0-.25-.008-.5.013-.753.087-1.051.523-1.467,1.59-1.511.425-.018.85-.006,1.276-.006h1.6v-4.986c-1.34,0-2.65-.022-3.958.01a13.2,13.2,0,0,0-2.013.2,4.864,4.864,0,0,0-4.323,4.646c-.122,1.325-.091,2.662-.127,3.993-.005.2,0,.407,0,.645Z" transform="translate(-187.427 -130.849)" fill="#0f79f0"/>
</svg>
