<svg xmlns="http://www.w3.org/2000/svg" width="31" height="30.881" viewBox="0 0 31 30.881">
  <g id="Grupo_599" data-name="Grupo 599" transform="translate(-318 -130)">
    <g id="Grupo_598" data-name="Grupo 598">
      <path id="Trazado_3212" data-name="Trazado 3212" d="M349,143.718v3.487a3.641,3.641,0,0,0-.1.409,14.469,14.469,0,0,1-1.5,4.776,15.324,15.324,0,0,1-9.263,7.838c-.854.272-1.744.429-2.679.653v-.536q0-8.776,0-17.552c0-.245.005-.492-.016-.735a2.338,2.338,0,0,0-2.207-2.274c-2.673-.008-5.347,0-8.02-.009-.341,0-.477.1-.473.461.017,1.549.014,3.1,0,4.649,0,.349.1.475.465.47,1.382-.018,2.764-.008,4.146-.008.5,0,.5,0,.5.513v14.6c-.2-.046-.339-.072-.473-.108a15.526,15.526,0,0,1-11.136-12.6c-.077-.547-.164-1.091-.246-1.637v-1.24c.035-.15.081-.3.1-.449.094-.663.144-1.335.275-1.99a15.451,15.451,0,0,1,12.592-12.2c.557-.094,1.118-.164,1.677-.245h1.861c.483.064.97.114,1.451.2a15.533,15.533,0,0,1,12.656,11.677C348.765,142.482,348.873,143.1,349,143.718Zm-16.538-11.276a3.06,3.06,0,1,0-.011,6.119,3.06,3.06,0,1,0,.011-6.119Z" fill="#ef6500"/>
    </g>
  </g>
</svg>
