<svg xmlns="http://www.w3.org/2000/svg" width="27.089" height="24.394" viewBox="0 0 27.089 24.394">
  <g id="Grupo_15-3" data-name="Grupo 15-3" transform="translate(-386.138 -133.447)">
    <g id="Grupo_492" data-name="Grupo 492">
      <path id="Trazado_42" data-name="Trazado 42" d="M406.42,157.84a1.412,1.412,0,0,1-1-.416l-5.584-5.583-3.063,4.086a1.417,1.417,0,0,1-2.477-.4L391.787,148l-4.866-2.434a1.416,1.416,0,0,1,.119-2.586l24.257-9.434a1.415,1.415,0,0,1,1.887,1.663l-5.39,21.562a1.418,1.418,0,0,1-1.374,1.072ZM400.7,148.7l4.956,4.955,4.12-16.48-18.729,7.283,2.533,1.268a1.419,1.419,0,0,1,.711.819l1.839,5.521,1.685-2.245-.479-.479a1.418,1.418,0,0,1,0-2l5.39-5.39a1.416,1.416,0,0,1,2.1,1.9,1.377,1.377,0,0,1-.1.1l-4.389,4.389.335.335Z" fill="#06b0df"/>
    </g>
  </g>
</svg>
