<svg xmlns="http://www.w3.org/2000/svg" width="35.346" height="28.906" viewBox="0 0 35.346 28.906">
  <path id="Trazado_40" data-name="Trazado 40" d="M147.359,131.617c-1.29.466-2.548.914-3.8,1.374a1.074,1.074,0,0,1-1.213-.282,7.274,7.274,0,0,0-12.036,6.542,4.112,4.112,0,0,1,0,.566,21.007,21.007,0,0,1-15.011-7.646c-1.735,3.866-.988,7.048,2.162,9.716l-.1.134-3.077-.856c.279,3.68,2.194,6,5.665,7.241h-3.09a7.517,7.517,0,0,0,6.8,5.077,14.98,14.98,0,0,1-10.66,3.038c.284.186.387.258.5.323a20.338,20.338,0,0,0,9.349,2.853,19.8,19.8,0,0,0,11.327-2.482c7.026-4.12,10.415-10.4,10.63-18.47a1.29,1.29,0,0,1,.54-1.137,13.053,13.053,0,0,0,3-3.241c-.707.236-1.311.464-1.929.631s-1.264.274-1.9.408A8.4,8.4,0,0,0,147.359,131.617Z" transform="translate(-112.994 -130.857)" fill="#229aef"/>
</svg>
