<svg xmlns="http://www.w3.org/2000/svg" width="39.009" height="27.585" viewBox="0 0 39.009 27.585">
  <path id="Trazado_1280" data-name="Trazado 1280" d="M259.446,131.415c4.695.23,9.469.428,14.237.714a4.852,4.852,0,0,1,4.465,3.8,22.366,22.366,0,0,1,.588,3.975,64.257,64.257,0,0,1-.371,13.834,5.151,5.151,0,0,1-5.073,4.731,188.747,188.747,0,0,1-24.75.253c-1.143-.045-2.285-.157-3.424-.277a4.781,4.781,0,0,1-4.59-4.217c-.392-4.037-.535-8.1-.606-12.163a30.528,30.528,0,0,1,.571-5.643,4.888,4.888,0,0,1,4.78-4.308C249.962,131.811,254.659,131.643,259.446,131.415ZM254,151.992l13.649-7.088L254,137.791Z" transform="translate(-239.92 -131.415)" fill="#f30608"/>
</svg>
