<svg xmlns="http://www.w3.org/2000/svg" xmlns:xlink="http://www.w3.org/1999/xlink" width="128.019" height="34.9" viewBox="0 0 128.019 34.9">
  <defs>
    <clipPath id="clip-path">
      <rect id="Rectángulo_1653" data-name="Rectángulo 1653" width="128.019" height="34.9" fill="none"/>
    </clipPath>
  </defs>
  <g id="Grupo_775" data-name="Grupo 775" transform="translate(0 0)">
    <g id="Grupo_774" data-name="Grupo 774" transform="translate(0 0)" clip-path="url(#clip-path)">
      <path id="Trazado_5299" data-name="Trazado 5299" d="M126.831,1.546v33.1a.665.665,0,0,1-.6.255c3.71,0-56.255-.011-125.639,0a.657.657,0,0,1-.6-.255V1.546A2.963,2.963,0,0,1,.351.766,2.106,2.106,0,0,1,1.546,0H125.285a3.286,3.286,0,0,1,.759.337,2.144,2.144,0,0,1,.787,1.209M49.878.848H1.9A1.014,1.014,0,0,0,.848,1.9q0,11.183,0,22.359c0,.2.067.223.238.223,1.021-.007,2.046,0,3.068-.011a.441.441,0,0,1,.44.262,14.556,14.556,0,0,0,10.417,7.179,13.936,13.936,0,0,0,6.26-.337A14.6,14.6,0,0,0,30.1,24.76a.5.5,0,0,1,.5-.287c59.195.018,108.97.018,95.07.014.262,0,.316-.071.316-.323q-.011-10,0-19.989c0-.766,0-1.532,0-2.295a.988.988,0,0,0-.61-.943,1.384,1.384,0,0,0-.635-.089H49.878m9.406,28.867c.057-.035.085-.05.11-.067a1.223,1.223,0,0,0,.6-1.334,1.17,1.17,0,0,0-1-1.029,2.754,2.754,0,0,0-.592-.064c-.844-.011-1.692,0-2.539-.011-.174,0-.2.057-.2.209q.005,2.543,0,5.082c0,.163.035.209.2.206.663-.007,1.33,0,1.993,0a5.409,5.409,0,0,0,1.043-.05,1.575,1.575,0,0,0,1.362-1.295,1.427,1.427,0,0,0-.979-1.646m39.9,1.2c-.082-.128-.124-.2-.167-.259Q98,29.016,96.982,27.384c-.053-.089-.092-.181-.238-.174-.305.014-.614.007-.922,0-.121,0-.149.043-.149.16v5.182c0,.117.028.16.153.156.255-.007.514-.014.77,0,.167.011.206-.043.206-.206-.007-1.06-.007-2.124-.007-3.189v-.252a.532.532,0,0,1,.192.231c.536.858,1.068,1.717,1.6,2.575.174.28.3.663.55.8s.649.035.979.035h.05c.117.018.16-.021.16-.145q-.005-2.6,0-5.185c0-.138-.05-.167-.17-.163-.259.007-.518.014-.773,0-.167-.011-.2.046-.2.206.007,1.064,0,2.124,0,3.189Zm6.448-1.855c.142,0,.284-.007.422,0s.177-.039.149-.17a2.516,2.516,0,0,0-.28-.738,2.616,2.616,0,0,0-3.529-.685,2.776,2.776,0,0,0-1.248,2.408,2.662,2.662,0,0,0,2.582,2.951,2.337,2.337,0,0,0,2.525-2.061c.021-.149-.025-.184-.163-.177q-.4.011-.8,0c-.138-.007-.2.025-.231.177a1.18,1.18,0,0,1-.94,1.032,1.325,1.325,0,0,1-1.472-.638,2.409,2.409,0,0,1,.039-2.465,1.306,1.306,0,0,1,2.231.025.5.5,0,0,0,.614.337.928.928,0,0,1,.1,0M60.507,27.214c.057.1.1.177.145.252q.867,1.447,1.738,2.894a.774.774,0,0,1,.121.443c-.007.571,0,1.146-.007,1.717,0,.16.046.2.2.188.28-.011.564-.011.848,0,.145.007.174-.046.174-.181-.007-.567,0-1.131-.007-1.7a.785.785,0,0,1,.117-.419q.9-1.484,1.795-2.976c.039-.067.11-.124.1-.223a7.941,7.941,0,0,1-.872-.007.588.588,0,0,0-.656.365c-.323.614-.7,1.2-1.057,1.809-.408-.685-.8-1.348-1.192-2.011-.05-.085-.089-.163-.22-.16-.394.011-.791,0-1.217,0" transform="translate(0 -0.001)" fill="#070708"/>
      <path id="Trazado_5300" data-name="Trazado 5300" d="M49.274.238h74.854a1.433,1.433,0,0,1,.635.089.991.991,0,0,1,.614.943c0,.766,0,1.529,0,2.295q0,9.991.007,19.989c0,.252-.057.323-.319.323,13.9,0-35.875,0-95.07-.011a.5.5,0,0,0-.5.284,14.579,14.579,0,0,1-8.828,6.817,13.889,13.889,0,0,1-6.26.337,14.561,14.561,0,0,1-10.42-7.175.439.439,0,0,0-.44-.266c-1.021.018-2.043,0-3.064.011-.174,0-.241-.021-.241-.223Q.248,12.473.244,1.3A1.017,1.017,0,0,1,1.294.238h47.98m-19.539,15.4A12.933,12.933,0,0,0,17.19,2.618,13.157,13.157,0,0,0,3.745,15.276,13.279,13.279,0,0,0,16.5,28.662a13.017,13.017,0,0,0,13.233-13.02M100.684,2.2a9.7,9.7,0,0,0-9.651,9.626,9.853,9.853,0,0,0,9.622,9.672,9.716,9.716,0,0,0,9.693-9.636A9.6,9.6,0,0,0,100.684,2.2m-40.252,0a9.678,9.678,0,0,0-9.658,9.619A9.841,9.841,0,0,0,60.241,21.5a9.715,9.715,0,0,0,9.849-9.629A9.6,9.6,0,0,0,60.432,2.2" transform="translate(0.604 0.605)" fill="#9ba39a"/>
      <path id="Trazado_5301" data-name="Trazado 5301" d="M19.318,10.175a1.425,1.425,0,0,1,.975,1.649,1.575,1.575,0,0,1-1.362,1.295,6.043,6.043,0,0,1-1.043.05c-.663,0-1.326-.007-1.993,0-.163,0-.2-.046-.2-.206q.011-2.543,0-5.082c0-.153.025-.213.2-.213.848.011,1.7,0,2.543.011a3.032,3.032,0,0,1,.592.067,1.167,1.167,0,0,1,1,1.025,1.225,1.225,0,0,1-.6,1.337l-.11.064m-1.607,2.05v0c.234,0,.465.011.7,0a.673.673,0,0,0,.692-.766.709.709,0,0,0-.773-.724c-.422-.014-.844,0-1.266-.011-.149,0-.156.06-.156.174,0,.39.007.78,0,1.17,0,.128.028.174.163.167.213-.011.429,0,.646,0m-.067-2.33V9.888c.2,0,.4.011.6,0a.585.585,0,0,0,.628-.642c0-.372-.206-.589-.628-.61-.394-.021-.794-.011-1.192-.025-.128,0-.149.05-.145.16.007.323.011.649,0,.972-.007.138.05.163.17.16.192-.011.379,0,.571,0" transform="translate(39.966 19.535)" fill="#fefefe"/>
      <path id="Trazado_5302" data-name="Trazado 5302" d="M30.486,11.376v-.309c0-1.064,0-2.128,0-3.189,0-.16.035-.216.2-.206.255.014.514.007.773,0,.121,0,.17.025.17.163q-.005,2.591,0,5.182c0,.128-.043.163-.156.149h-.053c-.33,0-.72.1-.979-.039s-.376-.521-.55-.8c-.536-.858-1.068-1.717-1.6-2.575a.508.508,0,0,0-.188-.231v.252c0,1.064,0,2.124,0,3.189,0,.16-.039.216-.206.206-.255-.014-.514-.011-.77,0-.124,0-.153-.039-.153-.156,0-1.727,0-3.455,0-5.182,0-.117.028-.163.153-.16.305.007.614.011.919,0,.145-.007.184.085.241.174l2.032,3.267.167.262" transform="translate(68.698 19.537)" fill="#fefefe"/>
      <path id="Trazado_5303" data-name="Trazado 5303" d="M33.006,9.622a.928.928,0,0,0-.1,0,.5.5,0,0,1-.614-.337,1.306,1.306,0,0,0-2.231-.025,2.409,2.409,0,0,0-.039,2.465,1.325,1.325,0,0,0,1.472.638,1.18,1.18,0,0,0,.94-1.032c.032-.153.092-.184.231-.177q.4.011.8,0c.138-.007.184.028.163.177A2.336,2.336,0,0,1,31.1,13.392a2.663,2.663,0,0,1-2.586-2.951,2.776,2.776,0,0,1,1.248-2.408,2.616,2.616,0,0,1,3.529.685,2.516,2.516,0,0,1,.28.738c.032.131-.011.181-.149.17s-.28,0-.422,0" transform="translate(72.626 19.435)" fill="#fefefe"/>
      <path id="Trazado_5304" data-name="Trazado 5304" d="M17.06,7.682c.426,0,.823.007,1.217,0,.131,0,.17.074.22.16.394.663.784,1.326,1.192,2.011.362-.614.734-1.2,1.057-1.809a.588.588,0,0,1,.656-.365,7.942,7.942,0,0,0,.872.007c.014.1-.057.156-.1.223q-.894,1.49-1.795,2.976a.785.785,0,0,0-.117.419c.007.564,0,1.128.007,1.7,0,.135-.028.188-.174.181-.284-.011-.567-.011-.848,0-.149.007-.2-.028-.2-.188.011-.571,0-1.146.007-1.717a.774.774,0,0,0-.121-.443q-.872-1.447-1.738-2.894c-.046-.074-.089-.153-.145-.252" transform="translate(43.447 19.531)" fill="#fefefe"/>
      <path id="Trazado_5305" data-name="Trazado 5305" d="M27.22,13.938A13.011,13.011,0,0,1,13.99,26.955,13.279,13.279,0,0,1,1.229,13.57,13.152,13.152,0,0,1,14.675.915,12.931,12.931,0,0,1,27.22,13.938m-2.33,0A10.662,10.662,0,0,0,14.274,3.256a10.919,10.919,0,0,0-10.7,10.672A10.93,10.93,0,0,0,14.246,24.579c5.306,0,10.757-4.423,10.644-10.64" transform="translate(3.119 2.312)" fill="#070708"/>
      <path id="Trazado_5306" data-name="Trazado 5306" d="M24.144.794A9.6,9.6,0,0,1,33.8,10.459a9.717,9.717,0,0,1-9.849,9.629,9.842,9.842,0,0,1-9.466-9.679A9.677,9.677,0,0,1,24.144.794m7.9,9.654a7.95,7.95,0,0,0-7.86-7.93,8.084,8.084,0,0,0-7.952,7.9,8.075,8.075,0,0,0,7.927,7.906,7.938,7.938,0,0,0,7.884-7.877" transform="translate(36.892 2.018)" fill="#070708"/>
      <path id="Trazado_5307" data-name="Trazado 5307" d="M16.844,10.037c-.216,0-.433-.007-.646,0-.135.007-.167-.043-.163-.167.007-.39,0-.78,0-1.17,0-.113.007-.177.156-.174.422.011.844,0,1.266.007a.715.715,0,0,1,.773.727.674.674,0,0,1-.692.766c-.231.014-.465,0-.7,0Z" transform="translate(40.837 21.723)" fill="#070708"/>
      <path id="Trazado_5308" data-name="Trazado 5308" d="M16.776,9.223c-.192,0-.38-.007-.571,0-.121,0-.177-.021-.17-.16.011-.323.007-.649,0-.972,0-.11.018-.163.145-.16.4.014.8,0,1.192.025.422.021.628.238.628.61a.585.585,0,0,1-.628.642c-.2.014-.4,0-.6,0v.007" transform="translate(40.834 20.207)" fill="#070708"/>
      <path id="Trazado_5309" data-name="Trazado 5309" d="M23.2,12.253c.113,6.221-5.338,10.64-10.644,10.644A10.932,10.932,0,0,1,1.887,12.246,10.922,10.922,0,0,1,12.587,1.57,10.664,10.664,0,0,1,23.2,12.253M8.846,8.21a3.546,3.546,0,0,0-3.259,2.039A4.549,4.549,0,0,0,5.193,12.8a3.862,3.862,0,0,0,.833,2.192,3.593,3.593,0,0,0,2.6,1.28,3.75,3.75,0,0,0,3.724-1.844c.085-.142.043-.184-.078-.248-.39-.2-.784-.4-1.16-.624-.2-.117-.284-.1-.4.113a1.637,1.637,0,0,1-1.727.872,1.5,1.5,0,0,1-1.358-1.256,4.178,4.178,0,0,1,.018-2.142,1.569,1.569,0,0,1,2.951-.323c.043.082.06.192.209.11.489-.262.982-.511,1.479-.755.11-.053.11-.1.05-.184-.128-.181-.245-.376-.39-.546a3.808,3.808,0,0,0-3.1-1.231m3.841,4.157a4.355,4.355,0,0,0,.057.741,3.61,3.61,0,0,0,1.362,2.426,3.681,3.681,0,0,0,2,.731,3.727,3.727,0,0,0,3.745-1.844c.071-.117.074-.17-.064-.238-.415-.2-.826-.411-1.227-.642-.184-.1-.255-.106-.362.106a1.577,1.577,0,0,1-1.681.894,1.487,1.487,0,0,1-1.394-1.185,4.06,4.06,0,0,1,.021-2.327,1.422,1.422,0,0,1,1-1.021,1.5,1.5,0,0,1,1.9.784c.089.167.153.181.312.092.447-.238.9-.461,1.355-.674.177-.082.177-.145.082-.3a3.468,3.468,0,0,0-2.738-1.667,3.753,3.753,0,0,0-3.472,1.252,4.138,4.138,0,0,0-.9,2.873" transform="translate(4.806 3.998)" fill="#fefefe"/>
      <path id="Trazado_5310" data-name="Trazado 5310" d="M30.79,9.21A7.938,7.938,0,0,1,22.9,17.083a8.071,8.071,0,0,1-7.923-7.9,8.081,8.081,0,0,1,7.948-7.9A7.948,7.948,0,0,1,30.79,9.21m-6.409,3.859c0-.713.007-1.429,0-2.142,0-.142.039-.184.181-.177.238.011.482-.007.72.007.167.007.209-.043.209-.206,0-1.206,0-2.408,0-3.614,0-.521-.234-.755-.763-.759H23.4c-.794,0-1.592,0-2.39,0a.628.628,0,0,0-.713.656c-.007,1.256,0,2.511,0,3.763,0,.124.039.156.16.153.238-.007.479.011.724-.007.188-.014.227.046.223.231-.007,1.4,0,2.809-.007,4.214,0,.174.032.245.231.241q1.272-.021,2.539,0c.2,0,.231-.067.231-.245-.014-.706-.007-1.412-.007-2.117m-1.511-7.4a1.346,1.346,0,1,0-1.33-1.358,1.356,1.356,0,0,0,1.33,1.358" transform="translate(38.147 3.256)" fill="#fefefe"/>
      <path id="Trazado_5311" data-name="Trazado 5311" d="M6.5,3.441a3.821,3.821,0,0,1,3.1,1.234c.142.167.259.362.39.543.057.082.057.131-.05.184-.5.245-.993.5-1.479.755-.153.082-.167-.025-.209-.106A1.511,1.511,0,0,0,7.208,5.2,1.535,1.535,0,0,0,5.293,6.374a4.164,4.164,0,0,0-.014,2.139A1.5,1.5,0,0,0,6.637,9.772,1.633,1.633,0,0,0,8.361,8.9c.117-.213.2-.231.4-.113.376.223.766.426,1.156.624.124.064.163.11.078.248A3.741,3.741,0,0,1,6.272,11.5a3.566,3.566,0,0,1-2.6-1.28,3.866,3.866,0,0,1-.837-2.192,4.582,4.582,0,0,1,.4-2.547A3.549,3.549,0,0,1,6.5,3.441" transform="translate(7.156 8.763)" fill="#070708"/>
      <path id="Trazado_5312" data-name="Trazado 5312" d="M4.933,7.6a4.138,4.138,0,0,1,.9-2.873A3.753,3.753,0,0,1,9.3,3.474a3.468,3.468,0,0,1,2.738,1.667c.1.156.1.22-.082.3-.458.213-.908.436-1.355.674-.16.089-.223.074-.312-.092a1.5,1.5,0,0,0-1.9-.784,1.422,1.422,0,0,0-1,1.021A4.06,4.06,0,0,0,7.37,8.588,1.487,1.487,0,0,0,8.763,9.773a1.577,1.577,0,0,0,1.681-.894c.106-.213.177-.209.362-.106.4.231.812.44,1.227.642.138.067.135.121.064.238A3.727,3.727,0,0,1,8.352,11.5a3.681,3.681,0,0,1-2-.731A3.61,3.61,0,0,1,4.99,8.34,4.354,4.354,0,0,1,4.933,7.6" transform="translate(12.559 8.765)" fill="#070708"/>
      <path id="Trazado_5313" data-name="Trazado 5313" d="M20.571,9.552c0,.706,0,1.412,0,2.117,0,.174-.028.245-.227.245q-1.272-.021-2.539,0c-.2,0-.231-.067-.231-.241.007-1.4,0-2.809.011-4.214,0-.184-.039-.245-.231-.231-.241.018-.482,0-.724.007-.117,0-.16-.028-.16-.153.007-1.256,0-2.508.011-3.763,0-.426.259-.653.709-.656.8-.007,1.6,0,2.39,0,.443,0,.883,0,1.323,0,.528,0,.763.234.766.759,0,1.2,0,2.408,0,3.614,0,.163-.046.213-.209.2-.238-.014-.482.007-.72-.007-.142,0-.181.039-.181.181.007.713,0,1.429,0,2.142" transform="translate(41.957 6.772)" fill="#070708"/>
      <path id="Trazado_5314" data-name="Trazado 5314" d="M18.159,4.449A1.346,1.346,0,1,1,19.528,3.1a1.35,1.35,0,0,1-1.369,1.344" transform="translate(42.859 4.474)" fill="#070708"/>
      <path id="Trazado_5315" data-name="Trazado 5315" d="M35.62.777a9.691,9.691,0,0,1,9.722,9.775A9.89,9.89,0,0,1,35.5,20.2a9.765,9.765,0,0,1-9.626-9.959A9.568,9.568,0,0,1,35.62.777m.507,17.613a7.83,7.83,0,0,0,5.99-3.419c.348-.482.326-.784-.255-1.025-.787-.326-1.571-.667-2.334-1.046-.426-.213-.653-.1-.833.294a2.691,2.691,0,0,1-1.71,1.49c-.589.181-.929.394-.89,1.064.018.312-.216.5-.546.489-.294,0-.528-.174-.486-.454.128-.855-.38-1.06-1.06-1.185a2.579,2.579,0,0,1-.823-.348c-.333-.2-.851-.436-.465-.894.305-.358.6-1.043,1.33-.589a3.216,3.216,0,0,0,2.1.419.86.86,0,0,0,.869-.7.809.809,0,0,0-.56-.947c-.511-.209-1.053-.348-1.546-.585-1.983-.961-3.94-1.976-5.976-2.823-.752-.312-.954-.22-1.131.592-1.089,5.008,2.745,9.725,8.328,9.661M43.5,10.506A7.812,7.812,0,0,0,37.265,2.7,7.746,7.746,0,0,0,29.42,5.4c-.55.635-.5.763.273,1.114.8.365,1.61.706,2.4,1.078.436.206.738.181.975-.3A1.9,1.9,0,0,1,34.4,6.257a.72.72,0,0,0,.646-.851c-.025-.39.05-.724.536-.724.433,0,.55.3.525.663-.032.578.291.8.8.887a2.931,2.931,0,0,1,.713.227c.351.163.83.27.628.837a1,1,0,0,1-1.3.617,2.407,2.407,0,0,0-1.9-.092c-.536.234-.567.617-.089.954a2.784,2.784,0,0,0,.61.273,8.886,8.886,0,0,1,2.373.929,27.612,27.612,0,0,0,4.7,2.334c.436.22.649.053.748-.383a6.185,6.185,0,0,0,.121-1.422" transform="translate(65.884 1.978)" fill="#111114"/>
      <path id="Trazado_5316" data-name="Trazado 5316" d="M34.875,13.227c-5.586.064-9.417-4.653-8.328-9.665.177-.812.379-.9,1.128-.592,2.039.848,3.994,1.862,5.976,2.823.493.241,1.039.376,1.546.585a.81.81,0,0,1,.564.951.86.86,0,0,1-.869.7,3.2,3.2,0,0,1-2.1-.422c-.734-.45-1.029.231-1.33.589-.387.461.131.7.461.894a2.606,2.606,0,0,0,.826.351c.677.124,1.185.33,1.057,1.181-.043.284.2.45.486.458.33,0,.567-.177.55-.493-.043-.667.3-.883.89-1.064a2.7,2.7,0,0,0,1.71-1.49.521.521,0,0,1,.83-.294c.763.383,1.546.724,2.337,1.05.582.238.6.543.252,1.021a7.818,7.818,0,0,1-5.987,3.423" transform="translate(67.136 7.141)" fill="#fdfdfd"/>
      <path id="Trazado_5317" data-name="Trazado 5317" d="M41.218,9.267a6.187,6.187,0,0,1-.121,1.422c-.1.436-.309.6-.748.383a27.611,27.611,0,0,1-4.7-2.334,8.886,8.886,0,0,0-2.373-.929,2.861,2.861,0,0,1-.61-.273c-.479-.337-.447-.72.092-.954a2.4,2.4,0,0,1,1.9.092,1,1,0,0,0,1.3-.617c.2-.567-.277-.674-.628-.837a2.955,2.955,0,0,0-.709-.227c-.514-.085-.837-.309-.8-.887.021-.362-.1-.663-.528-.663-.482,0-.56.333-.532.724a.72.72,0,0,1-.649.851A1.9,1.9,0,0,0,30.787,6.05c-.234.479-.539.5-.975.3-.794-.372-1.6-.713-2.4-1.075-.777-.355-.823-.482-.273-1.117a7.757,7.757,0,0,1,7.845-2.7,7.809,7.809,0,0,1,6.239,7.81" transform="translate(68.166 3.217)" fill="#fdfdfd"/>
    </g>
  </g>
</svg>
