<svg xmlns="http://www.w3.org/2000/svg" width="112.002" height="48.933" viewBox="0 0 112.002 48.933">
  <g id="Grupo_701" data-name="Grupo 701" transform="translate(-650.998 -453.661)">
    <g id="Grupo_700" data-name="Grupo 700">
      <path id="Trazado_5017" data-name="Trazado 5017" d="M657.229,483.574a.827.827,0,0,1-.779.864h-1.6a.829.829,0,0,1-.782-.864v-2.231a.828.828,0,0,1,.782-.864h1.6a.826.826,0,0,1,.779.864Z" fill="#fff"/>
      <path id="Trazado_5018" data-name="Trazado 5018" d="M654.545,478.79a1.11,1.11,0,1,1,1.106,1.218,1.167,1.167,0,0,1-1.106-1.218" fill="#fff"/>
      <path id="Trazado_5019" data-name="Trazado 5019" d="M668.585,473.532a1.486,1.486,0,0,1-1.405,1.552h-3.856a1.486,1.486,0,0,1-1.4-1.552l.5-4.011a1.484,1.484,0,0,1,1.405-1.552h2.864a1.486,1.486,0,0,1,1.406,1.552Z" fill="#fff"/>
      <path id="Trazado_5020" data-name="Trazado 5020" d="M663.269,464.937a1.992,1.992,0,1,1,1.983,2.186,2.095,2.095,0,0,1-1.983-2.186" fill="#fff"/>
      <path id="Trazado_5021" data-name="Trazado 5021" d="M673.587,488.861a.617.617,0,0,1-.585.646h-1.61a.617.617,0,0,1-.586-.646l.208-1.675a.617.617,0,0,1,.585-.646h1.2a.618.618,0,0,1,.586.646Z" fill="#fff"/>
      <path id="Trazado_5022" data-name="Trazado 5022" d="M671.371,485.272a.83.83,0,1,1,.826.915.871.871,0,0,1-.826-.915" fill="#fff"/>
      <path id="Trazado_5023" data-name="Trazado 5023" d="M671.251,492.289a.358.358,0,0,1-.337.374h-.689a.358.358,0,0,1-.338-.374v-.965a.354.354,0,0,1,.338-.372h.689a.354.354,0,0,1,.337.372Z" fill="#fff"/>
      <path id="Trazado_5024" data-name="Trazado 5024" d="M670.092,490.223a.479.479,0,1,1,.479.523.5.5,0,0,1-.479-.523" fill="#fff"/>
      <path id="Trazado_5025" data-name="Trazado 5025" d="M686.845,466.509a.734.734,0,0,1-.694.768H684.24a.737.737,0,0,1-.7-.768l.246-1.988a.734.734,0,0,1,.7-.767H685.9a.733.733,0,0,1,.7.767Z" fill="#fff"/>
      <path id="Trazado_5026" data-name="Trazado 5026" d="M684.213,462.25a.986.986,0,1,1,.982,1.084,1.035,1.035,0,0,1-.982-1.084" fill="#fff"/>
      <path id="Trazado_5027" data-name="Trazado 5027" d="M659.565,495.382a.528.528,0,0,1-.5.551H657.7a.527.527,0,0,1-.5-.551l.174-1.423a.53.53,0,0,1,.5-.552h1.018a.53.53,0,0,1,.5.552Z" fill="#fff"/>
      <path id="Trazado_5028" data-name="Trazado 5028" d="M657.679,492.333a.706.706,0,1,1,.7.774.743.743,0,0,1-.7-.774" fill="#fff"/>
      <path id="Trazado_5029" data-name="Trazado 5029" d="M675.084,482.36A1.561,1.561,0,0,1,673.61,484h-3.018a1.562,1.562,0,0,1-1.475-1.637v-4.216a1.558,1.558,0,0,1,1.475-1.631h3.018a1.557,1.557,0,0,1,1.474,1.631Z" fill="#fff"/>
      <path id="Trazado_5030" data-name="Trazado 5030" d="M670.016,473.322a2.095,2.095,0,1,1,2.083,2.3,2.2,2.2,0,0,1-2.083-2.3" fill="#fff"/>
      <path id="Trazado_5031" data-name="Trazado 5031" d="M680.441,477.175a.353.353,0,0,1-.334.369h-.679a.351.351,0,0,1-.332-.369v-.949a.351.351,0,0,1,.332-.368h.679a.353.353,0,0,1,.334.368Z" fill="#fff"/>
      <path id="Trazado_5032" data-name="Trazado 5032" d="M679.3,475.14a.471.471,0,1,1,.467.519.5.5,0,0,1-.467-.519" fill="#fff"/>
      <path id="Trazado_5033" data-name="Trazado 5033" d="M689.591,476.511a.386.386,0,0,1-.363.4h-.747a.387.387,0,0,1-.366-.4v-1.043a.384.384,0,0,1,.366-.4h.747a.383.383,0,0,1,.363.4Z" fill="#fff"/>
      <path id="Trazado_5034" data-name="Trazado 5034" d="M688.341,474.277a.515.515,0,1,1,.512.566.543.543,0,0,1-.512-.566" fill="#fff"/>
      <path id="Trazado_5035" data-name="Trazado 5035" d="M696.38,469.242a15.711,15.711,0,0,0,.228-2.652,1.015,1.015,0,0,1,1.029-1.086c.284.021.559.037.9.037.152,0,.563,0,.984-.016.439-.021.889-.037,1.074-.037a3.864,3.864,0,0,1,4.114,2.688,7.02,7.02,0,0,1,.272,1.839,13.538,13.538,0,0,1-.742,4.016c-1.542,4.308-4.582,4.472-5.792,4.472-.136,0-.543,0-.968-.02-.391-.017-.891-.034-1.042-.034a4.483,4.483,0,0,0-.454.017h-.076c-.03,0-.06.017-.092.017a.807.807,0,0,1-.844-.955,28.368,28.368,0,0,0,.576-2.964c.132-.865.268-1.785.421-2.67.136-.9.272-1.768.408-2.652m1.119,6.37a7.321,7.321,0,0,0-.105.959c0,.718.285.737,1.118.737.892,0,2.239-.3,3.22-2.339a13.412,13.412,0,0,0,.969-4.659c0-2.782-1.136-3.591-3.055-3.591a2.423,2.423,0,0,0-.574.057.629.629,0,0,1-.077.017h.016a.189.189,0,0,1-.1.018c-.123.59-.2,1.108-.288,1.731-.167,1.068-.378,2.376-.559,3.536-.181,1.086-.393,2.5-.56,3.534" fill="#fff"/>
      <path id="Trazado_5036" data-name="Trazado 5036" d="M708.827,477.452a2.942,2.942,0,0,0,1.36-.368.485.485,0,0,1,.742.48,1.461,1.461,0,0,1-.97,1,6.036,6.036,0,0,1-1.483.184c-2.63-.093-3.281-1.8-3.311-4.107a8.257,8.257,0,0,1,1.33-4.383,4.381,4.381,0,0,1,3.615-2.1,2.176,2.176,0,0,1,2.436,2.246,4.016,4.016,0,0,1-2.1,3.37,6.131,6.131,0,0,1-3.117.717,5.233,5.233,0,0,0-.03.664c0,.886.214,2.321,1.53,2.3m-1.438-3.478a4.757,4.757,0,0,0,2.466-1.675,2.92,2.92,0,0,0,.618-1.824c0-.792-.317-1.159-.7-1.159-.228,0-.742.126-1.39,1.05a8.234,8.234,0,0,0-1,3.608" fill="#fff"/>
      <path id="Trazado_5037" data-name="Trazado 5037" d="M713.149,468.691c.046-.3.4-.481.742-.515a5.72,5.72,0,0,1,1.586-3.738,3.487,3.487,0,0,1,2.163-.792.679.679,0,0,1,.7.846,1.228,1.228,0,0,1-1.138.572c-.74.053-1.089,1.491-1.359,3.129h.467c.061,0,.123-.017.167-.017h.378c.424,0,.8.311.743.662-.047.368-.486.569-.923.569-.2-.016-.65-.016-.817-.016h-.2c-.132.958-.27,1.9-.393,2.908-.138,1.012-.272,2-.411,2.964a3.069,3.069,0,0,1-.057.442c-.029.147-.045.313-.073.461-.049.275-.094.607-.141.884-.256,1.765-1.073,5.522-4.157,5.746a.729.729,0,0,1-.65-.867,1.082,1.082,0,0,1,1.045-.608,1.565,1.565,0,0,0,.9-.755c.453-.663.772-2.578,1.088-4.824.152-1.03.29-2.134.441-3.205s.288-2.135.391-3.163a.632.632,0,0,1-.5-.683" fill="#fff"/>
      <path id="Trazado_5038" data-name="Trazado 5038" d="M720.244,477.452a2.945,2.945,0,0,0,1.359-.368.483.483,0,0,1,.74.48,1.457,1.457,0,0,1-.965,1,6.063,6.063,0,0,1-1.483.184c-2.634-.093-3.281-1.8-3.313-4.107a8.212,8.212,0,0,1,1.331-4.383,4.374,4.374,0,0,1,3.616-2.1,2.173,2.173,0,0,1,2.432,2.246,4.034,4.034,0,0,1-2.1,3.37,6.139,6.139,0,0,1-3.121.717,5.537,5.537,0,0,0-.029.664c0,.886.211,2.321,1.531,2.3m-1.438-3.478a4.753,4.753,0,0,0,2.464-1.675,2.9,2.9,0,0,0,.619-1.824c0-.792-.316-1.159-.694-1.159-.228,0-.743.126-1.393,1.05a8.238,8.238,0,0,0-1,3.608" fill="#fff"/>
      <path id="Trazado_5039" data-name="Trazado 5039" d="M724.67,471.931a19,19,0,0,0,.23-2.375v-.113a.881.881,0,0,1,.726-.973,3.193,3.193,0,0,0,.422-.074c.015,0,.057-.019.076-.019a.809.809,0,0,1,.952.753c-.03.223.045-.162-.03.3a3.14,3.14,0,0,1,.287-.349,3.323,3.323,0,0,1,2.283-.922,1.972,1.972,0,0,1,2.24,1.953,12.164,12.164,0,0,1-.166,1.585c-.065.385-.122.864-.184,1.287-.059.44-.134.847-.2,1.27-.119.793-.334,2.284-.375,3.2a1.1,1.1,0,0,1-1.151.959h-.137a.78.78,0,0,1-.847-.864,26.761,26.761,0,0,0,.542-3.243l.183-1.215a15.645,15.645,0,0,0,.226-2.153c0-.882-.226-1.252-.89-1.252a2.5,2.5,0,0,0-1.708,1.234,8.9,8.9,0,0,0-.788,3.092l-.27,2.156c-.076.57-.109.975-.123,1.324a1.078,1.078,0,0,1-1.148.9H724.7a.815.815,0,0,1-.875-.846c.149-.664.257-1.344.363-2.174Z" fill="#fff"/>
      <path id="Trazado_5040" data-name="Trazado 5040" d="M733.9,473.826a2.7,2.7,0,0,1-1.362-2.171,3.8,3.8,0,0,1,1.3-2.632,4.016,4.016,0,0,1,2.575-.83,3.243,3.243,0,0,1,1.042.129h-.016a.858.858,0,0,1,.606,1.085.742.742,0,0,1-.743.443.913.913,0,0,1-.513-.128h.016a1.456,1.456,0,0,0-2.224,1.364,1.72,1.72,0,0,0,.985,1.543l.752.572a2.391,2.391,0,0,1,1.227,1.989,3.653,3.653,0,0,1-1.285,2.687,3.933,3.933,0,0,1-2.707.847,4.739,4.739,0,0,1-1.121-.131,1.019,1.019,0,0,1-.8-1.046.872.872,0,0,1,1.274-.554h-.018a2.163,2.163,0,0,0,1.165.3,1.485,1.485,0,0,0,1.529-1.509,1.437,1.437,0,0,0-.743-1.291Z" fill="#fff"/>
      <path id="Trazado_5041" data-name="Trazado 5041" d="M745.432,469.15a3.86,3.86,0,0,1,.82,2.543c0,2.871-1.528,7.014-4.991,7.014a3.108,3.108,0,0,1-2.33-.941,4.065,4.065,0,0,1-.937-2.852c0-2.964,1.619-6.721,5.023-6.721a2.91,2.91,0,0,1,2.415.957m-1.722.775a1.254,1.254,0,0,0-.924-.483c-2.16,0-2.692,4.257-2.692,5.692,0,1.73.6,2.34,1.3,2.34,2.388,0,2.72-4.973,2.72-5.857a2.69,2.69,0,0,0-.407-1.692" fill="#fff"/>
      <path id="Trazado_5042" data-name="Trazado 5042" d="M747.4,471.636a12,12,0,0,0,.184-2.026.914.914,0,0,1,.754-1.011c.151-.02.289-.037.392-.057h-.015a.783.783,0,0,1,1.028.682c-.012.054-.012.239-.041.368-.018.091-.047.148-.065.239a4.479,4.479,0,0,1,.878-1.051,3.942,3.942,0,0,1,.878-.494.675.675,0,0,1,.879.828,1.783,1.783,0,0,1-1.287.977H751c-.573.182-1.344.956-1.754,2.779a38.815,38.815,0,0,0-.649,4.566,1.094,1.094,0,0,1-1.136.975h-.075a.847.847,0,0,1-.91-.921,7.6,7.6,0,0,0,.181-.882Z" fill="#fff"/>
      <path id="Trazado_5043" data-name="Trazado 5043" d="M753.9,473.974c-.273,1.841-.393,2.928-.438,3.573a.962.962,0,0,1-1,.864h-.123a.763.763,0,0,1-.679-.921c0-.016.013-.072.013-.091.078-.387.183-.92.288-1.676l.271-1.8a30.992,30.992,0,0,0,.484-4.326c-.011-.423.123-.941.591-.976.209-.037.381-.074.545-.11a.641.641,0,0,1,.755.772c-.015.1-.03.185-.044.295-.061.332-.135.776-.227,1.4Zm-.635-6.5a2.808,2.808,0,0,0,1.5-.53c.725-.665.851-.813.922-1.143a.7.7,0,0,0-.74-.866.949.949,0,0,0-1.059.9,2.075,2.075,0,0,1-.694,1.106c-.226.217-.259.53.074.53" fill="#fff"/>
      <path id="Trazado_5044" data-name="Trazado 5044" d="M762.038,468.487a.736.736,0,0,1,.955.808c-.11.61-.276,1.549-.533,3.242l-.269,1.805a30.906,30.906,0,0,0-.335,3.315c0,.458-.5.792-1.012.809a.865.865,0,0,1-.954-.829c.017-.312.059-.735.121-1.123-.62,1.034-1.42,2.155-2.6,2.155-1.256,0-2.5-.992-2.5-3.091a9.925,9.925,0,0,1,2.614-6.336,3.868,3.868,0,0,1,2.649-1.032,3.542,3.542,0,0,1,1.617.389Zm-1.152,1.2a2.579,2.579,0,0,0-.966-.24c-2.3,0-2.9,3.943-2.9,5.452,0,1.252.288,2.155,1.041,2.155.44,0,1-.3,1.515-1.216a10.05,10.05,0,0,0,.922-3.591Z" fill="#fff"/>
      <path id="Trazado_5045" data-name="Trazado 5045" d="M699.93,486.984a3.764,3.764,0,0,1-.048.384,19.857,19.857,0,0,0-.245,2.371.8.8,0,0,1-.781.784.792.792,0,0,1-.841-.8,4.545,4.545,0,0,1,.06-.516c-.451.758-1,1.48-1.9,1.48-1.1,0-2.051-.845-2.051-2.53a8.81,8.81,0,0,1,1.269-4.147,3.665,3.665,0,0,1,2.942-1.7,2.842,2.842,0,0,1,.682.086,6.575,6.575,0,0,0,.135-1.419.83.83,0,0,1,.67-.861,1.734,1.734,0,0,1,.172-.042c.476-.106.964.145.89.561a4.834,4.834,0,0,0-.095.621c-.026.15-.05.311-.074.5-.013.1-.038.221-.051.341s-.046.28-.071.444Zm-4.113.679c0,1.023.294,1.764.817,1.764.343,0,.855-.327,1.281-1.362a22.778,22.778,0,0,0,.941-4.65,2.064,2.064,0,0,0-.645-.133c-1.931,0-2.394,3.448-2.394,4.381" fill="#fff"/>
      <path id="Trazado_5046" data-name="Trazado 5046" d="M703.76,489.709a2.4,2.4,0,0,0,1.1-.3.389.389,0,0,1,.6.384,1.163,1.163,0,0,1-.78.8,4.792,4.792,0,0,1-1.2.148c-2.126-.073-2.649-1.453-2.674-3.3a6.566,6.566,0,0,1,1.075-3.526,3.53,3.53,0,0,1,2.916-1.686,1.751,1.751,0,0,1,1.964,1.8,3.529,3.529,0,0,1-.44,1.5,3.476,3.476,0,0,1-1.256,1.213,4.978,4.978,0,0,1-2.515.577,4,4,0,0,0-.023.533c0,.712.17,1.864,1.231,1.852m-1.156-2.8a3.849,3.849,0,0,0,1.988-1.349,2.34,2.34,0,0,0,.5-1.466c0-.637-.256-.933-.564-.933-.179,0-.594.1-1.119.845a6.559,6.559,0,0,0-.8,2.9" fill="#fff"/>
      <path id="Trazado_5047" data-name="Trazado 5047" d="M708.323,490.6c-1.365-.015-1.5-1.021-1.464-1.776.013-.283.051-.623.085-.875,0-.015.014-.03.014-.045a3.131,3.131,0,0,0,.036-.37c.012-.087.025-.163.037-.221a.887.887,0,0,0,.024-.178c.012-.088.037-.178.049-.3.05-.323.135-.96.4-2.872a25.136,25.136,0,0,0,.328-3.062.749.749,0,0,1,.6-.819,2.164,2.164,0,0,0,.378-.088.62.62,0,0,1,.793.623c-.06.37-.135.815-.221,1.436a2.472,2.472,0,0,1-.05.34c-.032.223-.083.474-.119.741-.085.637-.182,1.334-.282,1.984-.1.667-.183,1.333-.28,1.984-.012.06-.012.119-.024.179-.013.149-.037.357-.061.473,0,.031-.012.091-.012.119a3.715,3.715,0,0,0-.049,1.3s.085.384.233.4a.962.962,0,0,0,.451-.1,1.192,1.192,0,0,0,.121-.046.381.381,0,0,1,.512.475,1.075,1.075,0,0,1-.878.65,4.112,4.112,0,0,1-.623.045" fill="#fff"/>
      <path id="Trazado_5048" data-name="Trazado 5048" d="M714.054,484.284c.217-1.445.319-2.294.37-2.842a1.15,1.15,0,0,1,1.169-1.158h.269c.417,0,.951-.022,1.456-.04h.149c.351-.019.852-.042,1.038-.042,1.939,0,3.56.712,3.56,3.229a5.285,5.285,0,0,1-5.653,5.56h-.75c-.185,1.219-.353,2.437-.537,3.676,0,.042-.015.08-.015.12a.255.255,0,0,1-.037.122l.019-.018c-.019.182-.036.345-.051.487a1.316,1.316,0,0,1-1.322,1.157h-.283a.927.927,0,0,1-.92-1.1c.233-.85.418-1.925.57-2.859.015-.081.032-.184.048-.263Zm1.789,3.145h.3A4.606,4.606,0,0,0,718.2,487h-.018c1.156-.732,1.406-2.66,1.406-3.452,0-1.99-1.322-1.99-2.041-1.99h-.185c-.081,0-.182.02-.3.02h-.151c-.048,0,.033.023-.1.023-.167.85-.251,1.4-.317,1.786,0,.04-.017.059-.017.1-.016.1-.033.184-.048.286-.035.16-.07.323-.1.527Z" fill="#fff"/>
      <path id="Trazado_5049" data-name="Trazado 5049" d="M724.173,489.721a11.513,11.513,0,0,0-.25,1.951c0,.75.215,1.38.868,1.38.285,0,1.157-.16,1.859-1.522h-.014a20.736,20.736,0,0,0,.984-4.2,21.024,21.024,0,0,0,.282-2.477,1.348,1.348,0,0,1,1.039-1.277.271.271,0,0,0,.119-.022l-.036.042a.66.66,0,0,1,.316-.1c.519-.08,1.09.365,1.02.813-.231,1.017-.482,2.335-.75,4.2a40.807,40.807,0,0,0-.567,4.913v.163a1.067,1.067,0,0,1-1.122.995,1.123,1.123,0,0,1-1.159-1.1V493.2a3.352,3.352,0,0,1-.715.895,3.669,3.669,0,0,1-2.057.708,2.192,2.192,0,0,1-2.409-2.212,10.8,10.8,0,0,1,.133-1.319l.837-5.381a9.54,9.54,0,0,0,.116-.954,1.286,1.286,0,0,1,.936-1.277h-.032a.349.349,0,0,1,.169-.023c.017,0,.064-.018.081-.018h-.032a.64.64,0,0,1,.22-.04.919.919,0,0,1,1.067.932c-.166.814-.25,1.2-.368,1.888-.015.1-.048.244-.065.365Z" fill="#fff"/>
      <path id="Trazado_5050" data-name="Trazado 5050" d="M734.644,493.436a3.326,3.326,0,0,0,1.505-.4.53.53,0,0,1,.818.524,1.6,1.6,0,0,1-1.068,1.1,6.683,6.683,0,0,1-1.64.2c-2.909-.1-3.629-1.986-3.662-4.523a9.042,9.042,0,0,1,1.471-4.834,4.845,4.845,0,0,1,4-2.314,2.4,2.4,0,0,1,2.692,2.477,4.445,4.445,0,0,1-2.326,3.716,6.771,6.771,0,0,1-3.442.789,4.963,4.963,0,0,0-.036.733c0,.973.236,2.555,1.69,2.534m-1.589-3.834a5.269,5.269,0,0,0,2.726-1.847,3.2,3.2,0,0,0,.688-2.008c0-.875-.352-1.283-.771-1.283-.254,0-.819.144-1.539,1.158a9.114,9.114,0,0,0-1.1,3.98" fill="#fff"/>
      <path id="Trazado_5051" data-name="Trazado 5051" d="M739.628,486.841a42.742,42.742,0,0,0,.568-5.075,3.722,3.722,0,0,0-.031-.445,1.006,1.006,0,0,1,.851-1.1,3.255,3.255,0,0,0,.536-.123c.586-.142,1.271.183,1.169.77-.031.163-.065.346-.1.591a4.784,4.784,0,0,0-.086.587c-.051.326-.114.752-.2,1.258-.043.388-.1.854-.163,1.258-.033.186-.066.367-.084.551a3.365,3.365,0,0,1,2.506-1.845c1.426,0,2.778,1.073,2.778,3.508a10.727,10.727,0,0,1-.25,2.2c-.77,3.448-2.795,5.907-6.037,5.907a5.348,5.348,0,0,1-1.71-.224h.018a1.316,1.316,0,0,1-.784-1.605c.117-.527.236-1.177.435-2.373Zm2.593-.224c-.8,1.6-1.1,4.752-1.307,6.84a2.99,2.99,0,0,0,.721.1c3.063,0,3.428-4.931,3.428-6.087,0-1.281-.3-2.4-1.153-2.4-.6,0-1.22.631-1.689,1.543" fill="#fff"/>
      <path id="Trazado_5052" data-name="Trazado 5052" d="M749.913,494.657c-1.873-.022-2.056-1.4-2.005-2.437.018-.386.065-.851.116-1.2,0-.021.016-.042.016-.061a4.01,4.01,0,0,0,.053-.506c.015-.122.033-.225.05-.308a1.606,1.606,0,0,0,.033-.243c.015-.123.051-.244.066-.406.067-.446.186-1.318.552-3.938a34.1,34.1,0,0,0,.452-4.2,1.016,1.016,0,0,1,.819-1.118,4.109,4.109,0,0,0,.519-.121.846.846,0,0,1,1.086.85c-.08.509-.182,1.118-.3,1.969-.019.145-.037.305-.069.468-.05.3-.117.653-.167,1.016-.115.873-.251,1.827-.385,2.718-.134.917-.249,1.83-.385,2.722-.015.081-.015.163-.032.245-.021.2-.053.486-.084.647,0,.042-.017.121-.017.165a5.084,5.084,0,0,0-.069,1.785s.117.528.318.549a1.312,1.312,0,0,0,.622-.143,1.442,1.442,0,0,0,.166-.062.523.523,0,0,1,.7.651,1.478,1.478,0,0,1-1.2.891,5.729,5.729,0,0,1-.858.063" fill="#fff"/>
      <path id="Trazado_5053" data-name="Trazado 5053" d="M760.537,484.284a4.246,4.246,0,0,1,.9,2.8c0,3.169-1.687,7.735-5.518,7.735a3.467,3.467,0,0,1-2.579-1.036,4.5,4.5,0,0,1-1.035-3.145c0-3.269,1.79-7.41,5.556-7.41a3.239,3.239,0,0,1,2.676,1.055m-1.909.853a1.376,1.376,0,0,0-1.021-.529c-2.39,0-2.974,4.691-2.974,6.271,0,1.908.668,2.578,1.439,2.578,2.64,0,3.009-5.479,3.009-6.454a2.95,2.95,0,0,0-.453-1.866" fill="#fff"/>
      <path id="Trazado_5054" data-name="Trazado 5054" d="M662.787,467.811a.4.4,0,0,1-.376.415h-1.033a.4.4,0,0,1-.376-.415l.133-1.076a.4.4,0,0,1,.375-.413h.768a.4.4,0,0,1,.376.413Z" fill="#fff"/>
      <path id="Trazado_5055" data-name="Trazado 5055" d="M661.363,465.51a.534.534,0,1,1,.531.583.563.563,0,0,1-.531-.583" fill="#fff"/>
      <path id="Trazado_5056" data-name="Trazado 5056" d="M663.163,496.709a.877.877,0,0,1-.833.916h-1.691a.877.877,0,0,1-.831-.916V494.34a.878.878,0,0,1,.831-.918h1.691a.878.878,0,0,1,.833.918Z" fill="#fff"/>
      <path id="Trazado_5057" data-name="Trazado 5057" d="M660.315,491.628a1.177,1.177,0,1,1,1.171,1.292,1.234,1.234,0,0,1-1.171-1.292" fill="#fff"/>
      <path id="Trazado_5058" data-name="Trazado 5058" d="M668.821,462.483a.436.436,0,0,1-.412.456h-.841a.435.435,0,0,1-.411-.456V461.3a.434.434,0,0,1,.411-.454h.841a.435.435,0,0,1,.412.454Z" fill="#fff"/>
      <path id="Trazado_5059" data-name="Trazado 5059" d="M667.406,459.961a.585.585,0,1,1,.581.641.616.616,0,0,1-.581-.641" fill="#fff"/>
      <path id="Trazado_5060" data-name="Trazado 5060" d="M677.6,469.385a1.255,1.255,0,0,1-1.185,1.312h-2.423a1.257,1.257,0,0,1-1.187-1.312v-3.391a1.255,1.255,0,0,1,1.187-1.311h2.423a1.254,1.254,0,0,1,1.185,1.311Z" fill="#fff"/>
      <path id="Trazado_5061" data-name="Trazado 5061" d="M673.531,462.121a1.682,1.682,0,1,1,1.673,1.849,1.77,1.77,0,0,1-1.673-1.849" fill="#fff"/>
      <path id="Trazado_5062" data-name="Trazado 5062" d="M680.216,484.728a1.074,1.074,0,0,1-1.016,1.125h-2.794a1.074,1.074,0,0,1-1.016-1.125l.356-2.9a1.075,1.075,0,0,1,1.019-1.123h2.077a1.075,1.075,0,0,1,1.018,1.123Z" fill="#fff"/>
      <path id="Trazado_5063" data-name="Trazado 5063" d="M676.367,478.5a1.444,1.444,0,1,1,1.437,1.586,1.518,1.518,0,0,1-1.437-1.586" fill="#fff"/>
      <path id="Trazado_5064" data-name="Trazado 5064" d="M732.779,497.5H731.4l-.211,1.042h1.147l-.108.519h-1.145l-.242,1.18h1.5l-.112.545h-2.135l.8-3.8h2.079Z" fill="#fff"/>
      <path id="Trazado_5065" data-name="Trazado 5065" d="M736.963,497.631a.855.855,0,0,0-.6-.215,1.078,1.078,0,0,0-.849.475,3.145,3.145,0,0,0-.486,1.627c0,.545.268.832.753.832a1.288,1.288,0,0,0,.728-.259l.221.419a1.948,1.948,0,0,1-1.116.341,1.2,1.2,0,0,1-1.258-1.356,3.154,3.154,0,0,1,.608-1.826,1.909,1.909,0,0,1,1.49-.752,1.235,1.235,0,0,1,.865.3Z" fill="#fff"/>
      <path id="Trazado_5066" data-name="Trazado 5066" d="M741.35,499.579c-.1.512-.186.749-.469.96a1.646,1.646,0,0,1-1.069.316c-.667,0-1.1-.291-1.1-.82a2.527,2.527,0,0,1,.05-.45l.542-2.6h.625l-.517,2.469a1.593,1.593,0,0,0-.051.512c.029.219.225.345.542.345a.773.773,0,0,0,.689-.353,1.218,1.218,0,0,0,.156-.47l.523-2.5h.618Z" fill="#fff"/>
      <path id="Trazado_5067" data-name="Trazado 5067" d="M745.3,500.785l-.083-1.02H744l-.515,1.02h-.664l2.026-3.807h.711l.4,3.807Zm-.2-2.422c-.015-.18-.048-.74-.048-.74s-.163.378-.287.614l-.507,1.006h.913Z" fill="#fff"/>
      <path id="Trazado_5068" data-name="Trazado 5068" d="M750.141,500.263a1.769,1.769,0,0,1-1.452.522h-.938l.8-3.8h.828c.586,0,.922.061,1.169.335a1.4,1.4,0,0,1,.317,1.005,3.049,3.049,0,0,1-.723,1.939m-.064-2.505a.643.643,0,0,0-.626-.274h-.382l-.579,2.782h.381a.991.991,0,0,0,.856-.4,3.087,3.087,0,0,0,.469-1.528,1.1,1.1,0,0,0-.119-.584" fill="#fff"/>
      <path id="Trazado_5069" data-name="Trazado 5069" d="M754.769,500.6a1.76,1.76,0,0,1-.943.254c-.855,0-1.23-.551-1.23-1.358a2.894,2.894,0,0,1,.888-2.157,1.615,1.615,0,0,1,1.149-.407,1.167,1.167,0,0,1,1.223,1.329,2.81,2.81,0,0,1-1.087,2.339m-.248-3.181a.933.933,0,0,0-.748.388,3.374,3.374,0,0,0-.5,1.8c0,.541.233.762.658.762a.867.867,0,0,0,.668-.3,3.513,3.513,0,0,0,.565-1.917c0-.438-.184-.731-.645-.731" fill="#fff"/>
      <path id="Trazado_5070" data-name="Trazado 5070" d="M759.281,499.107a.164.164,0,0,1-.051.005,1.735,1.735,0,0,1,.339.49c.133.269.424,1.067.45,1.154l-.669.056c-.043-.1-.2-.528-.245-.655a2.765,2.765,0,0,0-.463-.9.243.243,0,0,0-.228-.113l-.341,1.641h-.618l.79-3.8h1.138c.668,0,1.005.3,1.005.854a1.231,1.231,0,0,1-1.107,1.27m-.129-1.611h-.39l-.248,1.2h.3a.92.92,0,0,0,.643-.162.794.794,0,0,0,.269-.573c0-.329-.178-.464-.573-.464" fill="#fff"/>
      <path id="Trazado_5071" data-name="Trazado 5071" d="M664.635,480.714a.71.71,0,0,1-.673.74h-1.368a.708.708,0,0,1-.67-.74V478.8a.71.71,0,0,1,.67-.741h1.368a.711.711,0,0,1,.673.741Z" fill="#fff"/>
      <path id="Trazado_5072" data-name="Trazado 5072" d="M662.33,476.607a.951.951,0,1,1,.949,1.044,1,1,0,0,1-.949-1.044" fill="#fff"/>
      <path id="Trazado_5073" data-name="Trazado 5073" d="M669.306,457.634a.545.545,0,0,1-.517.569h-1.421a.543.543,0,0,1-.516-.569l.181-1.481a.546.546,0,0,1,.518-.57H668.6a.547.547,0,0,1,.519.57Z" fill="#fff"/>
      <path id="Trazado_5074" data-name="Trazado 5074" d="M667.348,454.465a.734.734,0,1,1,.73.808.77.77,0,0,1-.73-.808" fill="#fff"/>
      <path id="Trazado_5075" data-name="Trazado 5075" d="M669.71,496.425a.575.575,0,0,1-.542.605h-1.113a.576.576,0,0,1-.543-.605v-1.551a.574.574,0,0,1,.543-.6h1.113a.573.573,0,0,1,.542.6Z" fill="#fff"/>
      <path id="Trazado_5076" data-name="Trazado 5076" d="M667.843,493.1a.772.772,0,1,1,.768.849.812.812,0,0,1-.768-.849" fill="#fff"/>
      <path id="Trazado_5077" data-name="Trazado 5077" d="M675.3,486.888a.351.351,0,0,1-.332.368h-.679a.35.35,0,0,1-.331-.368v-.95a.349.349,0,0,1,.331-.367h.679a.351.351,0,0,1,.332.367Z" fill="#fff"/>
      <path id="Trazado_5078" data-name="Trazado 5078" d="M674.162,484.851a.472.472,0,1,1,.469.519.5.5,0,0,1-.469-.519" fill="#fff"/>
      <path id="Trazado_5079" data-name="Trazado 5079" d="M691.34,472.009a1.186,1.186,0,0,1-1.122,1.238h-2.291a1.184,1.184,0,0,1-1.122-1.238V468.8a1.184,1.184,0,0,1,1.122-1.239h2.291a1.186,1.186,0,0,1,1.122,1.239Z" fill="#fff"/>
      <path id="Trazado_5080" data-name="Trazado 5080" d="M687.488,465.139a1.59,1.59,0,1,1,1.584,1.749,1.673,1.673,0,0,1-1.584-1.749" fill="#fff"/>
      <path id="Trazado_5081" data-name="Trazado 5081" d="M657.052,476.207a.827.827,0,0,1-.781.865h-2.149a.826.826,0,0,1-.781-.865l.276-2.233a.827.827,0,0,1,.781-.864h1.6a.825.825,0,0,1,.782.864Z" fill="#fff"/>
      <path id="Trazado_5082" data-name="Trazado 5082" d="M654.092,471.422a1.11,1.11,0,1,1,1.105,1.217,1.166,1.166,0,0,1-1.105-1.217" fill="#fff"/>
      <path id="Trazado_5083" data-name="Trazado 5083" d="M665.578,488.965a.973.973,0,0,1-.919,1.017h-2.528a.972.972,0,0,1-.917-1.017l.323-2.625a.973.973,0,0,1,.921-1.017h1.876a.972.972,0,0,1,.919,1.017Z" fill="#fff"/>
      <path id="Trazado_5084" data-name="Trazado 5084" d="M662.1,483.337a1.3,1.3,0,1,1,1.3,1.434,1.37,1.37,0,0,1-1.3-1.434" fill="#fff"/>
      <path id="Trazado_5085" data-name="Trazado 5085" d="M666.835,460.838a.826.826,0,0,1-.783.865h-2.146a.828.828,0,0,1-.781-.865l.276-2.233a.823.823,0,0,1,.782-.862h1.6a.823.823,0,0,1,.781.862Z" fill="#fff"/>
      <path id="Trazado_5086" data-name="Trazado 5086" d="M663.877,456.053a1.109,1.109,0,1,1,1.1,1.218,1.166,1.166,0,0,1-1.1-1.218" fill="#fff"/>
      <path id="Trazado_5087" data-name="Trazado 5087" d="M684.566,472.752a1.479,1.479,0,0,1-1.4,1.549H679.3a1.481,1.481,0,0,1-1.4-1.549l.494-4.012a1.485,1.485,0,0,1,1.4-1.552h2.866a1.485,1.485,0,0,1,1.406,1.552Z" fill="#fff"/>
      <path id="Trazado_5088" data-name="Trazado 5088" d="M679.254,464.156a1.992,1.992,0,1,1,1.982,2.188,2.091,2.091,0,0,1-1.982-2.188" fill="#fff"/>
      <path id="Trazado_5089" data-name="Trazado 5089" d="M654.144,461.613a.432.432,0,0,0,.055-.213.4.4,0,0,0-.382-.423.347.347,0,0,0-.24.1.321.321,0,1,0-.639.05.485.485,0,0,0,.029.155.2.2,0,0,0-.088-.018.34.34,0,0,0-.322.355.387.387,0,0,0,.032.15.671.671,0,0,0-.2.486.618.618,0,0,0,.582.645.533.533,0,0,0,.236-.056v1.476h.5v-1.56a.414.414,0,0,0,.087.009.617.617,0,0,0,.585-.645.669.669,0,0,0-.229-.509" fill="#fff"/>
      <path id="Trazado_5090" data-name="Trazado 5090" d="M669.9,490.607a.986.986,0,0,1-.936,1.031h-1.9a.986.986,0,0,1-.935-1.031v-2.666a.987.987,0,0,1,.935-1.032h1.9a.986.986,0,0,1,.936,1.032Z" fill="#fff"/>
      <path id="Trazado_5091" data-name="Trazado 5091" d="M666.7,484.892a1.324,1.324,0,1,1,1.318,1.453,1.393,1.393,0,0,1-1.318-1.453" fill="#fff"/>
      <path id="Trazado_5092" data-name="Trazado 5092" d="M673.124,463.223a1.041,1.041,0,0,1-.988,1.086h-2.008a1.041,1.041,0,0,1-.985-1.086v-2.816a1.041,1.041,0,0,1,.985-1.087h2.008a1.041,1.041,0,0,1,.988,1.087Z" fill="#fff"/>
      <path id="Trazado_5093" data-name="Trazado 5093" d="M669.745,457.19a1.4,1.4,0,1,1,1.387,1.536,1.465,1.465,0,0,1-1.387-1.536" fill="#fff"/>
      <path id="Trazado_5094" data-name="Trazado 5094" d="M678.881,464.184a.4.4,0,0,1-.376.415h-1.024a.394.394,0,0,1-.373-.415l.131-1.065a.393.393,0,0,1,.374-.412h.761a.394.394,0,0,1,.375.412Z" fill="#fff"/>
      <path id="Trazado_5095" data-name="Trazado 5095" d="M677.467,461.9a.529.529,0,1,1,.527.581.56.56,0,0,1-.527-.581" fill="#fff"/>
      <path id="Trazado_5096" data-name="Trazado 5096" d="M684.087,482.213a1.019,1.019,0,0,1-.967,1.064h-1.968a1.019,1.019,0,0,1-.964-1.064v-2.754a1.022,1.022,0,0,1,.964-1.067h1.968a1.022,1.022,0,0,1,.967,1.067Z" fill="#fff"/>
      <path id="Trazado_5097" data-name="Trazado 5097" d="M680.777,476.31a1.367,1.367,0,1,1,1.361,1.5,1.435,1.435,0,0,1-1.361-1.5" fill="#fff"/>
      <path id="Trazado_5098" data-name="Trazado 5098" d="M686.474,471.2a.433.433,0,0,1-.412.453h-.841a.432.432,0,0,1-.412-.453v-1.178a.436.436,0,0,1,.412-.457h.841a.436.436,0,0,1,.412.457Z" fill="#fff"/>
      <path id="Trazado_5099" data-name="Trazado 5099" d="M685.059,468.682a.585.585,0,1,1,.582.642.612.612,0,0,1-.582-.642" fill="#fff"/>
      <path id="Trazado_5100" data-name="Trazado 5100" d="M661.092,472.061a1,1,0,0,1-.944,1.043H657.56a1,1,0,0,1-.945-1.043l.335-2.694a.993.993,0,0,1,.94-1.039h1.926a1,1,0,0,1,.943,1.039Z" fill="#fff"/>
      <path id="Trazado_5101" data-name="Trazado 5101" d="M657.524,466.288a1.337,1.337,0,1,1,1.329,1.47,1.4,1.4,0,0,1-1.329-1.47" fill="#fff"/>
      <path id="Trazado_5102" data-name="Trazado 5102" d="M668.055,501.33a1.209,1.209,0,0,1-1.144,1.264h-3.137a1.209,1.209,0,0,1-1.146-1.264l.4-3.263a1.207,1.207,0,0,1,1.144-1.264h2.331a1.21,1.21,0,0,1,1.145,1.264Z" fill="#fff"/>
      <path id="Trazado_5103" data-name="Trazado 5103" d="M663.729,494.334a1.62,1.62,0,1,1,1.611,1.781,1.7,1.7,0,0,1-1.611-1.781" fill="#fff"/>
      <path id="Trazado_5104" data-name="Trazado 5104" d="M668.645,481.629a.784.784,0,0,1-.742.82H665.86a.785.785,0,0,1-.743-.82l.262-2.122a.786.786,0,0,1,.744-.821h1.518a.785.785,0,0,1,.74.821Z" fill="#fff"/>
      <path id="Trazado_5105" data-name="Trazado 5105" d="M665.833,477.081a1.053,1.053,0,1,1,1.047,1.159,1.108,1.108,0,0,1-1.047-1.159" fill="#fff"/>
      <path id="Trazado_5106" data-name="Trazado 5106" d="M671.826,470.054a.737.737,0,0,1-.7.769h-1.911a.736.736,0,0,1-.694-.769l.244-1.987a.735.735,0,0,1,.7-.768h1.418a.734.734,0,0,1,.7.768Z" fill="#fff"/>
      <path id="Trazado_5107" data-name="Trazado 5107" d="M669.193,465.794a.986.986,0,1,1,.98,1.085,1.037,1.037,0,0,1-.98-1.085" fill="#fff"/>
      <path id="Trazado_5108" data-name="Trazado 5108" d="M674.835,459.826a.361.361,0,0,1-.34.377h-.938a.361.361,0,0,1-.339-.377l.118-.974a.362.362,0,0,1,.342-.378h.7a.36.36,0,0,1,.34.378Z" fill="#fff"/>
      <path id="Trazado_5109" data-name="Trazado 5109" d="M673.545,457.737a.483.483,0,1,1,.482.532.508.508,0,0,1-.482-.532" fill="#fff"/>
      <path id="Trazado_5110" data-name="Trazado 5110" d="M677.307,475.891a.64.64,0,0,1-.607.668h-1.665a.642.642,0,0,1-.608-.668l.214-1.734a.641.641,0,0,1,.609-.668h1.237a.637.637,0,0,1,.6.668Z" fill="#fff"/>
      <path id="Trazado_5111" data-name="Trazado 5111" d="M675.013,472.177a.859.859,0,1,1,.854.946.9.9,0,0,1-.854-.946" fill="#fff"/>
      <path id="Trazado_5112" data-name="Trazado 5112" d="M661.646,480.533a.934.934,0,0,1-.884.978h-2.424a.935.935,0,0,1-.887-.978l.311-2.522a.934.934,0,0,1,.885-.976h1.8a.931.931,0,0,1,.883.976Z" fill="#fff"/>
      <path id="Trazado_5113" data-name="Trazado 5113" d="M658.3,475.126a1.252,1.252,0,1,1,1.249,1.375,1.317,1.317,0,0,1-1.249-1.375" fill="#fff"/>
      <path id="Trazado_5114" data-name="Trazado 5114" d="M662.419,463.436a.825.825,0,0,1-.78.865h-1.6a.826.826,0,0,1-.781-.865v-2.23a.828.828,0,0,1,.781-.867h1.6a.827.827,0,0,1,.78.867Z" fill="#fff"/>
      <path id="Trazado_5115" data-name="Trazado 5115" d="M659.737,458.651a1.109,1.109,0,1,1,1.1,1.218,1.166,1.166,0,0,1-1.1-1.218" fill="#fff"/>
      <path id="Trazado_5116" data-name="Trazado 5116" d="M670.013,476.048a.351.351,0,0,1-.334.368H669a.351.351,0,0,1-.333-.368V475.1a.35.35,0,0,1,.333-.368h.677a.35.35,0,0,1,.334.368Z" fill="#fff"/>
      <path id="Trazado_5117" data-name="Trazado 5117" d="M668.87,474.013a.473.473,0,1,1,.471.519.5.5,0,0,1-.471-.519" fill="#fff"/>
      <path id="Trazado_5118" data-name="Trazado 5118" d="M687.741,478.167a.786.786,0,0,1-.744.822h-2.046a.787.787,0,0,1-.745-.822l.264-2.125a.787.787,0,0,1,.743-.825h1.522a.788.788,0,0,1,.744.825Z" fill="#fff"/>
      <path id="Trazado_5119" data-name="Trazado 5119" d="M684.924,473.609a1.056,1.056,0,1,1,1.05,1.16,1.108,1.108,0,0,1-1.05-1.16" fill="#fff"/>
      <path id="Trazado_5120" data-name="Trazado 5120" d="M653.074,463.659c.385.013.424-.19.439-.333.037-.338-.491-.536-.7-.068a.109.109,0,0,0-.115-.121c-.1-.342-.23-.654-.629-.684-.446-.034-.729.318-.8.8-.037.045-.116.045-.144.1a.228.228,0,0,0,.048.148c-.074,0-.144,0-.171.061a.355.355,0,0,0,.182.3c-.124.075-.187.319-.007.372a.545.545,0,0,0,.566-.184.9.9,0,0,0,.485,0c.067.057.111.2.26.24.2.047.459.032.446-.19-.008-.107-.093-.146-.167-.206.027-.031.239-.217.266-.245" fill="#fff"/>
    </g>
  </g>
</svg>
