<svg xmlns="http://www.w3.org/2000/svg" width="96.46" height="34.975" viewBox="0 0 96.46 34.975">
  <g id="Grupo_628" data-name="Grupo 628" transform="translate(-1057.54 -301.887)">
    <g id="Grupo_626" data-name="Grupo 626">
      <rect id="Rectángulo_1585" data-name="Rectángulo 1585" width="0.817" height="34.973" transform="translate(1084.211 301.887)" fill="#fff"/>
      <g id="Grupo_625" data-name="Grupo 625">
        <g id="Grupo_610" data-name="Grupo 610">
          <path id="Trazado_3248" data-name="Trazado 3248" d="M1066.876,316.952v-.208h-.839l-.061.1-.76,1.284v0l0,0-.46-1.215-.2-.516-.194.516-.462,1.234h0l-.773-1.3-.06-.1h-.84v4.826c.069.063.138.125.208.187v-.01l0-4.794h.514l.9,1.508.056.1.044.072.338.571.044.073.058.1.17.288.1-.177h0l.27.715-.319.553-.057.1h0l-.056-.1-.385-.669-.058-.1-.043-.073-.331-.577-.043-.074-.057-.1-.568-.983H1063v2.233l-.516,1.38,0,.007c.069.059.14.118.209.174l0-.007.306-.813.067-.176.084-.229.407-1.087h0l.331.575-.738,1.937-.041.11,0,0c.059.044.117.083.177.123V322.4l.061-.158.7-1.846h0l.265.459v0h0l.056.1.178.3.18-.3.058-.1v0h0l.265-.461h0l.6,1.591.241.638v1.369l.208.13v-5.946h-.013l-.484.839h0l-.264-.694.81-1.367h.514l0,7.535v.009c.071.048.139.1.208.147v-.007Zm-3.561,2.632-.155.414v-1.066h0l.193.331.051.087Zm1.19-.333h0l-.038-.067.043-.118v0l.005.014v0l.035.087Zm.936.057.031.081.039.108.341.891v1.522h0l-.685-1.813-.04-.11-.033-.081-.265-.711-.031-.081-.042-.107-.2-.533-.157.412h0l-.339-.574.5-1.323h0l.546,1.433.041.108.029.08Z" fill="#fff"/>
          <path id="Trazado_3249" data-name="Trazado 3249" d="M1061.1,315.368l0,4.892.021.027c.065.091.133.179.2.266v0a7.344,7.344,0,0,0,.725.838v-4.819h1.119l.7,1.173.692-1.845.7,1.828.685-1.157h1.12v8.2a10.192,10.192,0,0,1,.794.662l.229.213,0-10.277Z" fill="#fff"/>
          <path id="Trazado_3250" data-name="Trazado 3250" d="M1065.723,323.875v-1.221l-.7-1.846-.082.139-.387.656-.393-.659-.078-.135-.646,1.7c.462.309.945.588,1.437.871C1065.155,323.539,1065.438,323.7,1065.723,323.875Z" fill="#fff"/>
        </g>
        <g id="Grupo_613" data-name="Grupo 613">
          <path id="Trazado_3251" data-name="Trazado 3251" d="M1072.461,329.24a.1.1,0,0,0-.1-.1.1.1,0,0,0-.1.1v3.333c.043-.034.083-.068.125-.1s.054-.048.082-.071v-3.16Z" fill="#fff"/>
          <path id="Trazado_3252" data-name="Trazado 3252" d="M1072.861,329.631a.1.1,0,0,0-.1-.1.1.1,0,0,0-.1.1v2.6c.07-.061.139-.123.206-.184v-2.415Z" fill="#fff"/>
          <path id="Trazado_3253" data-name="Trazado 3253" d="M1072.058,328.848a.1.1,0,0,0-.1-.1.1.1,0,0,0-.1.1V332.9l.206-.162v-3.886Z" fill="#fff"/>
          <g id="Grupo_611" data-name="Grupo 611">
            <path id="Trazado_3254" data-name="Trazado 3254" d="M1069.106,315.366l0,19.309.156-.086.066-.036.02-.012.05-.028a.205.205,0,0,0,.022-.013c.022-.011.044-.026.068-.038a.084.084,0,0,1,.023-.012.4.4,0,0,1,.048-.028l.03-.018.047-.027.029-.018c.021-.012.044-.024.067-.039a.338.338,0,0,0,.037-.021l.038-.022.041-.024c.013-.009.025-.014.037-.022s.049-.03.075-.044l.031-.021.048-.028.029-.018c.016-.011.034-.021.052-.031l.006,0c.039-.024.077-.046.115-.071l.023-.014.056-.036.02-.013.191-.12.017-.012.064-.042h0c.048-.033.093-.063.141-.094l0,0,.067-.045.016-.01.208-.141c0-.005.008-.006.012-.009l.067-.048a.019.019,0,0,0,.011-.009c.072-.047.142-.1.212-.15a.064.064,0,0,0,.017-.012c.024-.016.047-.032.07-.05h0c.069-.051.14-.1.209-.157V328.3h-.121a.278.278,0,0,0-.355,0h-.046a.276.276,0,0,1-.177-.064.284.284,0,0,1-.179.064h-.046a.281.281,0,0,1-.178-.064.274.274,0,0,1-.177.064h-.046a.272.272,0,0,1-.177-.064.284.284,0,0,1-.179.064h-.046a.282.282,0,0,1-.283-.282v-1.026a.283.283,0,0,1,.283-.281h.046a.282.282,0,0,1,.178.063.274.274,0,0,1,.178-.063h.046a.275.275,0,0,1,.177.063.288.288,0,0,1,.167-.063h.139l-.789-.9,1.057-3.1v-.019h-.309v-.179h.309v-.359h.413v.359h.545l.131-5.357h-.708v-.238h.714l.021-.629h.245l.019.629h.716v.237h-.707l.133,5.357h.545v-.373h.413v.373h.31v.179h-.31v.019l1.059,3.1-.79.9h.138a.287.287,0,0,1,.155.062.28.28,0,0,1,.176-.062h.047a.285.285,0,0,0,.355,0h.048a.282.282,0,0,1,.281.281v1.025a.283.283,0,0,1-.282.283h-.047a.281.281,0,0,1-.178-.064.277.277,0,0,1-.178.064h-.046a.271.271,0,0,1-.176-.064.285.285,0,0,1-.178.064h-.047a.283.283,0,0,1-.178-.064.277.277,0,0,1-.178.064h-.046a.277.277,0,0,0-.354,0h-.048l-.028,0h-.046l0,3.265v.291l.208-.2h0l.108-.108.019-.021c.029-.03.058-.059.086-.089a.184.184,0,0,0,.021-.02c.034-.035.068-.072.1-.108v0c.033-.034.065-.068.1-.1a.158.158,0,0,0,.021-.024c.028-.029.056-.06.083-.09l.013-.016c.032-.036.063-.072.094-.109l.015-.017c.026-.029.05-.061.076-.09.008-.008.014-.017.022-.024.03-.036.058-.071.085-.106h0l.085-.107.02-.026.067-.086.019-.025c.027-.036.053-.07.078-.106l.012-.015c.022-.031.046-.06.067-.091l.021-.03c.022-.03.043-.059.062-.088l.014-.019.072-.107.017-.026c.017-.028.037-.055.055-.082l.019-.031c.023-.035.045-.071.068-.105a6.317,6.317,0,0,0,1.033-3.359l0-11.058Z" fill="#fff"/>
          </g>
          <path id="Trazado_3255" data-name="Trazado 3255" d="M1071.151,326.916a.1.1,0,0,0-.1.1V328a.1.1,0,0,0,.207,0v-.978A.1.1,0,0,0,1071.151,326.916Z" fill="#fff"/>
          <path id="Trazado_3256" data-name="Trazado 3256" d="M1071.956,326.916a.1.1,0,0,0-.105.1V328a.1.1,0,0,0,.106.1.1.1,0,0,0,.1-.1v-.978A.1.1,0,0,0,1071.956,326.916Z" fill="#fff"/>
          <path id="Trazado_3257" data-name="Trazado 3257" d="M1070.751,326.916a.1.1,0,0,0-.1.1V328a.1.1,0,0,0,.207,0v-.978A.1.1,0,0,0,1070.751,326.916Z" fill="#fff"/>
          <path id="Trazado_3258" data-name="Trazado 3258" d="M1071.554,326.916a.1.1,0,0,0-.1.1V328a.1.1,0,0,0,.207,0v-.978A.1.1,0,0,0,1071.554,326.916Z" fill="#fff"/>
          <path id="Trazado_3259" data-name="Trazado 3259" d="M1074.365,328.1a.1.1,0,0,0,.1-.1v-.978a.1.1,0,1,0-.205,0V328A.1.1,0,0,0,1074.365,328.1Z" fill="#fff"/>
          <path id="Trazado_3260" data-name="Trazado 3260" d="M1074.766,328.1a.1.1,0,0,0,.1-.1v-.978a.1.1,0,0,0-.207,0V328A.1.1,0,0,0,1074.766,328.1Z" fill="#fff"/>
          <path id="Trazado_3261" data-name="Trazado 3261" d="M1070.348,326.916a.1.1,0,0,0-.1.1V328a.1.1,0,0,0,.1.1.1.1,0,0,0,.1-.1v-.978A.1.1,0,0,0,1070.348,326.916Z" fill="#fff"/>
          <path id="Trazado_3262" data-name="Trazado 3262" d="M1069.948,326.916a.1.1,0,0,0-.1.1V328a.1.1,0,0,0,.207,0v-.978A.1.1,0,0,0,1069.948,326.916Z" fill="#fff"/>
          <path id="Trazado_3263" data-name="Trazado 3263" d="M1073.16,328.1a.1.1,0,0,0,.1-.1v-.978a.1.1,0,0,0-.207,0V328A.1.1,0,0,0,1073.16,328.1Z" fill="#fff"/>
          <path id="Trazado_3264" data-name="Trazado 3264" d="M1072.757,326.915a.1.1,0,0,0-.1.1V328a.1.1,0,0,0,.1.1.1.1,0,0,0,.1-.1v-.978A.1.1,0,0,0,1072.757,326.915Z" fill="#fff"/>
          <path id="Trazado_3265" data-name="Trazado 3265" d="M1073.859,328a.1.1,0,0,0,.1.1.1.1,0,0,0,.1-.1v-.978a.1.1,0,0,0-.207,0Z" fill="#fff"/>
          <path id="Trazado_3266" data-name="Trazado 3266" d="M1072.357,326.916a.1.1,0,0,0-.1.1V328a.1.1,0,1,0,.207,0v-.978A.1.1,0,0,0,1072.357,326.916Z" fill="#fff"/>
          <path id="Trazado_3267" data-name="Trazado 3267" d="M1073.56,326.915a.1.1,0,0,0-.1.1V328a.1.1,0,0,0,.206,0v-.978A.1.1,0,0,0,1073.56,326.915Z" fill="#fff"/>
          <g id="Grupo_612" data-name="Grupo 612">
            <path id="Trazado_3268" data-name="Trazado 3268" d="M1071.529,322.7l-.756,2.938.646.609h.53l.119-3.55h-.539Z" fill="#fff"/>
            <path id="Trazado_3269" data-name="Trazado 3269" d="M1073.181,322.7h-.537l.12,3.547h.532l.644-.609Z" fill="#fff"/>
          </g>
        </g>
        <path id="Trazado_3270" data-name="Trazado 3270" d="M1078.948,327.286a.206.206,0,0,0,.152-.1.2.2,0,0,0,.014-.182,21.267,21.267,0,0,1-1.216-3.75c-.064-.343-.115-.684-.154-1.011a9.968,9.968,0,0,1-.03-2.036,7.329,7.329,0,0,1,.487-1.812c.018-.053.038-.106.059-.16a7.535,7.535,0,0,0,.494-3.483,3.992,3.992,0,0,0-.927-2.3l-.139-.226a4.156,4.156,0,0,0-1.508-1.317l-.045-.022a.246.246,0,0,1-.033-.016l-.009,0a3.1,3.1,0,0,0-1.316-.318,1.921,1.921,0,0,0-1.631.8l0,0a.419.419,0,0,0-.025.038.167.167,0,0,0-.024.032.209.209,0,0,0-.032.134l.19,1.218c-.209.009-.381.013-.613.013-.329,0-.675-.008-1.055-.027h-.006c-.213,0-.216.247-.253.394-.02.075-.045.147-.065.221l-.084.35c-.007.028-.013.055-.019.082l0,0-.006,0-.009,0-.022.006a6.92,6.92,0,0,0-.721.238,5.152,5.152,0,0,1-1.979.365,7.765,7.765,0,0,1-2.531-.445h-.006c-.089-.033-.178-.063-.266-.094v-.012c-.072-.3-.147-.6-.218-.9a.207.207,0,0,0-.2-.161h-.007c-.372.019-.715.027-1.051.027-.19,0-.374,0-.552-.008l.052-.552.069-.7a.216.216,0,0,0-.026-.122h0a.108.108,0,0,0-.013-.021l-.009-.013-.027-.038a1.937,1.937,0,0,0-1.635-.8,3.136,3.136,0,0,0-1.3.3l0,0-.032.015a.4.4,0,0,0-.055.027,3.384,3.384,0,0,0-.364.208,3.805,3.805,0,0,0-1.064,1.044c-.093.136-.184.274-.281.407-.064.089-.136.174-.193.266-.07.111-.138.232-.212.38a4.228,4.228,0,0,0-.317.781,6.2,6.2,0,0,0-.054,2.892,9.575,9.575,0,0,0,.446,1.436,10.078,10.078,0,0,1,.418,1.318,8.206,8.206,0,0,1,.03,3.113,11.4,11.4,0,0,1-.58,2.086l-.346-.007h0a.209.209,0,0,0-.2.134,4.676,4.676,0,0,0-.329,2.049,3.475,3.475,0,0,0,.685,1.762.209.209,0,0,0,.169.085.093.093,0,0,0,.023,0l.446-.05a11.058,11.058,0,0,0,1.71,3.074,11.916,11.916,0,0,0,2.648,2.434l-.269.67a.208.208,0,0,0,.081.252,9.789,9.789,0,0,0,5.287,1.6,8.367,8.367,0,0,0,5.2-1.784.211.211,0,0,0,.076-.21l-.122-.538a12.655,12.655,0,0,0,1.7-1.374,11.05,11.05,0,0,0,1.381-1.617,10.864,10.864,0,0,0,1.041-1.851,12.65,12.65,0,0,0,.711-2.088l.421-.073Zm-4.166-15.486a4.851,4.851,0,0,1,1.457.253c-.035,0-.074.007-.126.01l-.041,0c-.2.012-.423.025-.657.026a3.038,3.038,0,0,1-1.253-.22A2.518,2.518,0,0,1,1074.782,311.8Zm-12.842.025a2.4,2.4,0,0,1,.671.084,3.593,3.593,0,0,1-1.279.2c-.25,0-.486-.016-.693-.03h0c-.026,0-.05,0-.075,0l-.056-.005A4.888,4.888,0,0,1,1061.94,311.825Zm14.379,11.112a15.664,15.664,0,0,0,.729,2.7.351.351,0,0,0-.044.035.213.213,0,0,0-.053.16,4.042,4.042,0,0,1-.125,1.349,10.206,10.206,0,0,1-5.912,6.971c-.2.083-.125.358-.089.513.014.062.029.123.042.186a6.492,6.492,0,0,1-2.428.484,7.022,7.022,0,0,1-2.505-.484l0-.009,0-.012.054-.225c.106-.33-.125-.392-.125-.392a9.891,9.891,0,0,1-5.913-6.944c-.063-.231-.341-.141-.5-.106s-.319.035-.477.053l-.072.01a2.533,2.533,0,0,1-.042-.938h.608a.209.209,0,0,0,.189-.12,13.757,13.757,0,0,0,.737-1.892,8.275,8.275,0,0,0,.349-3.12,9.42,9.42,0,0,0-.431-1.9c-.111-.37-.227-.753-.31-1.133a10.284,10.284,0,0,1-.139-4.395,11.4,11.4,0,0,0,3.067.611c.028.143.048.274.06.348a.211.211,0,0,0,.207.177h.013l.043,0,.055,0c.04,0,.085,0,.129,0h.112c.072,0,.132.006.187.01a7.531,7.531,0,0,1,2.042.566l.191.072a6.714,6.714,0,0,0,2.511.575h0a7.467,7.467,0,0,0,2.094-.422c.08-.023.161-.049.242-.072a9.65,9.65,0,0,1,2.807-.541c.118,0,.244,0,.372.012h.015a.215.215,0,0,0,.142-.056.211.211,0,0,0,.066-.153v-.594a10.5,10.5,0,0,0,2.673-.584,7.54,7.54,0,0,1,.187,1.512,10.47,10.47,0,0,1-.242,2.515c-.072.345-.172.7-.267,1.034a13.378,13.378,0,0,0-.341,1.414A8.806,8.806,0,0,0,1076.319,322.937Zm2.036,4.246c.021-.124.034-.241.047-.356a.985.985,0,0,0,.187.315Z" fill="#1d1d1b"/>
        <g id="Grupo_614" data-name="Grupo 614">
          <path id="Trazado_3271" data-name="Trazado 3271" d="M1078.355,327.183l.234-.041a.985.985,0,0,1-.187-.315C1078.389,326.942,1078.376,327.059,1078.355,327.183Z" fill="#fff"/>
          <path id="Trazado_3272" data-name="Trazado 3272" d="M1065.269,313.339l-.025-.1a2.7,2.7,0,0,1-1.121.229l-.2.019c.147.012.292.031.438.057a7.658,7.658,0,0,1,1.017.269Z" fill="#fff"/>
          <path id="Trazado_3273" data-name="Trazado 3273" d="M1063.495,311.559c-.013-.017-.022-.032-.034-.046a1.729,1.729,0,0,0-1.469-.723,2.932,2.932,0,0,0-1.214.285c-.028.015-.058.027-.084.04a3.731,3.731,0,0,0-.963.7,3.685,3.685,0,0,0-.373.425c-.039.052-.077.1-.113.157.006-.005.014-.006.021-.011.226-.12.455-.226.683-.32.092-.038.18-.073.27-.105l.07-.024a.628.628,0,0,1,.073-.025,5.153,5.153,0,0,1,1.618-.3,2.28,2.28,0,0,1,.941.172c.037.016.072.035.1.053s.037.022.055.031.034.024.051.035a1.175,1.175,0,0,1,.125.106.808.808,0,0,1,.16.23l.009.015.017-.172.052-.526Z" fill="#fff"/>
          <path id="Trazado_3274" data-name="Trazado 3274" d="M1059.071,327.719c.038.089.08.177.127.263a4.812,4.812,0,0,0,.278.437.829.829,0,0,0-.027-.356,1.17,1.17,0,0,1,.006-.693l-.492.058A2.749,2.749,0,0,0,1059.071,327.719Z" fill="#fff"/>
          <path id="Trazado_3275" data-name="Trazado 3275" d="M1071.453,313.732a6.23,6.23,0,0,1,1.138-.172,2.841,2.841,0,0,1-1.093-.274l-.113.464a.269.269,0,0,0,.034-.01Z" fill="#fff"/>
          <path id="Trazado_3276" data-name="Trazado 3276" d="M1078.219,326.142c0-.06,0-.119-.01-.177s-.007-.1-.013-.154h-1.037c0,.018,0,.035,0,.052a4.321,4.321,0,0,1-.135,1.369,10.512,10.512,0,0,1-4.945,6.578c.157-.08.314-.163.477-.229a1.067,1.067,0,0,1,.369-.1.619.619,0,0,1,.275.063.226.226,0,0,1,.14.152l.024.107v0l.043.193.027.112a11.1,11.1,0,0,0,4.68-6.759h0c0-.021.005-.038.009-.057s.005-.037.008-.056.007-.039.01-.059a5.683,5.683,0,0,0,.076-.8C1078.222,326.293,1078.222,326.217,1078.219,326.142Z" fill="#fff"/>
          <path id="Trazado_3277" data-name="Trazado 3277" d="M1065.717,334.649a2.658,2.658,0,0,1-.967-.4l-.006,0-.009,0c-.16-.086-.34-.181-.506-.259a9.932,9.932,0,0,0,1.494.779l.014.006h0l.033-.126C1065.753,334.647,1065.735,334.649,1065.717,334.649Z" fill="#fff"/>
          <path id="Trazado_3278" data-name="Trazado 3278" d="M1059.35,328.775l-.261.03a10.972,10.972,0,0,0,4.225,5.337l.146-.364a.2.2,0,0,1,.045-.07.381.381,0,0,1,.273-.079,3.131,3.131,0,0,1,1.064.437,2.954,2.954,0,0,0,.875.375c.055,0,.068-.019.073-.036-.061-.025-.122-.05-.183-.077a10.09,10.09,0,0,1-5.833-6.937c-.007-.023-.013-.046-.019-.069-.012,0-.015.009-.03.021-.172.162-.122.425-.071.68a.7.7,0,0,1-.014.526A.589.589,0,0,1,1059.35,328.775Z" fill="#fff"/>
          <path id="Trazado_3279" data-name="Trazado 3279" d="M1071.918,334.017a4.525,4.525,0,0,1-.717.341l-.029.008-.009,0-.022.006h-.01l-.024.006-.008,0-.03,0h0a.122.122,0,0,1-.027,0l-.01,0h-.062l-.034,0,.064.179.067.2a8.448,8.448,0,0,0,1.558-.9c.076-.055.153-.11.228-.17A4.329,4.329,0,0,0,1071.918,334.017Z" fill="#fff"/>
          <path id="Trazado_3280" data-name="Trazado 3280" d="M1073.281,334.367l0-.014-.014-.061-.011-.054-.045-.194-.039-.178,0-.016-.026-.109a.2.2,0,0,1-.027.021.747.747,0,0,1-.06.048,8.867,8.867,0,0,1-1.908,1.151l-.009.006-.044.017-.008,0a.425.425,0,0,1-.043.019h-.008c-.018.009-.035.015-.053.023a6.7,6.7,0,0,1-2.541.514,7.253,7.253,0,0,1-2.614-.513l-.061-.022-.01-.005c-.014,0-.026-.012-.041-.017l-.011,0a.4.4,0,0,0-.04-.017l-.011-.006a10.257,10.257,0,0,1-1.914-1.05c-.024-.015-.047-.031-.07-.047l-.013-.009-.045.111-.118.295-.021.05-.021.055-.015.038-.274.685a9.6,9.6,0,0,0,5.174,1.567,8.161,8.161,0,0,0,5.069-1.742Z" fill="#fff"/>
          <path id="Trazado_3281" data-name="Trazado 3281" d="M1059.262,328.475a4.434,4.434,0,0,1-.247-.394,3.585,3.585,0,0,1-.263-.626l0-.006c-.006-.017-.009-.032-.015-.049v-.007c0-.014-.01-.031-.015-.047v-.006a.358.358,0,0,1-.01-.041,2.791,2.791,0,0,1-.049-1.069c0-.014,0-.028.006-.043s.009-.038.012-.055.006-.036.009-.054a3.378,3.378,0,0,1,.384-.992l-.5-.013h-.137l-.356-.009a3.579,3.579,0,0,0,.329,3.613l.455-.053.349-.04.113-.014C1059.305,328.538,1059.283,328.508,1059.262,328.475Z" fill="#fff"/>
          <path id="Trazado_3282" data-name="Trazado 3282" d="M1073.958,313.824l-.06-.007a7.571,7.571,0,0,0-.927-.059,6.113,6.113,0,0,0-1.468.177l-.111.027a.642.642,0,0,1-.073.019.114.114,0,0,1-.035.01l-.026.009a.252.252,0,0,0-.039.012l-.021.006a6.39,6.39,0,0,0-.72.237l-.119.047-.036.014-.083.029-.04.015-.085.027-.035.011-.119.036-.015,0c-.034.01-.069.019-.1.027l-.04.011-.081.018a.333.333,0,0,1-.043.01q-.042.011-.084.018l-.035.007-.118.022-.024,0c-.033.006-.063.012-.095.016l-.04.006c-.029,0-.053.006-.08.011l-.042.005-.086.01-.032,0c-.039.005-.078.008-.117.012a.126.126,0,0,0-.027,0l-.089.006h-.04l-.08,0-.038,0h-.089a.113.113,0,0,1-.026,0h-.216c-.024,0-.047,0-.07,0h-.022c-.028,0-.056,0-.083,0h-.018l-.069,0h-.022c-.027,0-.055,0-.083-.005h-.01c-.026,0-.049,0-.073,0l-.023,0c-.026,0-.052,0-.079-.008h-.006c-.025,0-.049,0-.076-.007l-.024,0-.066-.007h-.011l-.076-.009a.1.1,0,0,0-.024,0l-.059-.008-.018,0-.072-.01-.021,0c-.02,0-.038-.005-.057-.009l-.019,0c-.024,0-.048-.007-.069-.012l-.02,0-.053-.008-.021-.005-.066-.012-.017,0-.051-.009-.021-.005-.062-.012-.016,0-.049-.011-.022,0-.047-.01-.019-.005a.42.42,0,0,1-.051-.012l-.022,0c-.014,0-.028-.007-.042-.012l-.015,0-.052-.013-.021,0-.036-.011a.085.085,0,0,1-.017,0l-.047-.013a.07.07,0,0,1-.019-.006l-.034-.008-.016,0-.045-.014-.016,0-.029-.008-.016-.005a.355.355,0,0,0-.041-.011l-.013,0-.029-.009-.014-.005a.245.245,0,0,1-.029-.009l-.016,0-.026-.009-.013-.005-.023-.007-.012,0-.025-.009-.011,0-.02-.006-.009,0-.023-.009-.009,0-.016-.005h-.005l-.019-.009h-.006l-.012-.005h-.005l-.013-.005,0,0-.009,0h0l-.008,0h0l0,0h0c-.088-.033-.177-.064-.268-.094a5.969,5.969,0,0,0-1.93-.405,3.455,3.455,0,0,0-.435.027l-.122.018a.31.31,0,0,1-.044.007,4.745,4.745,0,0,1,.126.549c.037.2.064.376.064.376.034,0,.066,0,.1-.005s.093,0,.14,0l.115,0c.066,0,.134.005.2.01a7.72,7.72,0,0,1,2.1.579,6.958,6.958,0,0,0,2.628.634,8.36,8.36,0,0,0,2.279-.485,9.878,9.878,0,0,1,2.865-.551c.128,0,.257.006.387.014v-1.018Z" fill="#fff"/>
          <path id="Trazado_3283" data-name="Trazado 3283" d="M1059.161,312.587a2.007,2.007,0,0,0-.288.379,4.137,4.137,0,0,0-.2.363,4.045,4.045,0,0,0-.3.745,5.969,5.969,0,0,0-.048,2.794c.188.944.661,1.811.863,2.751a8.486,8.486,0,0,1,.032,3.193,11.678,11.678,0,0,1-.564,2.054l.424.01a.212.212,0,0,1,.175.1h.012l-.006.01a.2.2,0,0,1,0,.2,3.3,3.3,0,0,0-.352.89h.571a13.527,13.527,0,0,0,.726-1.863,8.1,8.1,0,0,0,.341-3.041,24.331,24.331,0,0,0-.736-3.008,10.521,10.521,0,0,1-.134-4.511l-.009,0-.02-.009c-.091-.036-.187-.076-.3-.125a.206.206,0,0,1-.113-.124.213.213,0,0,1,.014-.166l.441-.819Z" fill="#fff"/>
          <path id="Trazado_3284" data-name="Trazado 3284" d="M1062.928,312.026l-.006,0h0a3.58,3.58,0,0,1-1.549.295c-.259,0-.5-.016-.711-.03-.15-.009-.28-.018-.388-.019a10.705,10.705,0,0,0,2.763.534l.073,0,.029,0,.039,0,.061,0c.038,0,.075,0,.113.006l.022-.014c.023-.014.016-.156.014-.182a.448.448,0,0,0-.046-.183.93.93,0,0,0-.225-.3A.5.5,0,0,0,1062.928,312.026Z" fill="#fff"/>
          <path id="Trazado_3285" data-name="Trazado 3285" d="M1076.583,312.232a.545.545,0,0,0-.059-.005h-.064l-.021,0c-.114,0-.157.01-.319.02-.214.013-.458.028-.722.029a3.244,3.244,0,0,1-1.551-.328l-.052-.028a.831.831,0,0,0-.158.125.7.7,0,0,0-.178.287.766.766,0,0,0-.036.237.439.439,0,0,0,.015.109c.006.027.013.073.04.09h0a10.6,10.6,0,0,0,3.005-.478.528.528,0,0,1,.056-.018l.051-.019a.1.1,0,0,1,.033-.011A.2.2,0,0,0,1076.583,312.232Z" fill="#fff"/>
          <path id="Trazado_3286" data-name="Trazado 3286" d="M1074.785,311.566a5.878,5.878,0,0,1,1.618.294c.026.007.051.016.076.024l.066.024c.132.049.262.1.393.157.187.08.374.17.56.268l.018.009c-.037-.055-.077-.108-.117-.16a3.912,3.912,0,0,0-1.311-1.091c-.027-.013-.058-.025-.084-.04a2.911,2.911,0,0,0-1.227-.3,1.724,1.724,0,0,0-1.462.717c-.009.016-.019.029-.03.045a.159.159,0,0,0-.015.021l.065.658a.9.9,0,0,1,.2-.3A1.855,1.855,0,0,1,1074.785,311.566Z" fill="#fff"/>
          <path id="Trazado_3287" data-name="Trazado 3287" d="M1077.6,312.53a.816.816,0,0,1,.068.055,3.865,3.865,0,0,1,.877,2.192,7.412,7.412,0,0,1-.485,3.385,8.229,8.229,0,0,0-.555,2.023,9.991,9.991,0,0,0,.03,2.081c.04.342.094.687.157,1.025a16.66,16.66,0,0,0,.817,2.742c.008.019.017.042.024.063.128.335.258.663.387.982h-.011l-.014,0c-.267-.019-.389-.568-.462-.936a.109.109,0,0,1-.007-.029l-.009-.171c-.006-.053-.01-.106-.016-.159a.208.208,0,0,0-.207-.184h-.936a15.108,15.108,0,0,1-.734-2.7,8.408,8.408,0,0,1-.087-2.722c.133-.825.434-1.622.607-2.437a10.605,10.605,0,0,0,.245-2.568,7.778,7.778,0,0,0-.2-1.578.058.058,0,0,1,.021-.007l.011-.006c.083-.033.256-.1.364-.153,0,0,.142-.06.031-.263l-.441-.812Z" fill="#fff"/>
          <path id="Trazado_3288" data-name="Trazado 3288" d="M1076.678,312.44a.029.029,0,0,1-.016.007l-.009,0-.033.012-.017.006-.044.015,0,0a10.349,10.349,0,0,1-3.017.49h-.036c-.28.015-.567.022-.863.022-.343,0-.691-.009-1.065-.028l0,.008-.015.065c.059.181.721.268,1.258.337a4.814,4.814,0,0,1,1.275.257.22.22,0,0,1,.133.2v.215a10.339,10.339,0,0,0,2.721-.615l.036-.015.02-.006a.3.3,0,0,1,.048-.02c.094-.038.192-.08.288-.123l-.485-.9Z" fill="#fff"/>
          <path id="Trazado_3289" data-name="Trazado 3289" d="M1065.2,313.068l-.012-.049c-.373.019-.722.028-1.058.028q-.375,0-.731-.016c-.057,0-.117-.005-.176-.01-.034,0-.066,0-.1-.005s-.068,0-.1,0a10.994,10.994,0,0,1-2.882-.568c-.018-.006-.037-.014-.054-.019a.04.04,0,0,0-.016,0,.191.191,0,0,0-.035-.014h0l-.059-.022-.035-.011-.018.034-.022.042-.475.879c.1.045.194.084.29.123l.05.019c.017.007.035.012.056.019a.525.525,0,0,0,.073.028,10.888,10.888,0,0,0,3,.611c-.017-.072-.026-.144-.036-.216-.008-.044-.021-.087-.033-.13a.322.322,0,0,1-.011-.056.189.189,0,0,1,.058-.167.446.446,0,0,1,.146-.1.063.063,0,0,0,.018-.006.43.43,0,0,1,.082-.023c.021-.005.044-.01.069-.014a8.6,8.6,0,0,1,.859-.12h.014c.151-.015.3-.031.453-.056A2.929,2.929,0,0,0,1065.2,313.068Z" fill="#fff"/>
        </g>
        <g id="Grupo_616" data-name="Grupo 616">
          <path id="Trazado_3290" data-name="Trazado 3290" d="M1063.026,313.36a.289.289,0,0,0-.1.012.184.184,0,0,0-.082.046.219.219,0,0,0-.056.072.26.26,0,0,0-.025.1.232.232,0,0,0,.014.1.255.255,0,0,0,.047.08l.005.005a.322.322,0,0,1-.011-.056.189.189,0,0,1,.058-.167.121.121,0,0,1,.008-.02.123.123,0,0,1,.031-.046.109.109,0,0,1,.048-.03.17.17,0,0,1,.062-.007h.015a.43.43,0,0,1,.082-.023c.021-.005.044-.01.069-.014a.253.253,0,0,0-.061-.037A.332.332,0,0,0,1063.026,313.36Z" fill="#1d1d1b"/>
          <g id="Grupo_615" data-name="Grupo 615">
            <path id="Trazado_3291" data-name="Trazado 3291" d="M1059.918,312.711l.148.052,0,.324h0l.2-.249.147.053-.159.439-.1-.034.123-.339h0l-.24.3-.071-.024.011-.379h0l-.123.337-.1-.035Z" fill="#1d1d1b"/>
            <path id="Trazado_3292" data-name="Trazado 3292" d="M1060.5,312.916l.307.091-.027.092-.206-.062-.024.083.193.058-.026.091-.2-.057-.027.093.217.065-.025.09-.319-.1Z" fill="#1d1d1b"/>
            <path id="Trazado_3293" data-name="Trazado 3293" d="M1060.893,313.032l.153.037.033.323h0l.178-.272.15.037-.109.455-.1-.024.087-.349h0l-.207.32-.077-.019-.03-.377h0l-.086.349-.1-.025Z" fill="#1d1d1b"/>
            <path id="Trazado_3294" data-name="Trazado 3294" d="M1061.5,313.175l.314.06-.02.093-.21-.04-.017.085.2.039-.018.093-.2-.038-.018.093.223.043-.018.094-.324-.062Z" fill="#1d1d1b"/>
            <path id="Trazado_3295" data-name="Trazado 3295" d="M1061.9,313.251l.14.019.15.351h0l.046-.322.1.016-.071.462-.133-.019-.154-.358h0l-.048.331-.1-.016Z" fill="#1d1d1b"/>
            <path id="Trazado_3296" data-name="Trazado 3296" d="M1062.509,313.423l-.134-.014.01-.09.37.036-.012.092-.133-.014-.036.376-.1-.011Z" fill="#1d1d1b"/>
          </g>
        </g>
        <g id="Grupo_620" data-name="Grupo 620">
          <g id="Grupo_618" data-name="Grupo 618">
            <path id="Trazado_3297" data-name="Trazado 3297" d="M1063.95,310.057l-.109.016-.995.149-.676-.744-.075-.083-.109.017-.994.148-.609-.67-.14-.155-.154.14-.275.25-.156.14.141.155.818.9.074.082.11-.015.994-.149.675.744.075.083.111-.017.994-.149.517.571.113.125-.051.089a.769.769,0,0,0-.077.582.759.759,0,0,0,.357.465.764.764,0,0,0,.968-.169.655.655,0,0,0,.531.272l4.6,0a.652.652,0,0,0,.534-.279.767.767,0,0,0,.591.279.761.761,0,0,0,.74-.569.756.756,0,0,0-.076-.579l-.027-.047.086-.1.516-.57.993.148.111.016.075-.082.675-.745.993.148.111.016.075-.082.817-.9.14-.155-.154-.14-.277-.251-.155-.139-.139.154-.609.67-.994-.146-.11-.017-.074.083-.675.744-.764-.114.005-.006.556-.837,1,0h.111l.062-.092.557-.839.679,0v.147l.209,0,.814,0h.21v-.209l0-.676v-.209l-.208,0-.815,0h-.21v.158l-1,0-.11,0-.062.092-.557.837-1,0h-.112l-.061.092-.556.837h-.126l.084-.219.264-.675.979-.217.108-.023.042-.1.364-.938.885-.2.2-.045-.044-.2-.081-.362-.045-.2-.2.046-1.189.262-.108.025-.041.1-.364.937-.98.218-.08.016.649-.3.1-.046.019-.111.155-.993.622-.288.057.123.188-.087.743-.338.19-.088-.088-.189-.281-.616-.087-.189-.189.086-.743.339-.189.087.071.155-.908.419-.1.046-.017.111-.156.994-.911.422-.1.046-.018.111-.119.77a.632.632,0,0,0-.142-.115.412.412,0,0,0-.218-.058.5.5,0,0,0-.12.014l1.1-1.518.044-.061,0-.075-.061-1,.72-.547.169-.127-.128-.166-.224-.3-.125-.166-.167.125-.969.736-.09.068.008.111.063,1.045-.141.209a2.677,2.677,0,0,0-.326-.218l-.079-.279-.3-1.07.588-.689.134-.159-.158-.136-.283-.241-.158-.136-.135.159-.789.925-.072.086.028.107.3,1.061a4.612,4.612,0,0,0-.66-.12l.05-.1-.052-.1-.474-.886.427-.8.059-.112-.072-.1-.458-.668-.016-.158-.081-.81-.021-.209-.208.022-.672.067-.209.021.022.208.082.811.021.207.206-.021h.014l.471.686-.407.762-.054.1.054.1.51.956a4.482,4.482,0,0,0-.722.089l-.135-.148-.731-.8.22-.879.05-.2-.2-.051-.361-.09-.2-.051-.05.2-.3,1.18-.026.108.075.083.825.91a3.052,3.052,0,0,0-.733.444l-.186.155V306.7h0v-.486l-.094-.061-.834-.558,0-.7h.122v-1.233h-1.094V304.9h.183v1.118l.094.062.836.558v1.116l.093.064.7.468a.632.632,0,0,0-.181.211l-.137-.048-.9-.321-.245-.974-.027-.108-.1-.037-.947-.338-.221-.878-.051-.2-.2.052-.361.091-.2.049.05.2.3,1.179.027.109.1.037.946.336.246.976.027.107.105.039.783.279a1.276,1.276,0,0,0-.2.246l-.152-.015-.853-.084-.474-.884-.053-.1-.11-.012-1-.1-.326-.615.153-.086-.1-.183-.4-.71-.1-.182-.183.1-.59.33-.183.1.1.181.4.711.1.183.112-.063.468.874.051.1.112.011,1,.1.474.885.054.1.111.012.927.1Zm5.92-2.115a1.382,1.382,0,0,1,.564-.845Zm2.286,2.757a1.328,1.328,0,0,0,.195-.43h.2Zm-.331-1.952.113-.725.229-.107-.038.1-.264.681-.044.115Zm-5.972-1.8a1.391,1.391,0,0,1,.865,1.289c0,.02,0,.043,0,.066v.008l-.006.126-.168-.047v-.442l-.093-.062-.835-.557v-.4h0v-.082Z" fill="#1d1d1b"/>
            <path id="Trazado_3298" data-name="Trazado 3298" d="M1074.995,307.825l-.616.929-1.116,0-.619.93h-.249a1.347,1.347,0,0,1,.011.373l.437,0,.619-.929,1.115,0,.618-.929,1,0v.147l.815.005,0-.677-.813-.005,0,.158Z" fill="#fff"/>
            <path id="Trazado_3299" data-name="Trazado 3299" d="M1073.414,307.845l-1.09.242-.331.864a1.328,1.328,0,0,1,.263.338l.343-.883,1.09-.242.4-1.04.993-.22-.08-.362-1.187.262Z" fill="#fff"/>
            <path id="Trazado_3300" data-name="Trazado 3300" d="M1071.258,308.62a1.129,1.129,0,0,1,.361.1l.129-.836,1.014-.469.173-1.1.914-.423.057.125.742-.339-.283-.617-.741.34.071.154-1.1.506-.174,1.105-1.012.468Z" fill="#fff"/>
            <path id="Trazado_3301" data-name="Trazado 3301" d="M1064.1,305.906l.928.62v1.116l.741.5a.5.5,0,0,1,.123-.014.606.606,0,0,1,.243.051l.194.072v-.184l-.93-.62v-.6l-.006,0,.006,0v-.507l-.928-.622v-1.017h.12v-.814h-.676v.815h.184Z" fill="#fff"/>
            <path id="Trazado_3302" data-name="Trazado 3302" d="M1061.875,310.015l.75.827,1.1-.166.592.653.2-.338-.646-.711-1.1.164-.748-.827-1.107.165-.682-.754-.276.251.818.9Z" fill="#fff"/>
            <path id="Trazado_3303" data-name="Trazado 3303" d="M1074.748,310.085l-.75.827-1.1-.163-.592.653-.194-.338.644-.713,1.1.166.75-.828,1.1.164.684-.753.274.249-.816.9Z" fill="#fff"/>
            <path id="Trazado_3304" data-name="Trazado 3304" d="M1063.646,307.488l.272,1.082.821.293a1.386,1.386,0,0,1,.493-.218l-1-.358-.272-1.083-1.052-.375-.247-.987-.36.091.3,1.179Z" fill="#fff"/>
            <path id="Trazado_3305" data-name="Trazado 3305" d="M1070.2,306.1l-.333-1.179.659-.774-.284-.241-.788.925.313,1.108A1.486,1.486,0,0,1,1070.2,306.1Z" fill="#fff"/>
            <path id="Trazado_3306" data-name="Trazado 3306" d="M1067.074,305.887l-.8-.886.247-.988-.361-.09-.3,1.18.826.911A1.75,1.75,0,0,1,1067.074,305.887Z" fill="#fff"/>
            <path id="Trazado_3307" data-name="Trazado 3307" d="M1070.325,308.235l1.217-1.672-.068-1.115.811-.615-.224-.3-.969.735.067,1.115-1.344,2.011Z" fill="#fff"/>
            <path id="Trazado_3308" data-name="Trazado 3308" d="M1067.615,302.985l.611.892-.466.874.523.979.056,0c.124,0,.245,0,.366.014v-.007l-.524-.984.478-.9-.625-.91.115-.012-.081-.811-.673.068.083.81Z" fill="#fff"/>
            <path id="Trazado_3309" data-name="Trazado 3309" d="M1060.856,307.588l.567,1.06,1.111.109.528.985,1.11.108,0,.005a1.371,1.371,0,0,1,.083-.37l-.963-.094-.527-.984-1.111-.109-.478-.892.151-.084-.4-.712-.59.331.4.711Z" fill="#fff"/>
            <g id="Grupo_617" data-name="Grupo 617">
              <path id="Trazado_3310" data-name="Trazado 3310" d="M1072.285,311.9l-.6-1.028a1.076,1.076,0,0,0-.586-1.979c-.017,0-.033,0-.051,0v-.09a.456.456,0,0,0-.018-.12.437.437,0,0,0-.2-.258.212.212,0,0,0-.109-.026.364.364,0,0,0-.141.031,5.329,5.329,0,0,1-.9.279,6.4,6.4,0,0,1-2.838-.015,5.4,5.4,0,0,1-.818-.261.33.33,0,0,0-.136-.03.275.275,0,0,0-.119.026.444.444,0,0,0-.194.256.478.478,0,0,0-.018.128v.081c-.013,0-.027,0-.042,0a1.076,1.076,0,0,0-.584,1.979v0l-.6,1.026a.335.335,0,0,0-.034.259.345.345,0,0,0,.158.208.35.35,0,0,0,.172.047l.014,0a.337.337,0,0,0,.152.186.348.348,0,0,0,.171.046.34.34,0,0,0,.3-.171l.291-.5v.222a.437.437,0,0,0,.441.432h4.6a.442.442,0,0,0,.44-.441v-.234l.3.521a.342.342,0,0,0,.3.172.337.337,0,0,0,.17-.047.321.321,0,0,0,.151-.185h.015a.335.335,0,0,0,.172-.047.342.342,0,0,0,.159-.207A.337.337,0,0,0,1072.285,311.9Zm-7.546.228a.109.109,0,0,1-.1.057.106.106,0,0,1-.055-.015.1.1,0,0,1-.053-.068.1.1,0,0,1,.012-.085l.593-1.023.025.01a1.137,1.137,0,0,0,.194.058Zm.838-.642-.5.875a.116.116,0,0,1-.154.041.114.114,0,0,1-.052-.068.122.122,0,0,1,.01-.086l.666-1.165.03,0Zm0-1.771a.255.255,0,0,0-.254.256.251.251,0,0,0,.16.236.263.263,0,0,0,.095.019v.209a.443.443,0,0,1-.172-.034.463.463,0,0,1,.171-.894Zm0-.451a.706.706,0,0,0-.261,1.363.743.743,0,0,0,.262.05v.23a.946.946,0,0,1-.349-.068.935.935,0,0,1,.348-1.8Zm5.163-.2v1.608h-.9a.279.279,0,0,0-.2.246.269.269,0,0,0,.03.137h0v0l0,.005.465.8.2.322h-4.047l.2-.323.459-.8a.147.147,0,0,0,.02-.042l.012-.048a.153.153,0,0,0,.007-.047.262.262,0,0,0-.2-.26h-.9v-1.729l.3.1c.041.014.086.026.132.039l.027.008c.118.034.239.065.362.092l.4.088.425.043c.14.014.27.023.4.03l.273.013h.246l.263-.012c.131-.007.261-.017.4-.03l.43-.045.391-.088c.125-.026.248-.058.368-.092l.017-.006c.048-.015.092-.027.134-.041l.3-.1Zm.309,1.157a.256.256,0,0,0,.256-.255.252.252,0,0,0-.162-.236.26.26,0,0,0-.094-.02V309.5a.469.469,0,0,1,.172.033.464.464,0,0,1-.172.895Zm0,.452a.727.727,0,0,0,.262-.051.707.707,0,0,0-.262-1.363v-.229a.936.936,0,0,1,.347,1.805.949.949,0,0,1-.347.068Zm.706,1.656a.112.112,0,0,1-.052.069.119.119,0,0,1-.056.014.116.116,0,0,1-.1-.056l-.5-.874v-.4h.029l.665,1.164A.114.114,0,0,1,1071.754,312.328Zm.338-.232a.118.118,0,0,1-.052.069.114.114,0,0,1-.056.014.108.108,0,0,1-.1-.056l-.62-1.066a1.326,1.326,0,0,0,.2-.058.134.134,0,0,1,.025-.011l.6,1.024A.1.1,0,0,1,1072.092,312.1Z" fill="#fff"/>
              <path id="Trazado_3311" data-name="Trazado 3311" d="M1070.306,309.078l-.017.006c-.12.034-.243.066-.368.092l-.391.088-.43.045c-.139.013-.269.023-.4.03l-.263.012h-.246l-.273-.013c-.127-.007-.257-.016-.4-.03l-.425-.043-.4-.088c-.123-.027-.244-.058-.362-.092l-.027-.008c-.046-.013-.091-.025-.132-.039l-.3-.1v1.729h.9a.262.262,0,0,1,.2.26.153.153,0,0,1-.007.047l-.012.048a.147.147,0,0,1-.02.042l-.459.8-.2.323h4.047l-.2-.322-.465-.8,0-.005v0h0a.269.269,0,0,1-.03-.137.279.279,0,0,1,.2-.246h.9v-1.729l-.3.1C1070.4,309.051,1070.354,309.063,1070.306,309.078Z" fill="#1d1d1b"/>
              <path id="Trazado_3312" data-name="Trazado 3312" d="M1067.44,310.033l.127-.122-.127-.123a.745.745,0,0,0-.514-.189.757.757,0,0,0-.516.189l-.125.123.126.122a.754.754,0,0,0,.516.189A.744.744,0,0,0,1067.44,310.033Z" fill="#fff"/>
              <path id="Trazado_3313" data-name="Trazado 3313" d="M1070.336,309.91l-.127-.122a.792.792,0,0,0-1.029,0l-.127.123.127.122a.8.8,0,0,0,1.03,0Z" fill="#fff"/>
              <path id="Trazado_3314" data-name="Trazado 3314" d="M1067.667,310.672a.089.089,0,0,0,.076.04h1.146a.085.085,0,0,0,.073-.04.084.084,0,0,0,.006-.085l-.575-.978a.086.086,0,0,0-.079-.05h0a.086.086,0,0,0-.08.051l-.572.978A.084.084,0,0,0,1067.667,310.672Z" fill="#fff"/>
              <path id="Trazado_3315" data-name="Trazado 3315" d="M1071.512,309.965a.462.462,0,0,0-.292-.431.469.469,0,0,0-.172-.033v.208a.26.26,0,0,1,.094.02.252.252,0,0,1,.162.236.256.256,0,0,1-.256.255v.209A.464.464,0,0,0,1071.512,309.965Z" fill="#1d1d1b"/>
              <path id="Trazado_3316" data-name="Trazado 3316" d="M1065.112,309.967a.462.462,0,0,0,.293.43.443.443,0,0,0,.172.034v-.209a.263.263,0,0,1-.095-.019.251.251,0,0,1-.16-.236.255.255,0,0,1,.254-.256V309.5A.463.463,0,0,0,1065.112,309.967Z" fill="#1d1d1b"/>
              <path id="Trazado_3317" data-name="Trazado 3317" d="M1064.64,309.967a.934.934,0,0,0,.588.868.946.946,0,0,0,.349.068v-.23a.743.743,0,0,1-.262-.05.706.706,0,0,1,.261-1.363v-.229A.937.937,0,0,0,1064.64,309.967Z" fill="#1d1d1b"/>
              <path id="Trazado_3318" data-name="Trazado 3318" d="M1065.164,311l-.025-.01-.593,1.023a.1.1,0,0,0-.012.085.1.1,0,0,0,.053.068.106.106,0,0,0,.055.015.109.109,0,0,0,.1-.057l.619-1.066A1.137,1.137,0,0,1,1065.164,311Z" fill="#1d1d1b"/>
              <path id="Trazado_3319" data-name="Trazado 3319" d="M1064.881,312.244a.122.122,0,0,0-.01.086.114.114,0,0,0,.052.068.116.116,0,0,0,.154-.041l.5-.875v-.4l-.03,0Z" fill="#1d1d1b"/>
              <path id="Trazado_3320" data-name="Trazado 3320" d="M1071.984,309.965a.937.937,0,0,0-.936-.936v.229a.707.707,0,0,1,.262,1.363.727.727,0,0,1-.262.051v.23a.949.949,0,0,0,.347-.068A.933.933,0,0,0,1071.984,309.965Z" fill="#1d1d1b"/>
              <path id="Trazado_3321" data-name="Trazado 3321" d="M1071.486,310.988a.134.134,0,0,0-.025.011,1.326,1.326,0,0,1-.2.058l.62,1.066a.108.108,0,0,0,.1.056.114.114,0,0,0,.056-.014.118.118,0,0,0,.052-.069.1.1,0,0,0-.011-.084Z" fill="#1d1d1b"/>
              <path id="Trazado_3322" data-name="Trazado 3322" d="M1071.077,311.078h-.029v.4l.5.874a.116.116,0,0,0,.1.056.119.119,0,0,0,.056-.014.112.112,0,0,0,.052-.069.114.114,0,0,0-.012-.086Z" fill="#1d1d1b"/>
            </g>
          </g>
          <g id="Grupo_619" data-name="Grupo 619">
            <path id="Trazado_3323" data-name="Trazado 3323" d="M1068.325,311.209a1.121,1.121,0,0,0-1.072.586h2.145A1.124,1.124,0,0,0,1068.325,311.209Z" fill="#fff"/>
          </g>
        </g>
        <g id="Grupo_621" data-name="Grupo 621">
          <path id="Trazado_3324" data-name="Trazado 3324" d="M1065.916,314.409l.114.033.085.688-.151-.045-.013-.144-.238-.069-.09.112-.15-.042Zm0,.191-.128.17.149.043Z" fill="#1d1d1b"/>
          <path id="Trazado_3325" data-name="Trazado 3325" d="M1066.657,314.786a.107.107,0,0,0-.037-.045.115.115,0,0,0-.05-.024.18.18,0,0,0-.032-.006.1.1,0,0,0-.03,0,.055.055,0,0,0-.03.013.054.054,0,0,0-.016.026.048.048,0,0,0,.009.048.17.17,0,0,0,.043.041l.063.04a.253.253,0,0,1,.058.048.152.152,0,0,1,.039.067.173.173,0,0,1,0,.092.259.259,0,0,1-.044.083.212.212,0,0,1-.071.048.272.272,0,0,1-.085.015.348.348,0,0,1-.095-.015.3.3,0,0,1-.1-.049.287.287,0,0,1-.08-.086l.127-.078a.156.156,0,0,0,.039.058.19.19,0,0,0,.062.034.145.145,0,0,0,.034.006.192.192,0,0,0,.036,0,.066.066,0,0,0,.025-.013.061.061,0,0,0,.017-.028.044.044,0,0,0-.008-.046.18.18,0,0,0-.046-.045c-.018-.013-.039-.028-.063-.043a.407.407,0,0,1-.06-.05.145.145,0,0,1-.037-.066.127.127,0,0,1,0-.088.181.181,0,0,1,.045-.079.178.178,0,0,1,.07-.048.236.236,0,0,1,.084-.015.311.311,0,0,1,.092.013.26.26,0,0,1,.095.045.2.2,0,0,1,.074.072Z" fill="#1d1d1b"/>
          <path id="Trazado_3326" data-name="Trazado 3326" d="M1067.308,315a.126.126,0,0,0-.037-.05.2.2,0,0,0-.138-.036.144.144,0,0,0-.068.025.259.259,0,0,0-.056.054.252.252,0,0,0-.034.074.27.27,0,0,0-.008.083.17.17,0,0,0,.02.073.135.135,0,0,0,.046.056.158.158,0,0,0,.061.034.168.168,0,0,0,.08,0,.154.154,0,0,0,.067-.035l.088.113a.234.234,0,0,1-.119.056.3.3,0,0,1-.13-.009.4.4,0,0,1-.129-.057.327.327,0,0,1-.087-.1.293.293,0,0,1-.042-.118.335.335,0,0,1,.012-.142.417.417,0,0,1,.059-.125.341.341,0,0,1,.1-.083.3.3,0,0,1,.125-.038.419.419,0,0,1,.139.014.371.371,0,0,1,.1.049.259.259,0,0,1,.045.043.231.231,0,0,1,.034.055Z" fill="#1d1d1b"/>
          <path id="Trazado_3327" data-name="Trazado 3327" d="M1067.571,314.891l.427.063-.018.129-.289-.042-.018.116.275.039-.019.131-.274-.042-.018.128.305.045-.018.126-.445-.062Z" fill="#1d1d1b"/>
          <path id="Trazado_3328" data-name="Trazado 3328" d="M1068.146,314.972l.191,0,.263.443h0l.009-.44.141,0-.011.636-.184,0-.27-.457h0l-.006.452-.141,0Z" fill="#1d1d1b"/>
          <path id="Trazado_3329" data-name="Trazado 3329" d="M1068.89,314.972l.208-.027a.608.608,0,0,1,.147,0,.363.363,0,0,1,.128.04.236.236,0,0,1,.091.087.333.333,0,0,1,.051.144.3.3,0,0,1-.013.138.317.317,0,0,1-.065.109.332.332,0,0,1-.1.075.424.424,0,0,1-.131.037l-.228.03Zm.2.484.072-.011a.3.3,0,0,0,.089-.02.23.23,0,0,0,.07-.041.221.221,0,0,0,.037-.067.177.177,0,0,0,.006-.093.19.19,0,0,0-.028-.077.145.145,0,0,0-.054-.051.231.231,0,0,0-.074-.025.242.242,0,0,0-.085,0l-.081.011Z" fill="#1d1d1b"/>
          <path id="Trazado_3330" data-name="Trazado 3330" d="M1069.585,314.867l.419-.115.033.124-.284.078.035.113.264-.073.035.126-.266.073.034.125.3-.081.033.125-.434.117Z" fill="#1d1d1b"/>
          <path id="Trazado_3331" data-name="Trazado 3331" d="M1070.173,314.691l.237-.067a.462.462,0,0,1,.092-.017.175.175,0,0,1,.083.01.159.159,0,0,1,.066.041.185.185,0,0,1,.044.085.2.2,0,0,1,0,.12.165.165,0,0,1-.082.085l.227.213-.16.046-.2-.207-.067.02.07.244-.134.04Zm.209.216.079-.024a.346.346,0,0,0,.038-.013.086.086,0,0,0,.036-.02.083.083,0,0,0,.02-.025.051.051,0,0,0,0-.042.089.089,0,0,0-.02-.035.063.063,0,0,0-.031-.014.2.2,0,0,0-.035,0,.1.1,0,0,0-.038.008l-.089.024Z" fill="#1d1d1b"/>
          <path id="Trazado_3332" data-name="Trazado 3332" d="M1070.791,314.517l.419-.111.033.124-.282.073.03.116.268-.072.032.126-.267.071.036.125.3-.08.035.126-.434.114Z" fill="#1d1d1b"/>
        </g>
        <g id="Grupo_622" data-name="Grupo 622">
          <path id="Trazado_3333" data-name="Trazado 3333" d="M1074.5,313.358a.069.069,0,0,0-.04-.019.09.09,0,0,0-.04,0l-.02.005a.089.089,0,0,0-.022.012.065.065,0,0,0-.017.016.046.046,0,0,0,0,.023.039.039,0,0,0,.02.03.1.1,0,0,0,.042.014.38.38,0,0,0,.054.009.534.534,0,0,1,.055.015.16.16,0,0,1,.045.035.122.122,0,0,1,.025.062.163.163,0,0,1-.006.071.165.165,0,0,1-.033.052.215.215,0,0,1-.052.036.236.236,0,0,1-.069.018.305.305,0,0,1-.086,0,.2.2,0,0,1-.078-.036l.062-.089a.1.1,0,0,0,.045.027.14.14,0,0,0,.051.006l.025-.008a.211.211,0,0,0,.022-.011.087.087,0,0,0,.015-.018.043.043,0,0,0,0-.023.045.045,0,0,0-.02-.031.136.136,0,0,0-.043-.014c-.017,0-.037-.009-.056-.012a.185.185,0,0,1-.055-.015.141.141,0,0,1-.047-.032.107.107,0,0,1-.024-.061.186.186,0,0,1,.007-.068.118.118,0,0,1,.034-.052.182.182,0,0,1,.053-.035.175.175,0,0,1,.064-.019.223.223,0,0,1,.077,0,.137.137,0,0,1,.072.028Z" fill="#1d1d1b"/>
          <path id="Trazado_3334" data-name="Trazado 3334" d="M1074.623,313.224l.316-.052.013.094-.212.036.016.084.2-.032.018.093-.2.034.016.093.223-.037.016.1-.327.055Z" fill="#1d1d1b"/>
          <path id="Trazado_3335" data-name="Trazado 3335" d="M1075.019,313.157l.152-.033.17.277h0l.042-.321.153-.033.1.458-.1.022-.075-.352h0l-.044.379-.077.017-.191-.327h0l.075.351-.1.022Z" fill="#1d1d1b"/>
          <path id="Trazado_3336" data-name="Trazado 3336" d="M1075.619,313.025l.168-.045a.633.633,0,0,1,.07-.011.188.188,0,0,1,.059.008.109.109,0,0,1,.049.033.132.132,0,0,1,.031.064.13.13,0,0,1,.006.069.116.116,0,0,1-.022.052.157.157,0,0,1-.051.036.281.281,0,0,1-.064.026l-.074.018.048.177-.1.026Zm.15.166.067-.018a.091.091,0,0,0,.026-.009.045.045,0,0,0,.02-.015.071.071,0,0,0,.013-.019.04.04,0,0,0,0-.028.049.049,0,0,0-.014-.027.084.084,0,0,0-.025-.012h-.03c-.011,0-.023,0-.032.007l-.049.014Z" fill="#1d1d1b"/>
          <path id="Trazado_3337" data-name="Trazado 3337" d="M1076.011,312.921l.305-.091.029.091-.207.062.025.084.2-.058.027.089-.2.059.028.092.218-.066.027.091-.318.1Z" fill="#1d1d1b"/>
          <path id="Trazado_3338" data-name="Trazado 3338" d="M1076.4,312.806l.171-.06a.449.449,0,0,1,.066-.016.206.206,0,0,1,.062,0,.091.091,0,0,1,.049.031.135.135,0,0,1,.036.058.151.151,0,0,1,0,.089.11.11,0,0,1-.057.065l.177.15-.117.04-.155-.147-.047.018.06.176-.1.034Zm.158.149.06-.02a.085.085,0,0,0,.027-.011.093.093,0,0,0,.024-.013.1.1,0,0,0,.016-.021.057.057,0,0,0,0-.033.055.055,0,0,0-.016-.023.04.04,0,0,0-.023-.01.071.071,0,0,0-.025,0l-.028.007-.066.022Z" fill="#1d1d1b"/>
        </g>
        <g id="Grupo_623" data-name="Grupo 623">
          <path id="Trazado_3339" data-name="Trazado 3339" d="M1066.623,326.441l1.422,2.462v-.465l-1.22-2.115Z" fill="#1d1d1b"/>
          <path id="Trazado_3340" data-name="Trazado 3340" d="M1066.335,330.475a.524.524,0,0,0-.25.355l-.01.06-.056-.021a.512.512,0,0,0-.43.039l-1.334.772-.233.133c.023.025.049.048.073.071l.106.1,1.5-.868a.432.432,0,0,1,.159-.049l.224.084.181.068.032-.192.04-.236c0-.023.085-.092.119-.113s1.031-.594,1.588-.915v-.273Z" fill="#1d1d1b"/>
          <rect id="Rectángulo_1586" data-name="Rectángulo 1586" width="2.708" height="0.003" transform="translate(1063.886 330.034) rotate(-36.634)"/>
          <path id="Trazado_3341" data-name="Trazado 3341" d="M1062.824,329.185l.975-.561-.154-.184-.938.541Z" fill="#1d1d1b"/>
          <path id="Trazado_3342" data-name="Trazado 3342" d="M1063.151,329.753l1.356-.782-.117-.2-1.356.784Z" fill="#1d1d1b"/>
          <rect id="Rectángulo_1587" data-name="Rectángulo 1587" width="1.566" height="0.236" transform="translate(1063.362 330.117) rotate(-30.027)" fill="#1d1d1b"/>
          <path id="Trazado_3343" data-name="Trazado 3343" d="M1063.808,330.89l1.356-.782-.117-.205-1.355.784Z" fill="#1d1d1b"/>
          <path id="Trazado_3344" data-name="Trazado 3344" d="M1064.377,324.082a1.022,1.022,0,0,0,.09.383l.083.247.194-.233a.782.782,0,0,0,.1-.117l-.336-.2C1064.464,324.134,1064.42,324.109,1064.377,324.082Z" fill="#1d1d1b"/>
          <path id="Trazado_3345" data-name="Trazado 3345" d="M1061.931,323.62a4.448,4.448,0,0,0,.838,3.464l.278.1A5.754,5.754,0,0,1,1061.931,323.62Z" fill="#fff"/>
          <path id="Trazado_3346" data-name="Trazado 3346" d="M1063.531,327.677c-.015.009-.032.018-.049.026h0C1063.5,327.7,1063.516,327.686,1063.531,327.677Z" fill="#fff"/>
          <path id="Trazado_3347" data-name="Trazado 3347" d="M1065.526,324.783l-.106-.068c-.036-.024-.075-.047-.11-.07-.014.045-.032.094-.056.152a1.148,1.148,0,0,1-.153.257.209.209,0,0,0-.027.023c-.011.012-.021.027-.033.038a.916.916,0,0,1-.173.129.946.946,0,0,1-.386.093l-.082.409a.968.968,0,0,1,.19-.275.735.735,0,0,1,.25-.158,1.2,1.2,0,0,1,.156-.047c.039-.008.077-.009.109-.013a.477.477,0,0,1,.09,0,.217.217,0,0,1-.015.072.6.6,0,0,1-.041.151,1.39,1.39,0,0,1-.143.307.578.578,0,0,1-.118.147c0,.007-.009.01-.01.015a.675.675,0,0,1-.105.086,1.176,1.176,0,0,1-.151.076,1,1,0,0,1-.146.041c-.064.012-.117.011-.159.019l-.079.4a1.057,1.057,0,0,1,.194-.274.773.773,0,0,1,.167-.119.809.809,0,0,1,.242-.083.8.8,0,0,1,.088-.012.59.59,0,0,1,.109,0s-.014.059-.037.148l-.021.068a1.645,1.645,0,0,1-.07.182.951.951,0,0,1-.2.292l-.017.016a.5.5,0,0,1-.112.08.559.559,0,0,1-.107.06.916.916,0,0,1-.321.062l-.129.6a.674.674,0,0,1,.189.061.714.714,0,0,1,.362-.566l.1-.055,1.541-.89,1.808,3.13c-.483.277-1.755,1.012-1.779,1.025a.766.766,0,0,0-.234.214.7.7,0,0,0-.068.127.7.7,0,0,0-.144,0,.729.729,0,0,0-.3.094l-1.336.772-.283.165-.158.092-.388-.668-1.169-2.027-.252-.435,1.24-.716c.051.07.1.135.151.2l-1.055.609,1.561,2.7c.567-.329,1.544-.893,1.567-.9a1.011,1.011,0,0,1,.291-.111l-1.354-2.343v0a.458.458,0,0,0-.336-.228.478.478,0,0,0-.107,0,.5.5,0,0,0-.2.065c-.01.006-.022.011-.031.017.055.077.11.155.167.232.026.035.053.071.078.107.069.09.138.181.209.27a.511.511,0,0,1-.292-.169l-.031-.028a3.3,3.3,0,0,1-.285-.323c-.05-.061-.1-.127-.15-.2s-.112-.155-.169-.238l-.77-.223c-.049-.053-.182-.233-.229-.3-.581-1.038-1.153-2.576-.548-3.426a1.425,1.425,0,0,0,.1.552.943.943,0,0,1,.211-.864c.276-.255.278-.1.269.1a4.583,4.583,0,0,0,.179,1.219,1.184,1.184,0,0,0-.155.512c.034-.059.169-.325.208-.371a7.034,7.034,0,0,0,.663,1.492,1.928,1.928,0,0,1,.25.544l-.028.646c.058.086.119.174.178.262.017-.008.034-.017.049-.026a.739.739,0,0,1,.371-.1l.12-.613a.942.942,0,0,1-.252-.176.459.459,0,0,1-.082-.092.773.773,0,0,1-.066-.117c-.009-.006-.015-.023-.022-.035a1,1,0,0,1-.067-.321c-.005-.068,0-.136,0-.2a.236.236,0,0,0,.008-.079,1.235,1.235,0,0,1,.033-.171s.046.02.112.052c.027.015.048.031.075.047a.848.848,0,0,1,.2.186.706.706,0,0,1,.086.159.1.1,0,0,1,.011.025,1.108,1.108,0,0,1,.063.3l.078-.409a.744.744,0,0,1-.114-.059.722.722,0,0,1-.118-.094.693.693,0,0,1-.121-.139.636.636,0,0,1-.066-.118l-.007-.008a1.336,1.336,0,0,1-.049-.163,1.5,1.5,0,0,1-.013-.363,1.386,1.386,0,0,1,.018-.151c.012-.053.021-.089.021-.089a.493.493,0,0,1,.09.048.621.621,0,0,1,.109.062,1.47,1.47,0,0,1,.122.1.813.813,0,0,1,.149.227.928.928,0,0,1,.065.327l.085-.409a.857.857,0,0,1-.3-.217.8.8,0,0,1-.13-.2.163.163,0,0,1-.012-.046c-.007,0-.007-.007-.007-.01a1.575,1.575,0,0,1-.05-.246,1.808,1.808,0,0,1,.021-.364l.019-.1.042.021a1.133,1.133,0,0,1,.114.056.978.978,0,0,1,.225.205.794.794,0,0,1,.1.161,1.19,1.19,0,0,1,.067.4,1.433,1.433,0,0,1-.014.177l.033.01c.017-.056.039-.116.067-.185a1.147,1.147,0,0,1,.22-.325.678.678,0,0,1,.153-.112.62.62,0,0,1,.121-.055l-.192-.115a.782.782,0,0,1-.1.117l-.194.233-.083-.247a1.022,1.022,0,0,1-.09-.383l-.013-.007c-.325-.192-.651-.386-.975-.59a11.047,11.047,0,0,1-2.267-1.81c0,2.3,0,4.269,0,4.269a6.825,6.825,0,0,0,.825,3.2l.007.014c.068.126.136.252.211.377.039.064.078.128.119.192l1.235,2.135.1.184.186-.1.211-.124.233-.133,1.334-.772a.512.512,0,0,1,.43-.039l.056.021.01-.06a.524.524,0,0,1,.25-.355l1.71-.985V328.9l-1.422-2.463.2-.117,1.22,2.114v-1.32A9.383,9.383,0,0,0,1065.526,324.783Zm-.362,5.325-1.356.782-.117-.2,1.356-.784Zm-.328-.57-1.356.784-.118-.2,1.356-.783Zm-.446-.772.117.205-1.356.782-.116-.2Zm-.745-.325.154.182-.975.563-.118-.205Z" fill="#fff"/>
          <path id="Trazado_3348" data-name="Trazado 3348" d="M1066.338,330.791l-.04.236-.032.192-.181-.068-.224-.084a.432.432,0,0,0-.159.049l-1.5.868q.18.168.371.332a18.771,18.771,0,0,0,3.473,2.359v-4.912c-.557.321-1.565.9-1.588.915S1066.342,330.768,1066.338,330.791Zm.475.064a.645.645,0,0,0-.061-.088l.574-.332c.02.03.039.059.057.09l.007.015.343-.105.1.263-.318.16a1.316,1.316,0,0,1,.035.4l.343.1-.054.278-.356-.037a1.316,1.316,0,0,1-.184.357l.235.266-.2.2-.277-.221a1.152,1.152,0,0,1-.167.111,1.022,1.022,0,0,1-.182.089l.053.35-.276.068-.112-.337a1.376,1.376,0,0,1-.4-.017l-.147.324-.267-.093.089-.344a1.278,1.278,0,0,1-.326-.231l-.3.2-.175-.222.263-.244s-.007-.007-.007-.012a.558.558,0,0,1-.05-.093c.207-.119.417-.241.574-.33a.633.633,0,0,0,.045.1.655.655,0,0,0,1.135-.655Z" fill="#fff"/>
          <path id="Trazado_3349" data-name="Trazado 3349" d="M1064.51,327.934l1.354,2.343a.967.967,0,0,1,.242-.2c.021-.012,1-.578,1.566-.9l-1.561-2.7-1.328.767-.012.008-.019.007h0a.08.08,0,0,0-.022.013c-.014.01-.029.017-.041.026a.458.458,0,0,0-.179.636Zm2.7.991-1.357.784-.116-.2,1.354-.784Zm-.33-.569-1.354.784-.12-.2,1.358-.783Zm-.327-.567-1.356.784-.118-.2,1.356-.783Zm-.447-.772.119.2-1.357.784-.117-.2Z" fill="#fff"/>
          <path id="Trazado_3350" data-name="Trazado 3350" d="M1064.509,327.93v0l1.353,2.343h0l-1.353-2.343Z" fill="#fff"/>
          <rect id="Rectángulo_1588" data-name="Rectángulo 1588" width="1.567" height="0.236" transform="translate(1065.079 328.369) rotate(-30.042)" fill="#1d1d1b"/>
          <path id="Trazado_3351" data-name="Trazado 3351" d="M1065.526,329.14l1.354-.784-.116-.2-1.358.784Z" fill="#1d1d1b"/>
          <rect id="Rectángulo_1589" data-name="Rectángulo 1589" width="1.566" height="0.235" transform="translate(1065.736 329.505) rotate(-30.015)" fill="#1d1d1b"/>
          <path id="Trazado_3352" data-name="Trazado 3352" d="M1066.225,327.22l-.119-.2-1.355.783.117.2Z" fill="#1d1d1b"/>
        </g>
        <g id="Grupo_624" data-name="Grupo 624">
          <path id="Trazado_3353" data-name="Trazado 3353" d="M1069.518,307.915a.493.493,0,0,0-.375.185.281.281,0,0,1-.221.12.286.286,0,0,1-.223-.12.636.636,0,0,0-.176-.139c0-.07,0-.163,0-.254,0-.113,0-.226.005-.287.013-.459.122-1.024.577-1.108a.366.366,0,0,1,.425.293.271.271,0,0,1-.217.314.194.194,0,0,1-.228-.155.135.135,0,0,1,.109-.156.078.078,0,0,1,.073.022.11.11,0,0,0,.153-.008.105.105,0,0,0-.006-.151.3.3,0,0,0-.26-.075.35.35,0,0,0-.281.407.413.413,0,0,0,.48.329.489.489,0,0,0,.39-.566.583.583,0,0,0-.677-.466c-.438.08-.694.479-.746,1.152-.051-.673-.308-1.072-.746-1.152a.582.582,0,0,0-.676.467.488.488,0,0,0,.391.566.415.415,0,0,0,.479-.33.352.352,0,0,0-.282-.407.305.305,0,0,0-.227.048.107.107,0,0,0-.026.149.106.106,0,0,0,.149.029.084.084,0,0,1,.064-.014.137.137,0,0,1,.11.156.2.2,0,0,1-.228.156.269.269,0,0,1-.217-.315.367.367,0,0,1,.424-.293c.453.084.566.649.578,1.108,0,.061,0,.174,0,.287,0,.091,0,.183,0,.253a.661.661,0,0,0-.177.14.265.265,0,0,1-.444,0,.489.489,0,0,0-.375-.185.108.108,0,0,0,0,.216.287.287,0,0,1,.223.12.485.485,0,0,0,.374.185.492.492,0,0,0,.376-.185.265.265,0,0,1,.444,0,.485.485,0,0,0,.376.185.492.492,0,0,0,.377-.185.28.28,0,0,1,.219-.121.107.107,0,1,0,0-.215Z" fill="#fff"/>
          <path id="Trazado_3354" data-name="Trazado 3354" d="M1067.7,308.036a.428.428,0,0,1-.343-.312.573.573,0,0,1-.04-.283.251.251,0,0,1,.148-.218.2.2,0,0,1,.073-.014.43.43,0,0,1,.343.314c.088.228.041.444-.107.5A.177.177,0,0,1,1067.7,308.036Zm-.171-.637a.354.354,0,0,0,.021.25c.052.133.129.194.157.2a.333.333,0,0,0-.019-.25C1067.634,307.457,1067.551,307.4,1067.528,307.4Z" fill="#fff"/>
          <path id="Trazado_3355" data-name="Trazado 3355" d="M1068.95,308.036a.165.165,0,0,1-.073-.014c-.15-.055-.2-.271-.109-.5s.272-.356.417-.3a.255.255,0,0,1,.15.218.6.6,0,0,1-.042.283A.427.427,0,0,1,1068.95,308.036Zm.164-.642a.359.359,0,0,0-.152.2.324.324,0,0,0-.018.252.334.334,0,0,0,.157-.2A.3.3,0,0,0,1069.114,307.394Z" fill="#fff"/>
        </g>
      </g>
    </g>
    <g id="Grupo_627" data-name="Grupo 627">
      <path id="Trazado_3356" data-name="Trazado 3356" d="M1092.749,331.466h.561l-.658,2.716h1.363l-.133.506h-1.92Z" fill="#fcfcfc"/>
      <path id="Trazado_3357" data-name="Trazado 3357" d="M1094.32,334.081a.885.885,0,0,1,.249-.64,1.012,1.012,0,0,1,.713-.263,1.744,1.744,0,0,1,.6.115l.014-.055a1.254,1.254,0,0,0,.032-.244c0-.184-.115-.317-.428-.317a1.338,1.338,0,0,0-.548.129l-.124-.442a1.891,1.891,0,0,1,.76-.157c.566,0,.874.253.874.672a1.791,1.791,0,0,1-.069.447l-.322,1.362h-.534l.074-.294a.845.845,0,0,1-.659.34A.609.609,0,0,1,1094.32,334.081Zm1.441-.277.046-.2a1.226,1.226,0,0,0-.432-.083.5.5,0,0,0-.373.138.52.52,0,0,0-.139.363.3.3,0,0,0,.318.323A.657.657,0,0,0,1095.761,333.8Z" fill="#fcfcfc"/>
      <path id="Trazado_3358" data-name="Trazado 3358" d="M1097.93,333.791a1.891,1.891,0,0,1,.079-.493l.437-1.832H1099l-.46,1.9a1.568,1.568,0,0,0-.047.354.473.473,0,0,0,.521.506.624.624,0,0,0,.46-.179,1.225,1.225,0,0,0,.3-.594l.479-1.984h.552l-.5,2.067a1.818,1.818,0,0,1-.437.865,1.227,1.227,0,0,1-.916.341A.913.913,0,0,1,1097.93,333.791Z" fill="#fcfcfc"/>
      <path id="Trazado_3359" data-name="Trazado 3359" d="M1101.232,332.235h.543l-.065.285a.851.851,0,0,1,.64-.331.585.585,0,0,1,.613.644,2.2,2.2,0,0,1-.074.46l-.331,1.395h-.553l.341-1.4a1.132,1.132,0,0,0,.041-.285.284.284,0,0,0-.318-.313.61.61,0,0,0-.534.534l-.358,1.468h-.543Z" fill="#fcfcfc"/>
      <path id="Trazado_3360" data-name="Trazado 3360" d="M1103.733,332.235h.543l-.6,2.453h-.548Zm.2-.875h.58l-.143.534h-.575Z" fill="#fcfcfc"/>
      <path id="Trazado_3361" data-name="Trazado 3361" d="M1104.662,332.235h.561l.087,1.777.934-1.777h.585l-1.436,2.472h-.492Z" fill="#fcfcfc"/>
      <path id="Trazado_3362" data-name="Trazado 3362" d="M1107.228,333.657v.037c0,.368.179.6.487.6a.816.816,0,0,0,.525-.2l.239.373a1.256,1.256,0,0,1-.786.271.935.935,0,0,1-.977-1.04,1.668,1.668,0,0,1,.461-1.155,1.115,1.115,0,0,1,.81-.35.824.824,0,0,1,.842.9,1.66,1.66,0,0,1-.1.566Zm.055-.359h1.012a.787.787,0,0,0,.028-.235c0-.239-.12-.428-.373-.428a.567.567,0,0,0-.4.18A1.134,1.134,0,0,0,1107.283,333.3Z" fill="#fcfcfc"/>
      <path id="Trazado_3363" data-name="Trazado 3363" d="M1109.54,332.235h.543l-.106.442a.883.883,0,0,1,.829-.483l-.152.57h-.032c-.414,0-.727.235-.866.8l-.271,1.123h-.543Z" fill="#fcfcfc"/>
      <path id="Trazado_3364" data-name="Trazado 3364" d="M1110.49,334.288l.327-.332a.887.887,0,0,0,.631.355.3.3,0,0,0,.322-.272c0-.138-.092-.225-.373-.41-.335-.216-.5-.4-.5-.694a.771.771,0,0,1,.842-.737,1.187,1.187,0,0,1,.833.368l-.3.355a.812.812,0,0,0-.557-.3.273.273,0,0,0-.3.258c0,.133.083.211.372.4.378.243.507.45.507.713a.8.8,0,0,1-.861.75A1.257,1.257,0,0,1,1110.49,334.288Z" fill="#fcfcfc"/>
      <path id="Trazado_3365" data-name="Trazado 3365" d="M1113.172,332.235h.544l-.6,2.453h-.547Zm.2-.875h.58l-.142.534h-.576Z" fill="#fcfcfc"/>
      <path id="Trazado_3366" data-name="Trazado 3366" d="M1115.316,334.384a.912.912,0,0,1-.663.346c-.423,0-.764-.35-.764-.985a1.786,1.786,0,0,1,.465-1.234,1.054,1.054,0,0,1,.732-.322.706.706,0,0,1,.663.442l.3-1.266h.548l-.815,3.323h-.543Zm-.019-.3a1.268,1.268,0,0,0,.322-.866c0-.345-.188-.561-.455-.561a.58.58,0,0,0-.392.17,1.277,1.277,0,0,0-.321.875c0,.35.156.566.436.566A.581.581,0,0,0,1115.3,334.081Z" fill="#fcfcfc"/>
      <path id="Trazado_3367" data-name="Trazado 3367" d="M1116.4,334.081a.889.889,0,0,1,.248-.64,1.014,1.014,0,0,1,.713-.263,1.75,1.75,0,0,1,.6.115l.013-.055a1.183,1.183,0,0,0,.032-.244c0-.184-.114-.317-.427-.317a1.333,1.333,0,0,0-.548.129l-.125-.442a1.894,1.894,0,0,1,.76-.157c.566,0,.875.253.875.672a1.8,1.8,0,0,1-.07.447l-.322,1.362h-.534l.074-.294a.843.843,0,0,1-.658.34A.608.608,0,0,1,1116.4,334.081Zm1.441-.277.045-.2a1.221,1.221,0,0,0-.432-.083.5.5,0,0,0-.373.138.519.519,0,0,0-.138.363.3.3,0,0,0,.317.323A.659.659,0,0,0,1117.836,333.8Z" fill="#fcfcfc"/>
      <path id="Trazado_3368" data-name="Trazado 3368" d="M1120.3,334.384a.91.91,0,0,1-.663.346c-.423,0-.764-.35-.764-.985a1.791,1.791,0,0,1,.465-1.234,1.054,1.054,0,0,1,.732-.322.7.7,0,0,1,.663.442l.3-1.266h.547l-.814,3.323h-.544Zm-.018-.3a1.273,1.273,0,0,0,.322-.866c0-.345-.188-.561-.455-.561a.58.58,0,0,0-.392.17,1.273,1.273,0,0,0-.322.875c0,.35.157.566.437.566A.584.584,0,0,0,1120.277,334.081Z" fill="#fcfcfc"/>
      <path id="Trazado_3369" data-name="Trazado 3369" d="M1122.671,333.432a2.282,2.282,0,0,1,.6-1.547,1.469,1.469,0,0,1,1.072-.465,1.23,1.23,0,0,1,1.04.543l-.437.364a.744.744,0,0,0-.64-.4.883.883,0,0,0-.612.281,1.789,1.789,0,0,0-.446,1.2c0,.488.266.81.681.81a.983.983,0,0,0,.64-.276l.317.387a1.358,1.358,0,0,1-.957.4A1.2,1.2,0,0,1,1122.671,333.432Z" fill="#fcfcfc"/>
      <path id="Trazado_3370" data-name="Trazado 3370" d="M1125.2,334.081a.885.885,0,0,1,.249-.64,1.012,1.012,0,0,1,.713-.263,1.745,1.745,0,0,1,.6.115l.014-.055a1.246,1.246,0,0,0,.032-.244c0-.184-.114-.317-.428-.317a1.337,1.337,0,0,0-.548.129l-.124-.442a1.892,1.892,0,0,1,.76-.157c.566,0,.875.253.875.672a1.8,1.8,0,0,1-.07.447l-.322,1.362h-.534l.074-.294a.845.845,0,0,1-.659.34A.609.609,0,0,1,1125.2,334.081Zm1.441-.277.046-.2a1.226,1.226,0,0,0-.432-.083.5.5,0,0,0-.373.138.52.52,0,0,0-.139.363.3.3,0,0,0,.318.323A.657.657,0,0,0,1126.64,333.8Z" fill="#fcfcfc"/>
      <path id="Trazado_3371" data-name="Trazado 3371" d="M1127.7,334.265a1.382,1.382,0,0,1,.045-.3l.3-1.262h-.276l.12-.469h.271l.157-.644h.547l-.156.644h.506l-.119.469h-.5l-.308,1.266a.613.613,0,0,0-.014.12c0,.092.068.147.188.147a.71.71,0,0,0,.29-.069l-.115.47a.949.949,0,0,1-.414.082C1127.894,334.72,1127.7,334.545,1127.7,334.265Z" fill="#fcfcfc"/>
      <path id="Trazado_3372" data-name="Trazado 3372" d="M1131.446,333.238a1.662,1.662,0,0,1-.451,1.151,1.115,1.115,0,0,1-.811.35.95.95,0,0,1-.966-1.045,1.644,1.644,0,0,1,.451-1.155,1.114,1.114,0,0,1,.81-.35A.949.949,0,0,1,1131.446,333.238Zm-.847.857a1.307,1.307,0,0,0,.313-.843c0-.387-.184-.589-.461-.589a.567.567,0,0,0-.386.17,1.271,1.271,0,0,0-.313.842c0,.387.184.59.46.59A.55.55,0,0,0,1130.6,334.1Zm.456-2.864.469.221-.653.521h-.452Z" fill="#fcfcfc"/>
      <path id="Trazado_3373" data-name="Trazado 3373" d="M1132.442,331.365h.544l-.811,3.323h-.547Z" fill="#fcfcfc"/>
      <path id="Trazado_3374" data-name="Trazado 3374" d="M1133.407,332.235h.544l-.6,2.453h-.547Zm.2-.875h.579l-.142.534h-.576Z" fill="#fcfcfc"/>
      <path id="Trazado_3375" data-name="Trazado 3375" d="M1134.119,333.721a1.69,1.69,0,0,1,.456-1.169,1.157,1.157,0,0,1,.824-.358.88.88,0,0,1,.81.437l-.4.317a.488.488,0,0,0-.42-.285.553.553,0,0,0-.4.18,1.324,1.324,0,0,0-.327.865c0,.368.193.561.432.561a.7.7,0,0,0,.452-.211l.275.354a1.061,1.061,0,0,1-.755.322A.922.922,0,0,1,1134.119,333.721Z" fill="#fcfcfc"/>
      <path id="Trazado_3376" data-name="Trazado 3376" d="M1136.129,334.081a.889.889,0,0,1,.248-.64,1.015,1.015,0,0,1,.714-.263,1.748,1.748,0,0,1,.6.115l.013-.055a1.189,1.189,0,0,0,.033-.244c0-.184-.115-.317-.428-.317a1.333,1.333,0,0,0-.548.129l-.124-.442a1.886,1.886,0,0,1,.759-.157c.566,0,.875.253.875.672a1.837,1.837,0,0,1-.069.447l-.323,1.362h-.534l.074-.294a.842.842,0,0,1-.658.34A.608.608,0,0,1,1136.129,334.081Zm1.441-.277.045-.2a1.221,1.221,0,0,0-.432-.083.506.506,0,0,0-.373.138.524.524,0,0,0-.138.363.3.3,0,0,0,.318.323A.659.659,0,0,0,1137.57,333.8Z" fill="#fcfcfc"/>
      <path id="Trazado_3377" data-name="Trazado 3377" d="M1141.009,334.384a.912.912,0,0,1-.663.346c-.423,0-.764-.35-.764-.985a1.786,1.786,0,0,1,.465-1.234,1.054,1.054,0,0,1,.732-.322.706.706,0,0,1,.663.442l.3-1.266h.547l-.814,3.323h-.544Zm-.019-.3a1.269,1.269,0,0,0,.323-.866c0-.345-.189-.561-.456-.561a.578.578,0,0,0-.391.17,1.273,1.273,0,0,0-.322.875c0,.35.156.566.437.566A.58.58,0,0,0,1140.99,334.081Z" fill="#fcfcfc"/>
      <path id="Trazado_3378" data-name="Trazado 3378" d="M1142.736,333.657v.037c0,.368.18.6.488.6a.816.816,0,0,0,.525-.2l.239.373a1.259,1.259,0,0,1-.787.271.934.934,0,0,1-.976-1.04,1.672,1.672,0,0,1,.46-1.155,1.118,1.118,0,0,1,.811-.35.824.824,0,0,1,.842.9,1.64,1.64,0,0,1-.106.566Zm.056-.359h1.012a.783.783,0,0,0,.028-.235c0-.239-.12-.428-.374-.428a.565.565,0,0,0-.4.18A1.133,1.133,0,0,0,1142.792,333.3Z" fill="#fcfcfc"/>
      <path id="Trazado_3379" data-name="Trazado 3379" d="M1146.341,331.466h.561l-.658,2.716h1.363l-.133.506h-1.92Z" fill="#fcfcfc"/>
      <path id="Trazado_3380" data-name="Trazado 3380" d="M1150.123,333.238a1.662,1.662,0,0,1-.451,1.151,1.115,1.115,0,0,1-.811.35.95.95,0,0,1-.966-1.045,1.644,1.644,0,0,1,.451-1.155,1.114,1.114,0,0,1,.81-.35A.949.949,0,0,1,1150.123,333.238Zm-.847.857a1.307,1.307,0,0,0,.313-.843c0-.387-.184-.589-.461-.589a.567.567,0,0,0-.386.17,1.27,1.27,0,0,0-.313.842c0,.387.184.59.46.59A.55.55,0,0,0,1149.276,334.1Z" fill="#fcfcfc"/>
      <path id="Trazado_3381" data-name="Trazado 3381" d="M1149.737,335.342l.116-.424a.547.547,0,0,0,.157.028q.253,0,.322-.318l.584-2.393h.543l-.6,2.476c-.12.493-.382.682-.769.682A1.1,1.1,0,0,1,1149.737,335.342Zm1.377-3.982h.576l-.139.534h-.575Z" fill="#fcfcfc"/>
      <path id="Trazado_3382" data-name="Trazado 3382" d="M1151.495,334.081a.888.888,0,0,1,.248-.64,1.012,1.012,0,0,1,.713-.263,1.744,1.744,0,0,1,.6.115l.014-.055a1.175,1.175,0,0,0,.032-.244c0-.184-.114-.317-.428-.317a1.337,1.337,0,0,0-.548.129l-.124-.442a1.891,1.891,0,0,1,.76-.157c.566,0,.875.253.875.672a1.789,1.789,0,0,1-.07.447l-.322,1.362h-.534l.074-.294a.845.845,0,0,1-.659.34A.608.608,0,0,1,1151.495,334.081Zm1.44-.277.046-.2a1.221,1.221,0,0,0-.432-.083.5.5,0,0,0-.373.138.52.52,0,0,0-.139.363.3.3,0,0,0,.318.323A.657.657,0,0,0,1152.935,333.8Z" fill="#fcfcfc"/>
    </g>
    <path id="Trazado_3383" data-name="Trazado 3383" d="M1091.917,320.958V310.2h3.748v10.652c0,3.065,1.387,4.652,3.676,4.652s3.676-1.533,3.676-4.519V310.2h3.749v10.625c0,5.7-2.9,8.5-7.474,8.5s-7.375-2.824-7.375-8.365" fill="#fcfcfc"/>
    <path id="Trazado_3384" data-name="Trazado 3384" d="M1114.556,314.02h-5.96V310.2h15.667v3.82h-5.958v15.007h-3.75Z" fill="#fcfcfc"/>
    <path id="Trazado_3385" data-name="Trazado 3385" d="M1126.1,310.2h6.963a6.109,6.109,0,0,1,6.524,6.509v.054c0,4.357-3.067,6.616-6.89,6.616h-2.847v5.648h-3.75Zm6.72,9.494a2.752,2.752,0,0,0,2.969-2.85v-.054c0-1.856-1.168-2.851-3.045-2.851h-2.894v5.755Z" fill="#fcfcfc"/>
    <path id="Trazado_3386" data-name="Trazado 3386" d="M1141.206,310.2h3.75v15.062H1154v3.765h-12.794Z" fill="#fcfcfc"/>
  </g>
</svg>
