<svg xmlns="http://www.w3.org/2000/svg" width="167.379" height="54.949" viewBox="0 0 167.379 54.949">
  <g id="Grupo_710" data-name="Grupo 710" transform="translate(-2237.25 -63.344)">
    <path id="Trazado_5144" data-name="Trazado 5144" d="M2237.25,134.836q0-8.3,0-16.6c0-.88.182-1.074,1.048-1.074q12.379,0,24.758-.005a1.331,1.331,0,0,1,1.018.42q4.015,4.041,8.056,8.057a1.312,1.312,0,0,1,.416,1.014q-.015,12.434-.008,24.867c0,.8-.2.991-1.006.991h-33.249c-.838,0-1.034-.194-1.034-1.021Q2237.249,143.162,2237.25,134.836Zm26.856,7.708h6.968v-6.961h-6.968Zm-25.391-23.895v6.971h6.95v-6.971Zm15.425,6.99v-6.974h-6.97v6.974Zm8.469-.011v-6.956h-6.975v6.956Zm1.5,25.395h6.974v-6.939h-6.974Zm-18.427-15.443h-6.974v6.968h6.974Zm-.017-1.486v-6.971h-6.952v6.971Zm1.5-.024h6.991v-6.941h-6.991Zm23.913.025v-6.972h-6.951v6.972Zm-8.452,8.458v-6.979h-6.978v6.979Zm-8.466,1.532h-6.979v6.934h6.979Zm1.49-.009v6.953h6.967v-6.953Zm6.986-16.949h-5.683l5.683,5.683ZM2244.6,151.049l-5.88-5.811v5.811Zm8.252-8.5-5.692-5.7v5.7Zm-4.429-6.987,5.7,5.7v-5.7Zm21.423-9.922-5.73-5.73v5.73Zm-29.87,18.447,5.685,5.682v-5.682Zm15.668-15.8v5.785h5.785Z" transform="translate(0 -47.917)" fill="#f9fcfd"/>
    <path id="Trazado_5145" data-name="Trazado 5145" d="M2913.148,116.877h3.136l8.063,23.627.135-.009c-.533-7.85-.49-15.708-.439-23.6h3.686V152.22h-3.074l-7.8-23.811c.066,7.974.132,15.882.2,23.819h-3.9Z" transform="translate(-601.829 -47.666)" fill="#fbfdfe"/>
    <path id="Trazado_5146" data-name="Trazado 5146" d="M2661.275,152.788h-3.947l-1-6.67h-6.386l-.923,6.676h-3.988l5.363-35.29h5.04Zm-5.485-10.15-2.748-18.351h-.1l-2.53,18.352Z" transform="translate(-363.092 -48.225)" fill="#fbfdfe"/>
    <path id="Trazado_5147" data-name="Trazado 5147" d="M2809.259,149.47h6.4v3.45h-10.616V117.667h10.518v3.4h-6.3v12.068h5.985v3.474h-5.987Z" transform="translate(-505.575 -48.37)" fill="#fafdfe"/>
    <path id="Trazado_5148" data-name="Trazado 5148" d="M3266.651,117.4l-.16.811-.62-.044c-.625-.17-1.254-.33-1.875-.512a24.039,24.039,0,0,1-10.8-6.6,29,29,0,0,1-8.043-19.637,33.134,33.134,0,0,1,.449-6.216l1.075.087a26.724,26.724,0,0,1,13.1-18.256c7.09-4.1,14.6-4.686,22.414-2.208.05-.191.092-.364.141-.535.044-.155.095-.309.156-.5l1.116.293c1.346.6,2.753,1.087,4.028,1.809,9.005,5.1,13.584,12.978,14.365,23.174a29.027,29.027,0,0,1-.857,9.067l-1.148-.216-.373-.188a28.268,28.268,0,0,0,.835-6.4c-.06-1.236-.063-2.477-.192-3.705a22.121,22.121,0,0,0-1.379-5.826l-.92-2.282-.726-1.431-.573-.933c-.012-.071,0-.159-.039-.21q-1.4-1.905-2.805-3.8l-.823-.874-.969-1-1.736-1.487a21.353,21.353,0,0,0-4.8-2.982l-2.536-1.075-.862-.3a6.115,6.115,0,0,0-.594-.257,25.334,25.334,0,0,0-12.7-.882c-9.755,1.912-16.547,7.5-20.317,16.7a39.246,39.246,0,0,0-1.26,4.459,22.179,22.179,0,0,0-.432,6.568,25.369,25.369,0,0,0,2.227,9.528l1.144,2.286.5.886.641.989,3.266,3.972.828.769.868.765,1.059.851,1.084.781a21.883,21.883,0,0,0,5.036,2.689l2.322.791.986.291Q3266.7,116.99,3266.651,117.4Z" transform="translate(-897.438)" fill="#fafcfd"/>
    <path id="Trazado_5149" data-name="Trazado 5149" d="M2596,152.9V117.653h4.146V152.9Z" transform="translate(-319.437 -48.357)" fill="#f9fcfd"/>
    <path id="Trazado_5150" data-name="Trazado 5150" d="M3142.59,116.751h.462V160.58l-.462.08Z" transform="translate(-806.127 -47.554)" fill="#f2fafd"/>
    <path id="Trazado_5151" data-name="Trazado 5151" d="M2267.678,475.953h-.632l-.959-2.595-.1.009v2.577h-.671v-4.8h.628l.921,2.508.119-.009v-2.509h.69Z" transform="translate(-24.994 -363.105)" fill="#f2fafd"/>
    <path id="Trazado_5152" data-name="Trazado 5152" d="M2815.022,475.692v-4.829a1.343,1.343,0,0,1,.2-.041c1.478-.044,2.122.068,2.031,1.919-.026.527,0,1.057-.006,1.585-.017.959-.41,1.344-1.378,1.366C2815.6,475.7,2815.327,475.692,2815.022,475.692Zm.7-.715c.687.039.785-.036.793-.617q.015-1.089,0-2.177c-.007-.6-.14-.7-.793-.643Z" transform="translate(-514.456 -362.817)" fill="#e8f6fb"/>
    <path id="Trazado_5153" data-name="Trazado 5153" d="M2999.084,470.856a1.282,1.282,0,0,1,.166-.037c1.577-.057,2.141.121,2.053,1.95-.025.527.006,1.057-.006,1.585-.021.9-.407,1.3-1.3,1.332-.288.011-.578,0-.913,0Zm.709.679v3.439c.673.035.769-.039.776-.622q.014-1.089,0-2.177C3000.562,471.577,3000.427,471.471,2999.793,471.534Z" transform="translate(-678.348 -362.813)" fill="#e8f6fb"/>
    <path id="Trazado_5154" data-name="Trazado 5154" d="M2747.094,470.921c.4,0,.749-.029,1.09.006a1.09,1.09,0,0,1,1.119,1.217q.029,1.174,0,2.35a1.142,1.142,0,0,1-1.24,1.278c-.306.016-.615,0-.969,0Zm.69,4.111c.661.1.787.012.795-.6q.014-1.088,0-2.177c-.008-.6-.149-.7-.795-.629Z" transform="translate(-453.972 -362.901)" fill="#e8f6fb"/>
    <path id="Trazado_5155" data-name="Trazado 5155" d="M2694.557,475.614c-.455-.627-.273-1.542-.906-2.049l-.19.058v1.988l-.681.032V470.78c.767.061,1.617-.279,2.129.587a1.77,1.77,0,0,1-.391,2.109l.7,2.138Zm-1.095-2.559c.332-.135.75-.182.817-.361a1.529,1.529,0,0,0-.037-1.032c-.066-.162-.466-.188-.78-.3Z" transform="translate(-405.611 -362.772)" fill="#edf8fc"/>
    <path id="Trazado_5156" data-name="Trazado 5156" d="M2358.669,470.743c.8.095,1.667-.264,2.156.635a1.745,1.745,0,0,1-.407,2.074l.7,2.133h-.677c-.4-.616-.309-1.5-.846-2.052l-.236.1v1.944h-.689Zm.7,2.285c.325-.123.731-.161.793-.327a1.578,1.578,0,0,0,0-1.034c-.065-.17-.463-.214-.789-.346Z" transform="translate(-108.113 -362.753)" fill="#edf8fc"/>
    <path id="Trazado_5157" data-name="Trazado 5157" d="M2776.115,473.2c0,.418.012.837,0,1.255a1.13,1.13,0,0,1-1.135,1.153,1.078,1.078,0,0,1-1.167-1.042c-.046-.942-.048-1.89,0-2.832a1.064,1.064,0,0,1,1.161-1.047,1.139,1.139,0,0,1,1.144,1.148c0,.036,0,.073,0,.109Q2776.115,472.577,2776.115,473.2Zm-.71.011h0c0-.419,0-.837,0-1.256,0-.314-.118-.558-.454-.562s-.47.213-.467.542c.007.819.006,1.638,0,2.458,0,.31.139.486.448.5s.461-.18.468-.478C2775.411,474.017,2775.4,473.616,2775.4,473.216Z" transform="translate(-477.729 -362.708)" fill="#edf8fc"/>
    <path id="Trazado_5158" data-name="Trazado 5158" d="M2612.822,473.184c0,.436.017.874,0,1.309a1.109,1.109,0,0,1-1.056,1.114,1.077,1.077,0,0,1-1.231-.971,24.334,24.334,0,0,1,0-2.993,1.06,1.06,0,0,1,1.191-.955,1.092,1.092,0,0,1,1.091,1.077c.03.471.006.945.006,1.418Zm-.7-.081c0-.382-.007-.765,0-1.147.007-.32-.113-.555-.448-.562s-.464.214-.46.542c.009.819.008,1.638,0,2.457,0,.31.125.492.441.5s.464-.167.464-.478Q2612.115,473.758,2612.117,473.1Z" transform="translate(-332.334 -362.704)" fill="#edf8fc"/>
    <path id="Trazado_5159" data-name="Trazado 5159" d="M2426.46,475.691V470.9c.055-.03.084-.061.116-.063,1.805-.106,2.117.186,2.113,1.985,0,.582.013,1.167-.034,1.746a1.07,1.07,0,0,1-1.157,1.114C2427.157,475.709,2426.815,475.691,2426.46,475.691Zm.683-4.146v3.41c.65.126.821.011.828-.565q.013-1.121,0-2.241C2427.965,471.58,2427.8,471.463,2427.143,471.546Z" transform="translate(-168.476 -362.824)" fill="#f2fafd"/>
    <path id="Trazado_5160" data-name="Trazado 5160" d="M2479.593,475.5v-4.844c.508.037.993.039,1.466.116a.785.785,0,0,1,.7.745c.032,1.069.04,2.142-.01,3.211a.833.833,0,0,1-.813.763C2480.5,475.535,2480.069,475.5,2479.593,475.5Zm.721-4.1v3.441c.708.055.789-.012.793-.647.005-.727.007-1.454,0-2.18C2481.1,471.426,2480.955,471.316,2480.314,471.4Z" transform="translate(-215.786 -362.676)" fill="#edf8fc"/>
    <path id="Trazado_5161" data-name="Trazado 5161" d="M2237.393,471.085h.679c0,.953,0,1.88,0,2.808,0,.274,0,.548,0,.822s.075.526.418.527.4-.239.4-.525q-.006-1.562,0-3.123c0-.16.019-.32.031-.506h.673c.013.153.036.308.037.464,0,1.023.007,2.046,0,3.068-.005.823-.437,1.332-1.123,1.344-.7.013-1.15-.512-1.153-1.364q0-1.507,0-3.014C2237.363,471.426,2237.381,471.267,2237.393,471.085Z" transform="translate(-0.098 -363.058)" fill="#e8f6fb"/>
    <path id="Trazado_5162" data-name="Trazado 5162" d="M2667.013,472.055h-.6c-.02-.11-.005-.244-.065-.308a4.877,4.877,0,0,0-.489-.413c-.133.168-.372.33-.381.5-.04.838-.014,1.678-.02,2.518,0,.317.142.485.454.485s.453-.189.449-.494c0-.255,0-.51,0-.8l-.521-.127v-.531h1.175a15.842,15.842,0,0,1-.018,1.871,1.028,1.028,0,0,1-1.1.8,1.012,1.012,0,0,1-1.083-.817,25.175,25.175,0,0,1,0-3.269,1.069,1.069,0,0,1,1.34-.815C2666.787,470.794,2667.093,471.268,2667.013,472.055Z" transform="translate(-380.658 -362.653)" fill="#edf8fc"/>
    <path id="Trazado_5163" data-name="Trazado 5163" d="M2520.328,475.715v-4.778c.053-.032.083-.064.115-.066,2.063-.135,2.143.477,2.092,1.948-.019.564.01,1.131-.013,1.7a1.1,1.1,0,0,1-1.195,1.2C2521,475.73,2520.678,475.715,2520.328,475.715Zm.683-4.18v3.49c.7.05.822-.053.826-.687q.008-1.036,0-2.072C2521.833,471.63,2521.722,471.529,2521.011,471.535Z" transform="translate(-252.057 -362.851)" fill="#f9fcfd"/>
    <path id="Trazado_5164" data-name="Trazado 5164" d="M3597.343,491.041a26.723,26.723,0,0,1-9.4,6.01c-.186.071-.378.121-.568.181q-.055-.274-.109-.548c1.161-.509,2.345-.974,3.479-1.537a26.164,26.164,0,0,0,6.27-4.492Z" transform="translate(-1202.077 -380.482)" fill="#b0823d"/>
    <path id="Trazado_5165" data-name="Trazado 5165" d="M3028.385,473.2c0,.438.012.876,0,1.313a1.111,1.111,0,0,1-1.118,1.11,1.1,1.1,0,0,1-1.177-1.043c-.033-.947-.036-1.9,0-2.843a1.085,1.085,0,0,1,1.187-1.028,1.121,1.121,0,0,1,1.107,1.068c0,.036,0,.073,0,.109Zm-1.629-.045c0,.4,0,.8,0,1.2,0,.316.105.548.451.561.377.013.5-.233.5-.569q0-1.2,0-2.406c0-.32-.161-.546-.484-.543s-.474.225-.47.551C3026.761,472.358,3026.757,472.759,3026.757,473.16Z" transform="translate(-702.369 -362.727)" fill="#f9fcfd"/>
    <path id="Trazado_5166" data-name="Trazado 5166" d="M2387.321,472.062h-.577a.424.424,0,0,1-.052-.109c-.031-.313-.127-.619-.494-.588a.647.647,0,0,0-.432.393.611.611,0,0,0,.306.832c.083.037.168.069.252.1a1.44,1.44,0,0,1,1.013,1.966,1.122,1.122,0,0,1-1.342.9,1.15,1.15,0,0,1-.951-1.381l.594-.027a2.664,2.664,0,0,0,.131.478.516.516,0,0,0,.793.087,1,1,0,0,0-.257-1.285c-.114-.056-.235-.1-.352-.147a1.252,1.252,0,0,1-.9-1.528,1.156,1.156,0,0,1,1.347-1.1A1.106,1.106,0,0,1,2387.321,472.062Z" transform="translate(-131.588 -362.664)" fill="#f2fafd"/>
    <path id="Trazado_5167" data-name="Trazado 5167" d="M2637.368,474.181h.6c.048.15.052.352.154.438a.872.872,0,0,0,.549.214c.115-.006.287-.213.318-.355.147-.678.018-.887-.634-1.163-.812-.343-1.089-.785-.968-1.545a1.161,1.161,0,0,1,1.3-1.112c.667.065,1.058.573,1.035,1.388h-.641c-.01-.012-.051-.037-.053-.065-.023-.309-.082-.623-.464-.611a.566.566,0,0,0-.422.323c-.084.324-.153.7.268.9.132.061.272.1.406.159a1.619,1.619,0,0,1,.662,2.406,1.211,1.211,0,0,1-1.336.358C2637.589,475.331,2637.337,474.912,2637.368,474.181Z" transform="translate(-356.26 -362.672)" fill="#f2fafd"/>
    <path id="Trazado_5168" data-name="Trazado 5168" d="M2926.393,474.154h.576c.053.163.06.364.164.458a.735.735,0,0,0,.51.192.525.525,0,0,0,.341-.337c.164-.649.011-.913-.61-1.176-.878-.371-1.15-.852-.958-1.692a1.158,1.158,0,1,1,2.277.423h-.606c-.015-.022-.066-.063-.068-.106-.017-.3-.094-.588-.435-.577a.61.61,0,0,0-.452.351c-.083.3-.142.669.253.854.247.115.508.2.754.317.588.277.619.824.59,1.356s-.142,1.057-.765,1.26A1.166,1.166,0,0,1,2926.393,474.154Z" transform="translate(-613.592 -362.638)" fill="#f2fafd"/>
    <path id="Trazado_5169" data-name="Trazado 5169" d="M2548.472,475.391h1.3v.671h-2.008v-4.795h2v.629h-1.3v1.389h1.134c.011.243.02.433.03.678h-1.161Z" transform="translate(-276.485 -363.22)" fill="#e8f6fb"/>
    <path id="Trazado_5170" data-name="Trazado 5170" d="M2904.254,473.984v1.387h1.32v.671h-2v-4.791h2v.613h-1.32v1.4h1.133c.012.228.023.417.036.659Z" transform="translate(-593.303 -363.206)" fill="#f2fafd"/>
    <path id="Trazado_5171" data-name="Trazado 5171" d="M2844.345,473.924h-1.11v1.424h1.308v.669h-2.009v-4.8h2.012v.624h-1.327v1.4h1.126Z" transform="translate(-538.953 -363.178)" fill="#f2fafd"/>
    <path id="Trazado_5172" data-name="Trazado 5172" d="M2334.482,475.935V471.14h2.006v.634h-1.306v1.391h1.127v.689h-1.13v1.4h1.316c.011.252.02.443.03.678Z" transform="translate(-86.577 -363.107)" fill="#f2fafd"/>
    <path id="Trazado_5173" data-name="Trazado 5173" d="M2970.37,474.916l-.223.985h-.677l1.066-4.8h.581l1.079,4.807h-.679q-.112-.477-.232-.988Zm.5-2.226-.093.018-.274,1.494h.661Z" transform="translate(-651.979 -363.068)" fill="#f2fafd"/>
    <path id="Trazado_5174" data-name="Trazado 5174" d="M2451.547,471.057h.578l1.076,4.794h-.681l-.223-.962h-.917l-.224.964h-.678Zm-.05,3.149.673-.032-.3-1.525-.083.008Z" transform="translate(-189.862 -363.033)" fill="#f2fafd"/>
    <path id="Trazado_5175" data-name="Trazado 5175" d="M2720.19,475.89h-.684l-.225-.99h-.918l-.221.971h-.682l1.071-4.8h.579Zm-1.038-1.7-.3-1.532-.083.006-.281,1.526Z" transform="translate(-427.587 -363.047)" fill="#f2fafd"/>
    <path id="Trazado_5176" data-name="Trazado 5176" d="M2307.165,475.994h-.622l-.981-4.8h.729c.162.947.329,1.922.5,2.9l.13.01.5-2.915h.734Z" transform="translate(-60.826 -363.145)" fill="#edf8fc"/>
    <path id="Trazado_5177" data-name="Trazado 5177" d="M2585.324,473.659v1.8h-.685v-4.742c1.323-.3,2.052.029,2.213.982C2587.063,472.956,2586.672,473.486,2585.324,473.659Zm.026-2.436v1.815c.313-.124.714-.177.745-.314a2.656,2.656,0,0,0-.016-1.206C2586.044,471.379,2585.643,471.334,2585.35,471.224Z" transform="translate(-309.32 -362.634)" fill="#edf8fc"/>
    <path id="Trazado_5178" data-name="Trazado 5178" d="M3441.441,549.686l.1-.81a.416.416,0,0,1,.078-.037c.226.067.45.139.677.2a28.523,28.523,0,0,0,6.339.864l.006.672a25.61,25.61,0,0,1-6.718-.794C3441.763,549.743,3441.6,549.718,3441.441,549.686Z" transform="translate(-1072.228 -432.291)" fill="#f7f5b1"/>
    <path id="Trazado_5179" data-name="Trazado 5179" d="M3736.863,318.563a28.309,28.309,0,0,1-.834,6.4l.373.188-.738,2.41-.4-.222.665-2.287-.356-.176.654-5.642Z" transform="translate(-1333.847 -227.25)" fill="#b0823d"/>
    <path id="Trazado_5180" data-name="Trazado 5180" d="M2951.917,471.855l-.8-.053V471.2h2.231c.011.172.023.36.037.586l-.78.079v4.129l-.687.04Z" transform="translate(-635.636 -363.157)" fill="#f2fafd"/>
    <path id="Trazado_5181" data-name="Trazado 5181" d="M2867.406,475.38h1.33v.685h-1.989v-4.8h.659Z" transform="translate(-560.513 -363.221)" fill="#e8f6fb"/>
    <path id="Trazado_5182" data-name="Trazado 5182" d="M3695.453,419.2a24.377,24.377,0,0,1-3.444,5.514,2.919,2.919,0,0,1-.394.342l-.353-.235c.938-1.343,1.9-2.67,2.8-4.037.437-.662.759-1.4,1.133-2.1Z" transform="translate(-1294.672 -316.394)" fill="#ca5"/>
    <path id="Trazado_5183" data-name="Trazado 5183" d="M2413.064,471.1h.635v4.805h-.635Z" transform="translate(-156.548 -363.074)" fill="#e8f6fb"/>
    <path id="Trazado_5184" data-name="Trazado 5184" d="M2295.241,476h-.6v-4.8h.6Z" transform="translate(-51.103 -363.166)" fill="#fafdfe"/>
    <path id="Trazado_5185" data-name="Trazado 5185" d="M3565.062,545.678l.11.548-2.843.846q0-.307,0-.615Z" transform="translate(-1179.869 -429.476)" fill="#bc9147"/>
    <path id="Trazado_5186" data-name="Trazado 5186" d="M3507.087,558.625l-.006-.672,2.09-.073q0,.327.01.654Z" transform="translate(-1130.675 -440.341)" fill="#eade93"/>
    <path id="Trazado_5187" data-name="Trazado 5187" d="M3546.229,552.78q0,.308,0,.615l-1.981.365q0-.315,0-.63Z" transform="translate(-1163.767 -435.8)" fill="#ca5"/>
    <path id="Trazado_5188" data-name="Trazado 5188" d="M3677.879,474.714l.353.235-1.676,1.9-.324-.387Z" transform="translate(-1281.289 -366.289)" fill="#bc9147"/>
    <path id="Trazado_5189" data-name="Trazado 5189" d="M3528.134,555.977q0,.315,0,.63l-1.974.232-.01-.654Z" transform="translate(-1147.655 -438.647)" fill="#d9c378"/>
    <path id="Trazado_5190" data-name="Trazado 5190" d="M3727.442,401.4l-.254-.52.885-2.19.4.222Z" transform="translate(-1326.661 -298.597)" fill="#bc9147"/>
    <path id="Trazado_5191" data-name="Trazado 5191" d="M3260.766,316.737a28.537,28.537,0,0,0,2.077,9.43.764.764,0,0,1,.03.16l-.428.812a25.365,25.365,0,0,1-2.227-9.528c.093-.145.187-.288.278-.434S3260.676,316.884,3260.766,316.737Z" transform="translate(-910.864 -225.624)" fill="#bc9147"/>
    <path id="Trazado_5192" data-name="Trazado 5192" d="M3732.448,241.789a28.137,28.137,0,0,0-1.374-9.2,2.112,2.112,0,0,1-.053-.268l.5-.735a22.121,22.121,0,0,1,1.379,5.827c.129,1.228.132,2.47.192,3.705Z" transform="translate(-1330.074 -149.801)" fill="#bc9147"/>
    <path id="Trazado_5193" data-name="Trazado 5193" d="M3615.929,98.3a27.538,27.538,0,0,0-4.845-3.024l.246-.586a21.359,21.359,0,0,1,4.8,2.982Z" transform="translate(-1223.281 -27.91)" fill="#b0823d"/>
    <path id="Trazado_5194" data-name="Trazado 5194" d="M3260.111,270.476c-.09.147-.18.294-.271.44s-.185.289-.278.434a22.2,22.2,0,0,1,.432-6.568l.415.1C3260.308,266.782,3260.209,268.629,3260.111,270.476Z" transform="translate(-910.209 -179.363)" fill="#b0823d"/>
    <path id="Trazado_5195" data-name="Trazado 5195" d="M3366.446,509.6a27.041,27.041,0,0,0,4.943,2.593l-.142.662a21.878,21.878,0,0,1-5.036-2.689Z" transform="translate(-1005.242 -397.351)" fill="#b0823d"/>
    <path id="Trazado_5196" data-name="Trazado 5196" d="M3301.709,442.332l3.169,4.071-.24.7-3.267-3.972Z" transform="translate(-947.509 -337.456)" fill="#f7f5b1"/>
    <path id="Trazado_5197" data-name="Trazado 5197" d="M3689.618,157.29l-2.774-4.039q.136-.349.274-.7,1.4,1.9,2.805,3.8c.038.052.027.139.039.21Z" transform="translate(-1290.739 -79.433)" fill="#f7f5b1"/>
    <path id="Trazado_5198" data-name="Trazado 5198" d="M3591.938,85.955l-.246.586-2.386-.914.1-.747Z" transform="translate(-1203.889 -19.176)" fill="#ca5"/>
    <path id="Trazado_5199" data-name="Trazado 5199" d="M3723.685,213.04l-.5.735-.964-2.468.541-.549Z" transform="translate(-1322.241 -131.259)" fill="#ca5"/>
    <path id="Trazado_5200" data-name="Trazado 5200" d="M3412.167,533.926l.141-.662,2.385.729q-.1.362-.2.724Z" transform="translate(-1046.162 -418.423)" fill="#ca5"/>
    <path id="Trazado_5201" data-name="Trazado 5201" d="M3280.541,405.059l.428-.812.985,2.092-.27,1.006Z" transform="translate(-928.961 -303.544)" fill="#ca5"/>
    <path id="Trazado_5202" data-name="Trazado 5202" d="M3655.3,122.527q.1-.314.2-.628l1.736,1.487-.309.6Z" transform="translate(-1262.651 -52.138)" fill="#ca5"/>
    <path id="Trazado_5203" data-name="Trazado 5203" d="M3718.435,199.131l-.541.549-.533-1.1.348-.878Z" transform="translate(-1317.911 -119.632)" fill="#d9c378"/>
    <path id="Trazado_5204" data-name="Trazado 5204" d="M3679.323,145.453l-.274.7-.959-1.1.411-.467Z" transform="translate(-1282.943 -72.332)" fill="#eade93"/>
    <path id="Trazado_5205" data-name="Trazado 5205" d="M3357.632,503.36l-.235.567-1.085-.781.271-.553Z" transform="translate(-996.428 -391.112)" fill="#bc9147"/>
    <path id="Trazado_5206" data-name="Trazado 5206" d="M3671.459,136.463l-.411.467-.867-.87.309-.6Z" transform="translate(-1275.902 -64.216)" fill="#d9c378"/>
    <path id="Trazado_5207" data-name="Trazado 5207" d="M3296.5,434.7l-.337.8-.641-.989.4-.751Z" transform="translate(-942.302 -329.82)" fill="#eade93"/>
    <path id="Trazado_5208" data-name="Trazado 5208" d="M3291.878,424.481l-.4.751-.5-.886.269-1.006Z" transform="translate(-938.252 -320.544)" fill="#d9c378"/>
    <path id="Trazado_5209" data-name="Trazado 5209" d="M3713.075,190.119l-.348.878-.57-1.088.345-.722Z" transform="translate(-1313.277 -112.051)" fill="#eade93"/>
    <path id="Trazado_5210" data-name="Trazado 5210" d="M3331.178,480.18l.24-.7.877.887-.289.583Z" transform="translate(-974.049 -370.532)" fill="#eade93"/>
    <path id="Trazado_5211" data-name="Trazado 5211" d="M3433.358,540.637l.2-.724.948.2-.088.777a.417.417,0,0,0-.078.037Z" transform="translate(-1065.031 -424.343)" fill="#b0823d"/>
    <path id="Trazado_5212" data-name="Trazado 5212" d="M3581.37,82.42l-.1.747-.989-.254.224-.8Z" transform="translate(-1195.857 -16.715)" fill="#b0823d"/>
    <path id="Trazado_5213" data-name="Trazado 5213" d="M3338.732,488.154l.289-.583.874.789-.294.559Z" transform="translate(-980.775 -377.737)" fill="#d9c378"/>
    <path id="Trazado_5214" data-name="Trazado 5214" d="M3346.655,495.334l.294-.559,1.035.857-.271.553Z" transform="translate(-987.829 -384.152)" fill="#ca5"/>
    <path id="Trazado_5215" data-name="Trazado 5215" d="M3321.805,221.583V224.1h-9.741c-.1.632-.184,1.2-.282,1.842.275,0,.489,0,.7,0,1.7.03,3.4-.029,5.086.116a9.732,9.732,0,0,1,5.59,2.524c.079.069.165.13.246.194a12.513,12.513,0,1,1,.4,15.993c-4.848,4.671-10.277,5.791-16.217,2.346-4.424-2.565-6.044-7.654-5.77-11.934l2.69,1.353a9.184,9.184,0,0,0,1.388,5.2l1.274,1.753,1.234,1.029,2.084,1.193,1.64.554a8.154,8.154,0,0,0,5.287-.335,8.752,8.752,0,0,0,3.5-2.148l1.333-1.592.966-1.528.733-1.456.557,1.266.8,1.483,1.066,1.331,1.107.989,2.422,1.385,1.865.524a8.848,8.848,0,0,0,3.825-.088l1.653-.616a5.536,5.536,0,0,0,2.437-1.42l1.061-1.011.894-1.171.777-1.439c.137-.344.3-.68.406-1.034a9.537,9.537,0,0,0-1.077-8l-.975-1.314-1.112-1.07a7.411,7.411,0,0,0-2.625-1.554l-1.765-.511a8.105,8.105,0,0,0-3.28-.069l-1.453.329a8.407,8.407,0,0,0-3.161,1.7l-1.551,1.532-1.171,1.868-.738,1.735-.6-1.078-1.156-1.624-1.346-1.242a5.657,5.657,0,0,0-2.732-1.226l-1.548-.29-4.707-.241h-3.01l1.03-6.789h2.635l4.6,0h3.843Z" transform="translate(-947.883 -140.88)" fill="#fcfdfd"/>
    <path id="Trazado_5216" data-name="Trazado 5216" d="M3329.7,208.917l2.339-.114a28.925,28.925,0,0,0,1.157,3.019,5.983,5.983,0,0,0,4.766,3.515,6.428,6.428,0,0,0,7.054-7.3,4.594,4.594,0,0,0-4.718-3.755c-3.486-.012-6.972,0-10.458,0h-.7l2.092-13.78h16.713l-1.758,2.578-.917.006h-3.854l-4.586,0-1.535,0h-1.836c-.446,2.909-.885,5.776-1.331,8.686l4.04-.292,4.707.238,1.536.314a7.045,7.045,0,0,1,2.73,1.446l1.118,1.186.977,1.529c.184.643.418,1.275.54,1.929a7.047,7.047,0,0,1-.544,3.772l-.884,1.615-1.2,1.562a10.228,10.228,0,0,1-3.512,2.425,8.765,8.765,0,0,1-5.143.327l-1.535-.562-2.088-1.3-1.063-1.014-1.187-1.858A9.289,9.289,0,0,1,3329.7,208.917Z" transform="translate(-972.232 -113.222)" fill="#fbfdfd"/>
    <path id="Trazado_5217" data-name="Trazado 5217" d="M3327.4,358.251a9.286,9.286,0,0,0,.925,4.169l-.375,1a9.186,9.186,0,0,1-1.387-5.2Z" transform="translate(-969.932 -262.557)" fill="#ab642d"/>
    <path id="Trazado_5218" data-name="Trazado 5218" d="M3524.466,210.457c-.08-.094-.227-.187-.229-.283-.019-.79-.011-1.581-.011-2.427l.552.028.671,1.761.076-.019v-1.745h.439q-.032,1.349-.064,2.7a.525.525,0,0,1-.633-.44,8.884,8.884,0,0,0-.371-.9l-.146-.454a6.95,6.95,0,0,0-.118,1.312A1.731,1.731,0,0,1,3524.466,210.457Z" transform="translate(-1145.939 -128.578)" fill="#f2fafd"/>
    <path id="Trazado_5219" data-name="Trazado 5219" d="M3592.845,210.154a2.538,2.538,0,0,1-.265-.636c-.062-.5-.062-.52-.665-.515a7.388,7.388,0,0,1-.011.858c-.013.109-.151.2-.232.3-.1-.106-.273-.209-.276-.317-.024-.779-.013-1.559-.013-2.451l1.412.139c.357.378.2.8.1,1.212l.008-.009-.164.042.166.085-.01-.012C3592.91,209.289,3593.208,209.734,3592.845,210.154Zm-.91-2.261v.7c.633.053.769-.143.514-.761Z" transform="translate(-1205.735 -128.267)" fill="#f2fafd"/>
    <path id="Trazado_5220" data-name="Trazado 5220" d="M3504.7,210.654l-.455-.615h-.536c-.245.154-.085.835-.763.542l.735-2.62h.595c.177.713.369,1.423.521,2.141A1.547,1.547,0,0,1,3504.7,210.654Z" transform="translate(-1126.995 -128.77)" fill="#f2fafd"/>
    <path id="Trazado_5221" data-name="Trazado 5221" d="M3651.833,210.284a2.014,2.014,0,0,1-.261-.633c-.019-.427-.17-.613-.668-.505a5.845,5.845,0,0,1-.01.783c-.018.13-.146.245-.225.366-.1-.12-.281-.237-.285-.361-.027-.76-.014-1.521-.014-2.391l1.343.094q.038.017.075.036l-.01-.011a.9.9,0,0,1-.057,1.275A1.172,1.172,0,0,1,3651.833,210.284Zm-.917-1.545c.663.01.8-.2.5-.787l-.5.079Z" transform="translate(-1258.258 -128.397)" fill="#f2fafd"/>
    <path id="Trazado_5222" data-name="Trazado 5222" d="M3630.716,210.653l-.469-.6h-.541c-.22.15-.07.8-.741.529.242-.869.481-1.732.73-2.625h.6c.177.713.369,1.423.521,2.141A1.534,1.534,0,0,1,3630.716,210.653Z" transform="translate(-1239.202 -128.769)" fill="#f2fafd"/>
    <path id="Trazado_5223" data-name="Trazado 5223" d="M3611.272,210.018c-.673-.112-.766-.2-.89-1,.244.148.4.238.547.332a1.574,1.574,0,0,0,.466.278c.071.013.287-.247.262-.329a1.114,1.114,0,0,0-.35-.481,2.223,2.223,0,0,0-.448-.19.757.757,0,0,1,.351-1.425.866.866,0,0,1,.878.426.341.341,0,0,1-.079.319.559.559,0,0,1-.381-.052,2.946,2.946,0,0,1-.42-.293c-.062.1-.2.245-.171.3a2.224,2.224,0,0,0,.394.485c.059.058.166.067.251.1l.173.091-.013-.007C3612.345,209.32,3612.14,209.84,3611.272,210.018Z" transform="translate(-1222.656 -128.091)" fill="#f2fafd"/>
    <path id="Trazado_5224" data-name="Trazado 5224" d="M3680.589,210.172a.837.837,0,0,1-.886-.837,4.637,4.637,0,0,1-.024-1.022c.11-.858.433-1.061,1.3-.88l.171.1-.014-.007.12.119-.01-.012a2.91,2.91,0,0,1-.209,2.427l.01-.009-.236.111.014-.005Zm-.216-.463.115.093c.141-.11.391-.21.4-.333a9.219,9.219,0,0,0,0-1.453c-.006-.1-.179-.191-.275-.286a.049.049,0,0,0-.082.011l.013,0c-.085.01-.2-.011-.251.036a1.813,1.813,0,0,0,.083,1.948Z" transform="translate(-1284.34 -128.244)" fill="#edf8fc"/>
    <path id="Trazado_5225" data-name="Trazado 5225" d="M3574.18,209.043l.854.142,0,.2-.92.158v.682l.965.131c0,.06-.006.119-.009.179-.447.338-.978.072-1.5.181V207.98h1.41c-.1.7-.689.107-.981.425C3574.033,208.59,3573.779,208.89,3574.18,209.043Z" transform="translate(-1189.877 -128.786)" fill="#fafcfd"/>
    <path id="Trazado_5226" data-name="Trazado 5226" d="M3553.835,209.444c.126-.491.252-.981.387-1.5h.417l-.734,2.7-.459-.05-.631-2.65h.478l.359,1.819h.112Z" transform="translate(-1171.396 -128.751)" fill="#f2fafd"/>
    <path id="Trazado_5227" data-name="Trazado 5227" d="M3670.81,210.664l-.374-.071v-2.628h.431Q3670.838,209.315,3670.81,210.664Z" transform="translate(-1276.129 -128.772)" fill="#fafcfd"/>
    <path id="Trazado_5228" data-name="Trazado 5228" d="M3545.608,210.629c-.079-.1-.224-.2-.226-.305-.019-.781-.01-1.562-.01-2.387h.452c0,.735.005,1.47-.019,2.2A1.566,1.566,0,0,1,3545.608,210.629Z" transform="translate(-1164.767 -128.747)" fill="#edf8fc"/>
    <path id="Trazado_5229" data-name="Trazado 5229" d="M3476.29,214.036l.917-.006q-.015.422-.03.845l-.891-.018Q3476.287,214.447,3476.29,214.036Z" transform="translate(-1103.254 -134.173)" fill="#d6924c"/>
    <path id="Trazado_5230" data-name="Trazado 5230" d="M3662.833,211.261a1.172,1.172,0,0,0-.113-1.346.9.9,0,0,0,.057-1.275.682.682,0,0,1,.325,1.053.467.467,0,0,0-.01.455,6.568,6.568,0,0,1,.169,1.112Z" transform="translate(-1269.258 -129.374)" fill="#b0823d"/>
    <path id="Trazado_5231" data-name="Trazado 5231" d="M3641.5,210.653a1.545,1.545,0,0,0,.1-.551c-.152-.718-.344-1.428-.522-2.141.077.085.2.159.223.258.217.787.416,1.579.637,2.435Z" transform="translate(-1249.99 -128.769)" fill="#b0823d"/>
    <path id="Trazado_5232" data-name="Trazado 5232" d="M3562.767,210.645l.734-2.7c.062.079.188.172.175.234-.171.755-.352,1.508-.562,2.253C3563.087,210.525,3562.887,210.573,3562.767,210.645Z" transform="translate(-1180.259 -128.751)" fill="#b0823d"/>
    <path id="Trazado_5233" data-name="Trazado 5233" d="M3515.5,210.654a1.547,1.547,0,0,0,.1-.551c-.152-.718-.344-1.428-.521-2.141.054.037.145.065.158.113.235.847.461,1.7.7,2.579Z" transform="translate(-1137.797 -128.77)" fill="#b0823d"/>
    <path id="Trazado_5234" data-name="Trazado 5234" d="M3547.546,210.629a1.566,1.566,0,0,0,.2-.488c.025-.734.016-1.469.019-2.2.064.083.184.166.185.251.014.81.008,1.62.008,2.441Z" transform="translate(-1166.705 -128.747)" fill="#b0823d"/>
    <path id="Trazado_5235" data-name="Trazado 5235" d="M3539.515,210.672q.032-1.349.064-2.7c.062.127.175.252.178.381.018.651.021,1.3,0,1.954C3539.75,210.433,3539.6,210.551,3539.515,210.672Z" transform="translate(-1159.554 -128.78)" fill="#b0823d"/>
    <path id="Trazado_5236" data-name="Trazado 5236" d="M3673.844,210.664l.057-2.7c.068.061.194.121.2.183.014.764.018,1.528,0,2.292C3674.094,210.516,3673.932,210.589,3673.844,210.664Z" transform="translate(-1279.163 -128.772)" fill="#ab642d"/>
    <path id="Trazado_5237" data-name="Trazado 5237" d="M3692.261,212.124a2.91,2.91,0,0,0,.209-2.427,2.283,2.283,0,0,1,.091,2.285C3692.5,212.059,3692.363,212.078,3692.261,212.124Z" transform="translate(-1295.562 -130.314)" fill="#b0823d"/>
    <path id="Trazado_5238" data-name="Trazado 5238" d="M3618.5,221.139c.868-.178,1.072-.7.57-1.45.481.137.535.5.446.9C3619.418,221.038,3619.148,221.17,3618.5,221.139Z" transform="translate(-1229.883 -139.211)" fill="#b0823d"/>
    <path id="Trazado_5239" data-name="Trazado 5239" d="M3557.718,209.472l-.073.319h-.112l-.359-1.819c.081.1.2.18.235.29C3557.529,208.661,3557.618,209.068,3557.718,209.472Z" transform="translate(-1175.279 -128.779)" fill="#b0823d"/>
    <path id="Trazado_5240" data-name="Trazado 5240" d="M3530.023,209.321v.422l-.076.019-.671-1.761a1.7,1.7,0,0,1,.322.346C3529.759,208.661,3529.884,208.995,3530.023,209.321Z" transform="translate(-1150.438 -128.803)" fill="#bc9147"/>
    <path id="Trazado_5241" data-name="Trazado 5241" d="M3526.428,218.014a1.74,1.74,0,0,0,.167-.467,6.99,6.99,0,0,1,.118-1.312l.146.454v1.326Z" transform="translate(-1147.901 -136.135)" fill="#b0823d"/>
    <path id="Trazado_5242" data-name="Trazado 5242" d="M3577.278,209.043c-.4-.154-.147-.453-.183-.639.292-.318.886.273.981-.425l.3.361-1.1.051Z" transform="translate(-1192.975 -128.786)" fill="#b0823d"/>
    <path id="Trazado_5243" data-name="Trazado 5243" d="M3604.751,221.991c.363-.421.065-.865.046-1.3l.5,1.3Z" transform="translate(-1217.642 -140.105)" fill="#b0823d"/>
    <path id="Trazado_5244" data-name="Trazado 5244" d="M3604.378,209.877c.1-.414.26-.834-.1-1.212A.666.666,0,0,1,3604.378,209.877Z" transform="translate(-1217.223 -129.396)" fill="#b0823d"/>
    <path id="Trazado_5245" data-name="Trazado 5245" d="M3688.15,232.749l.238-.022Z" transform="translate(-1291.901 -150.821)" fill="#b0823d"/>
    <path id="Trazado_5246" data-name="Trazado 5246" d="M3691.9,208.021l-.171-.1Z" transform="translate(-1295.09 -128.738)" fill="#b0823d"/>
    <path id="Trazado_5247" data-name="Trazado 5247" d="M3690.2,231.876l.236-.111Z" transform="translate(-1293.729 -149.964)" fill="#b0823d"/>
    <path id="Trazado_5248" data-name="Trazado 5248" d="M3603.914,219.771l-.166-.085.164-.042C3603.913,219.686,3603.914,219.729,3603.914,219.771Z" transform="translate(-1216.749 -139.171)" fill="#b0823d"/>
    <path id="Trazado_5249" data-name="Trazado 5249" d="M3662.724,208.443c-.025-.013-.049-.025-.075-.036A.125.125,0,0,1,3662.724,208.443Z" transform="translate(-1269.195 -129.165)" fill="#b0823d"/>
    <path id="Trazado_5250" data-name="Trazado 5250" d="M3693.288,208.848l-.12-.119Z" transform="translate(-1296.369 -129.453)" fill="#b0823d"/>
    <path id="Trazado_5251" data-name="Trazado 5251" d="M3622.409,219.02l-.173-.091Z" transform="translate(-1233.21 -138.535)" fill="#b0823d"/>
    <path id="Trazado_5252" data-name="Trazado 5252" d="M3360.447,222.486l-4.04.292c.446-2.91.885-5.777,1.331-8.686h1.836q0,.41,0,.82h-1.1l-1.03,6.789h3.01Q3360.448,222.093,3360.447,222.486Z" transform="translate(-996.513 -134.228)" fill="#f4b161"/>
    <path id="Trazado_5253" data-name="Trazado 5253" d="M3494.238,326.958a7.05,7.05,0,0,0,.544-3.772c-.121-.654-.356-1.287-.54-1.929.071-.145.143-.291.213-.436s.14-.292.21-.439l.6,1.078.738-1.735a4.08,4.08,0,0,1,.2.508c.062.239.091.486.134.729-.075.273-.159.544-.225.819a9.7,9.7,0,0,0,.114,4.846c-.042.189-.074.38-.129.565-.07.233-.158.461-.239.691l-.557-1.267-.734,1.456Z" transform="translate(-1119.239 -228.284)" fill="#ab642d"/>
    <path id="Trazado_5254" data-name="Trazado 5254" d="M3663.16,311.414a9.537,9.537,0,0,1,1.077,8c-.1.354-.27.69-.407,1.034a4.445,4.445,0,0,1-.241-.53c-.072-.227-.107-.466-.158-.7a9.169,9.169,0,0,0-.663-6.884Z" transform="translate(-1269.302 -220.885)" fill="#ab642d"/>
    <path id="Trazado_5255" data-name="Trazado 5255" d="M3396.15,437.172a8.765,8.765,0,0,0,5.143-.327l.128.78a8.154,8.154,0,0,1-5.287.335Q3396.142,437.567,3396.15,437.172Z" transform="translate(-1031.886 -332.57)" fill="#de8b45"/>
    <path id="Trazado_5256" data-name="Trazado 5256" d="M3399.284,214.087l4.586,0,.006.821-4.595,0Z" transform="translate(-1034.689 -134.221)" fill="#de8b45"/>
    <path id="Trazado_5257" data-name="Trazado 5257" d="M3393.276,284.31q0-.392,0-.785l4.707.241q0,.391,0,.782Z" transform="translate(-1029.341 -196.052)" fill="#de8b45"/>
    <path id="Trazado_5258" data-name="Trazado 5258" d="M3443.337,417.922l-.128-.78a10.224,10.224,0,0,0,3.512-2.425l.118,1.057A8.756,8.756,0,0,1,3443.337,417.922Z" transform="translate(-1073.802 -312.867)" fill="#f4b161"/>
    <path id="Trazado_5259" data-name="Trazado 5259" d="M3441.165,214.905c0-.274,0-.548-.006-.821h3.854q0,.41,0,.82Z" transform="translate(-1071.977 -134.221)" fill="#f4b161"/>
    <path id="Trazado_5260" data-name="Trazado 5260" d="M3579.1,438.822a8.849,8.849,0,0,1-3.825.088q0-.409,0-.819a8.393,8.393,0,0,0,3.721-.089Z" transform="translate(-1191.39 -333.601)" fill="#de8b45"/>
    <path id="Trazado_5261" data-name="Trazado 5261" d="M3535.215,274.891a8.4,8.4,0,0,1,3.161-1.7l.3.765a10.582,10.582,0,0,0-3.254,1.791Z" transform="translate(-1155.726 -186.851)" fill="#f4b161"/>
    <path id="Trazado_5262" data-name="Trazado 5262" d="M3577.268,269.1a8.105,8.105,0,0,1,3.28.069l-.01.819-3.275-.073Z" transform="translate(-1193.166 -183.086)" fill="#de8b45"/>
    <path id="Trazado_5263" data-name="Trazado 5263" d="M3452.976,290.622a7.045,7.045,0,0,0-2.73-1.446q.008-.4.015-.806a5.66,5.66,0,0,1,2.732,1.226Q3452.985,290.109,3452.976,290.622Z" transform="translate(-1080.068 -200.366)" fill="#f4b161"/>
    <path id="Trazado_5264" data-name="Trazado 5264" d="M3622.275,275.478a7.415,7.415,0,0,1,2.625,1.554l-.105.966-2.651-1.72Z" transform="translate(-1233.129 -188.887)" fill="#f4b161"/>
    <path id="Trazado_5265" data-name="Trazado 5265" d="M3538.612,422.814l-2.422-1.385q.064-.458.127-.916l2.293,1.44Z" transform="translate(-1156.594 -318.028)" fill="#f4b161"/>
    <path id="Trazado_5266" data-name="Trazado 5266" d="M3627.678,419.466a5.536,5.536,0,0,1-2.437,1.42q0-.393-.007-.785l2.3-1.549Z" transform="translate(-1235.88 -316.282)" fill="#f4b161"/>
    <path id="Trazado_5267" data-name="Trazado 5267" d="M3362.271,422.8l2.088,1.3q-.06.4-.121.8l-2.084-1.193Z" transform="translate(-1001.63 -320.065)" fill="#f4b161"/>
    <path id="Trazado_5268" data-name="Trazado 5268" d="M3510.711,305.78c-.043-.243-.072-.49-.134-.729a4.08,4.08,0,0,0-.2-.508l1.171-1.868.4.8Z" transform="translate(-1133.607 -213.103)" fill="#b0823d"/>
    <path id="Trazado_5269" data-name="Trazado 5269" d="M3339.266,397.588l.375-1,1.187,1.858-.288.893Z" transform="translate(-981.25 -296.726)" fill="#bc9147"/>
    <path id="Trazado_5270" data-name="Trazado 5270" d="M3521.46,291.03l-.4-.8,1.552-1.532q.105.428.211.856Z" transform="translate(-1143.119 -200.659)" fill="#d6924c"/>
    <path id="Trazado_5271" data-name="Trazado 5271" d="M3487.059,385.734q.168.557.336,1.113l-.966,1.528-.254-1.026Z" transform="translate(-1112.06 -287.06)" fill="#b0823d"/>
    <path id="Trazado_5272" data-name="Trazado 5272" d="M3558.278,434.518q0-.43,0-.86l1.862.565,0,.819Z" transform="translate(-1176.26 -329.732)" fill="#e89d53"/>
    <path id="Trazado_5273" data-name="Trazado 5273" d="M3476.455,400.468l.254,1.026-1.333,1.592-.118-1.057Z" transform="translate(-1102.34 -300.179)" fill="#d6924c"/>
    <path id="Trazado_5274" data-name="Trazado 5274" d="M3486.76,312.52l-.21.439q-.106.219-.213.436l-.977-1.529.245-.97Z" transform="translate(-1111.334 -220.423)" fill="#b0823d"/>
    <path id="Trazado_5275" data-name="Trazado 5275" d="M3608.92,271.329l-.131.8-1.644-.491.01-.819Z" transform="translate(-1219.773 -184.737)" fill="#e89d53"/>
    <path id="Trazado_5276" data-name="Trazado 5276" d="M3509.084,383.959c.08-.23.169-.457.239-.69.055-.185.087-.376.129-.565l.759,1.731-.329,1.008Z" transform="translate(-1132.458 -284.361)" fill="#b0823d"/>
    <path id="Trazado_5277" data-name="Trazado 5277" d="M3516.353,399.51l.33-1.008.992,1.42-.255.919Z" transform="translate(-1138.931 -298.429)" fill="#d6924c"/>
    <path id="Trazado_5278" data-name="Trazado 5278" d="M3610.978,432.689q0,.393.007.785l-1.653.616-.109-.819Z" transform="translate(-1221.623 -328.87)" fill="#e89d53"/>
    <path id="Trazado_5279" data-name="Trazado 5279" d="M3662.69,382.64c.051.234.086.472.157.7a4.53,4.53,0,0,0,.242.53l-.776,1.439-.376-.917Z" transform="translate(-1268.56 -284.305)" fill="#b0823d"/>
    <path id="Trazado_5280" data-name="Trazado 5280" d="M3476.522,300.8l-.245.97-1.118-1.186.016-1.026Z" transform="translate(-1102.252 -210.328)" fill="#d6924c"/>
    <path id="Trazado_5281" data-name="Trazado 5281" d="M3381.175,435.5q.06-.4.121-.8l1.535.562-.016.788Z" transform="translate(-1018.567 -330.661)" fill="#e89d53"/>
    <path id="Trazado_5282" data-name="Trazado 5282" d="M3437.777,286.018q-.007.4-.015.806l-1.536-.314c0-.261,0-.521,0-.782Z" transform="translate(-1067.585 -198.013)" fill="#e89d53"/>
    <path id="Trazado_5283" data-name="Trazado 5283" d="M3386.821,214.094q0,.409,0,.817h-1.534q0-.41,0-.82Z" transform="translate(-1022.225 -134.228)" fill="#e89d53"/>
    <path id="Trazado_5284" data-name="Trazado 5284" d="M3646.335,290.627q.053-.483.1-.966l1.112,1.07-.248.94Z" transform="translate(-1254.669 -201.515)" fill="#d6924c"/>
    <path id="Trazado_5285" data-name="Trazado 5285" d="M3655.185,300.366l.248-.94.975,1.314-.391.921Z" transform="translate(-1262.549 -210.21)" fill="#bc9147"/>
    <path id="Trazado_5286" data-name="Trazado 5286" d="M3350.89,414.438l.288-.893,1.063,1.014q-.059.454-.118.908Z" transform="translate(-991.601 -311.823)" fill="#e89d53"/>
    <path id="Trazado_5287" data-name="Trazado 5287" d="M3656,398.614l.376.917-.895,1.171-.212-.99Z" transform="translate(-1262.623 -298.529)" fill="#bc9147"/>
    <path id="Trazado_5288" data-name="Trazado 5288" d="M3565.51,270.188q0,.408-.005.816l-1.143.278-.3-.765Z" transform="translate(-1181.407 -184.176)" fill="#e89d53"/>
    <path id="Trazado_5289" data-name="Trazado 5289" d="M3647.194,408.636l.212.99-1.06,1.011q-.073-.457-.146-.914Z" transform="translate(-1254.549 -307.452)" fill="#d6924c"/>
    <path id="Trazado_5290" data-name="Trazado 5290" d="M3526.087,412.377q.127-.459.255-.919l.979.992q-.064.458-.127.916Z" transform="translate(-1147.598 -309.965)" fill="#e89d53"/>
    <path id="Trazado_5291" data-name="Trazado 5291" d="M3683.767,210.694a2.331,2.331,0,0,0-.168,1.984,1.813,1.813,0,0,1-.083-1.948C3683.57,210.683,3683.682,210.7,3683.767,210.694Z" transform="translate(-1287.556 -131.202)" fill="#bc9147"/>
    <path id="Trazado_5292" data-name="Trazado 5292" d="M3687.767,210.507l-.04.012h-.042A.049.049,0,0,1,3687.767,210.507Z" transform="translate(-1291.488 -131.02)" fill="#bc9147"/>
    <path id="Trazado_5293" data-name="Trazado 5293" d="M3686.177,228.7l.115.093Z" transform="translate(-1290.144 -147.237)" fill="#bc9147"/>
    <path id="Trazado_5294" data-name="Trazado 5294" d="M3512.168,293.288l-.979-.992-.993-1.42-.759-1.731a9.7,9.7,0,0,1-.114-4.846c.066-.275.15-.546.225-.819l1.237-2.306,1.36-1.475a10.572,10.572,0,0,1,3.254-1.791l1.143-.278,3.274.073,1.644.491,2.651,1.72.97,1.045.831,1.295a9.166,9.166,0,0,1,.663,6.884l-.754,1.751-.73,1.1-.994,1.087-2.3,1.549-1.754.582a8.4,8.4,0,0,1-3.721.089l-1.862-.565Zm5.51-13.29a6.487,6.487,0,1,0,.428,12.965,6.487,6.487,0,0,0-.428-12.965Z" transform="translate(-1132.445 -190.803)" fill="#fcfdfd"/>
  </g>
</svg>
