<svg xmlns="http://www.w3.org/2000/svg" width="111.678" height="32.424" viewBox="0 0 111.678 32.424">
  <g id="Grupo_600" data-name="Grupo 600" transform="translate(-1101.322 -223.7)">
    <path id="Trazado_3213" data-name="Trazado 3213" d="M1129.883,254.054c-.1-.38-.822-.057-1.04-.01a18.966,18.966,0,0,1-6.6.327,25.131,25.131,0,0,1-7.124-1.942,20.175,20.175,0,0,1-2.207-1.2,15.144,15.144,0,0,1-2.382-1.693,13.372,13.372,0,0,1-3.409-4.9,12.744,12.744,0,0,1-.754-4.088c-.093-5.973,4.19-10.883,9.58-10.976a7.484,7.484,0,0,1,5.459,1.96,9.458,9.458,0,0,1,1.5,1.955c.546,1,.733,2.4-.27,3.181-1.99,1.549-6.465-.173-3.984-2.848.461-.49,1.225-.923,1.082-1.7a1.442,1.442,0,0,0-1.553-.992c-1.225.124-2.572,1.455-3.469,2.453a6.978,6.978,0,0,0-.875,1.181,4.909,4.909,0,0,0-.561,1.574c-.311,2.024,1.611,2.625,3.2,2.839a32.55,32.55,0,0,0,5.59.239c2.349-.1,7.363-.391,6.171-4.2a7.167,7.167,0,0,0-1.3-2.261c-2.766-3.364-6.4-5.594-10.85-5.511-9.3.165-18.326,9.433-13.334,18.672,4.111,7.6,13.583,11,21.872,9.761.829-.119,1.649-.23,2.467-.415a13.638,13.638,0,0,0,2.051-.707c.224-.094.81-.37.75-.687l0-.013" fill="#fff"/>
    <path id="Trazado_3214" data-name="Trazado 3214" d="M1111.784,225.777c.1.372.826.054,1.039.006a19.16,19.16,0,0,1,6.606-.33,25.081,25.081,0,0,1,7.126,1.946,18.715,18.715,0,0,1,2.2,1.2,14.592,14.592,0,0,1,2.382,1.693,13.267,13.267,0,0,1,3.406,4.9,12.591,12.591,0,0,1,.755,4.091c.1,5.976-4.187,10.889-9.578,10.972a7.473,7.473,0,0,1-5.453-1.953,9.109,9.109,0,0,1-1.493-1.962,2.45,2.45,0,0,1,.264-3.179c1.988-1.544,6.472.173,3.982,2.851-.454.491-1.224.916-1.082,1.7a1.445,1.445,0,0,0,1.551.988c1.231-.121,2.577-1.457,3.471-2.447a7.291,7.291,0,0,0,.875-1.183,4.9,4.9,0,0,0,.563-1.577c.312-2.019-1.613-2.621-3.209-2.842a32.874,32.874,0,0,0-5.587-.229c-2.35.1-7.361.389-6.169,4.194a7.189,7.189,0,0,0,1.3,2.254c2.759,3.369,6.393,5.6,10.85,5.518,9.3-.169,18.324-9.439,13.329-18.677-4.114-7.6-13.577-11-21.868-9.762-.827.125-1.651.231-2.468.412a14.4,14.4,0,0,0-2.048.716c-.224.09-.821.369-.752.678Z" fill="#fff"/>
    <path id="Trazado_3215" data-name="Trazado 3215" d="M1189.916,241.138a4.334,4.334,0,0,1-.938,3.247,4.845,4.845,0,0,1-3.493,1.205,4.362,4.362,0,0,1-3.213-1.272c-.674-.67-.889-1.364-.889-3.051v-8.792h-2.137v9.247c0,4.059,3.052,5.826,6.2,5.826,4.433,0,6.615-2.4,6.615-6.043v-9.03h-2.14Zm6.345-.331h6.09v-1.922h-6.09V234.4h6.311v-1.92h-8.444v14.878h8.635v-1.919h-6.5Zm10.017,4.627V232.475h-2.139v14.878H1213v-1.919Zm-51.267-9.468c0-1.049.975-1.767,2.352-1.767a5.012,5.012,0,0,1,3.489,1.545v-2.419a5.931,5.931,0,0,0-3.316-1.048c-2.728,0-4.518,1.554-4.518,3.974,0,4.076,6.439,4.428,6.439,7.5,0,.828-.763,1.876-2.419,1.876a5.014,5.014,0,0,1-3.926-2.159v2.708a6.571,6.571,0,0,0,4.166,1.369,3.979,3.979,0,0,0,4.163-4.038c0-4.731-6.43-4.691-6.43-7.544m-9.563,4.841h6.084v-1.922h-6.084V234.4h6.306v-1.92h-8.437v14.878h8.635v-1.919h-6.5Zm29.26,2.815-1.1-1.723h-2.145l1.85,2.883a6.029,6.029,0,0,1-3.073.808,5.593,5.593,0,1,1,4.469-1.968m3.534-3.714c0-4.139-3.1-7.631-8-7.631a7.642,7.642,0,1,0-.052,15.271,8.591,8.591,0,0,0,4.234-1.034l.637.989h2.139l-1.315-2.051a7.533,7.533,0,0,0,2.36-5.544" fill="#fff"/>
  </g>
</svg>
