<svg xmlns="http://www.w3.org/2000/svg" width="146.823" height="29" viewBox="0 0 146.823 29">
  <g id="Grupo_704" data-name="Grupo 704" transform="translate(-235.013 -297)">
    <g id="Grupo_702" data-name="Grupo 702">
      <path id="Trazado_5121" data-name="Trazado 5121" d="M270.855,308.006a3.629,3.629,0,0,1-1.85,1.576,7.664,7.664,0,0,1-2.81.472,6.81,6.81,0,0,1-3.135-.609,3.525,3.525,0,0,1-1.67-1.815,7.667,7.667,0,0,1-.505-2.956v-7.143q0-.36.308-.36h2.861q.291,0,.291.326v7.589a2.75,2.75,0,0,0,.557,1.935,2.04,2.04,0,0,0,1.55.583,2.583,2.583,0,0,0,1.122-.24,1.684,1.684,0,0,0,.788-.805,3.434,3.434,0,0,0,.283-1.525v-7.5q0-.36.308-.36h2.279c.182,0,.274.109.274.326v7.52A5.873,5.873,0,0,1,270.855,308.006Z" fill="#fff"/>
      <path id="Trazado_5122" data-name="Trazado 5122" d="M283.96,297.171c.171,0,.257.092.257.274v12.146a.253.253,0,0,1-.1.214.413.413,0,0,1-.257.077h-2.073a.468.468,0,0,1-.445-.24l-5.071-6.989c-.046-.068-.086-.1-.12-.086s-.051.046-.051.1v6.87c.011.228-.114.342-.377.342h-2.073q-.377,0-.377-.325V297.531q0-.36.343-.36h2.45a.7.7,0,0,1,.308.052.677.677,0,0,1,.223.222l4.556,6.424c.08.1.146.149.2.137s.077-.079.077-.205v-6.3q0-.326.343-.326Z" fill="#fff"/>
      <path id="Trazado_5123" data-name="Trazado 5123" d="M289.287,297.171q.291,0,.291.326V309.42a.434.434,0,0,1-.128.359.606.606,0,0,1-.385.1h-2.536a.336.336,0,0,1-.411-.394V297.531q0-.36.291-.36Z" fill="#fff"/>
      <path id="Trazado_5124" data-name="Trazado 5124" d="M302.8,297.308a.364.364,0,0,1,.035.309L298.8,309.488a.541.541,0,0,1-.583.394h-2.484a.525.525,0,0,1-.582-.394l-4.026-11.871a.326.326,0,0,1,.017-.309.3.3,0,0,1,.274-.137h2.913a.383.383,0,0,1,.394.326l2.535,8.068c.069.183.131.177.188-.017l2.433-8.051a.367.367,0,0,1,.394-.326h2.261A.3.3,0,0,1,302.8,297.308Z" fill="#fff"/>
      <path id="Trazado_5125" data-name="Trazado 5125" d="M304.67,297.171h8.96c.182,0,.274.109.274.326v1.781a.364.364,0,0,1-.411.412H308.2c-.239,0-.359.1-.359.308v1.936c0,.217.091.325.274.325h3.34q.325,0,.326.308v1.9a.287.287,0,0,1-.06.18.259.259,0,0,1-.214.077H308.1c-.172,0-.257.08-.257.24v2.175c0,.149.062.223.188.223h5.7q.342,0,.342.291v1.885a.357.357,0,0,1-.086.239.335.335,0,0,1-.274.1H304.79q-.411,0-.411-.394V297.531Q304.379,297.171,304.67,297.171Z" fill="#fff"/>
      <path id="Trazado_5126" data-name="Trazado 5126" d="M326.452,309.728a.309.309,0,0,1-.283.154H323.24a.415.415,0,0,1-.428-.325l-1.713-4.608c-.069-.172-.24-.257-.514-.257H319.4a.178.178,0,0,0-.163.068.234.234,0,0,0-.043.12v4.54q0,.462-.514.462h-2.552a.406.406,0,0,1-.309-.094.439.439,0,0,1-.085-.3V297.531q0-.36.291-.36h5.55a6.418,6.418,0,0,1,3.718.925,3.032,3.032,0,0,1,1.319,2.638,3.668,3.668,0,0,1-.309,1.525,3.462,3.462,0,0,1-1.987,1.867c-.1.046-.126.149-.068.309l2.21,4.933A.379.379,0,0,1,326.452,309.728Zm-3.846-7.717a1.523,1.523,0,0,0-.06-2.176,1.859,1.859,0,0,0-1.19-.385h-1.8c-.24,0-.36.1-.36.308v2.3q0,.342.257.342h1.9A1.809,1.809,0,0,0,322.606,302.011Z" fill="#fff"/>
      <path id="Trazado_5127" data-name="Trazado 5127" d="M334.674,299.69a3,3,0,0,0-1.533-.309,2.555,2.555,0,0,0-1.473.334.958.958,0,0,0-.463.78.836.836,0,0,0,.1.385,1.16,1.16,0,0,0,.369.386,2.237,2.237,0,0,0,.762.308l2.775.754a4.155,4.155,0,0,1,2.347,1.4,3.879,3.879,0,0,1,.094,4.411,4.089,4.089,0,0,1-1.824,1.414,7.282,7.282,0,0,1-2.827.5,9.181,9.181,0,0,1-2.287-.275,6.66,6.66,0,0,1-1.884-.779,3.6,3.6,0,0,1-1.225-1.191.455.455,0,0,1-.086-.282.461.461,0,0,1,.189-.249l1.542-1.062a.528.528,0,0,1,.368-.128.35.35,0,0,1,.231.145,4.812,4.812,0,0,0,.788.831,2.529,2.529,0,0,0,.9.463,4.407,4.407,0,0,0,1.208.145,3.8,3.8,0,0,0,1.645-.3.96.96,0,0,0,.616-.9.865.865,0,0,0-.128-.454,1.221,1.221,0,0,0-.394-.385,2.542,2.542,0,0,0-.728-.291l-2.6-.686a4.934,4.934,0,0,1-1.73-.822,3.856,3.856,0,0,1-1.105-1.285,3.383,3.383,0,0,1-.385-1.593,3.418,3.418,0,0,1,.625-2,4.291,4.291,0,0,1,1.773-1.43,6.391,6.391,0,0,1,2.706-.531,7.817,7.817,0,0,1,1.893.223,6.106,6.106,0,0,1,1.611.634,3.675,3.675,0,0,1,1.122.959,1.6,1.6,0,0,1,.111.24q.042.12-.111.24l-1.679,1.216a.216.216,0,0,1-.2.06.738.738,0,0,1-.266-.2A3.812,3.812,0,0,0,334.674,299.69Z" fill="#fff"/>
      <path id="Trazado_5128" data-name="Trazado 5128" d="M343.077,297.171q.291,0,.291.326V309.42a.434.434,0,0,1-.129.359.6.6,0,0,1-.385.1h-2.535a.335.335,0,0,1-.411-.394V297.531c0-.24.1-.36.291-.36Z" fill="#fff"/>
      <path id="Trazado_5129" data-name="Trazado 5129" d="M346.8,297.171h2.372q.549,0,.874.017a8.625,8.625,0,0,1,3.811.866,5.114,5.114,0,0,1,2.219,2.192,6.988,6.988,0,0,1,.719,3.246,7.174,7.174,0,0,1-.745,3.332,5.218,5.218,0,0,1-2.261,2.253,7.986,7.986,0,0,1-3.777.8h-4.129q-.445,0-.445-.462V297.565a.405.405,0,0,1,.094-.308.468.468,0,0,1,.317-.086Zm2.1,2.656v7.4c0,.16.074.24.223.24h.222a5.016,5.016,0,0,0,2.082-.386,2.655,2.655,0,0,0,1.293-1.267,5.216,5.216,0,0,0,.446-2.339,5.369,5.369,0,0,0-.386-2.192,2.6,2.6,0,0,0-1.19-1.277,4.4,4.4,0,0,0-2.039-.419h-.48Q348.9,299.587,348.9,299.827Z" fill="#fff"/>
      <path id="Trazado_5130" data-name="Trazado 5130" d="M356.944,309.719a.515.515,0,0,1,.008-.4l4.214-11.786a.631.631,0,0,1,.172-.274.472.472,0,0,1,.308-.086h2.981a.578.578,0,0,1,.582.429l4.163,11.751a.588.588,0,0,1,0,.343.228.228,0,0,1-.24.188h-2.946a.349.349,0,0,1-.36-.274l-.754-2.227a.964.964,0,0,0-.077-.128.21.21,0,0,0-.18-.06h-3.888a.229.229,0,0,0-.24.188l-.805,2.261a.365.365,0,0,1-.12.172.413.413,0,0,1-.257.068h-2.313A.257.257,0,0,1,356.944,309.719Zm7.1-5.13q.24,0,.155-.326l-1.234-3.443c-.023-.057-.057-.086-.1-.086s-.08.029-.1.086l-1.251,3.443q-.12.326.154.326Z" fill="#fff"/>
      <path id="Trazado_5131" data-name="Trazado 5131" d="M371.762,297.171h2.372q.549,0,.874.017a8.625,8.625,0,0,1,3.811.866,5.114,5.114,0,0,1,2.219,2.192,7,7,0,0,1,.719,3.246,7.174,7.174,0,0,1-.745,3.332,5.218,5.218,0,0,1-2.261,2.253,7.986,7.986,0,0,1-3.777.8h-4.129q-.445,0-.445-.462V297.565a.405.405,0,0,1,.094-.308.466.466,0,0,1,.317-.086Zm2.1,2.656v7.4c0,.16.074.24.223.24h.222a5.016,5.016,0,0,0,2.082-.386,2.655,2.655,0,0,0,1.293-1.267,5.216,5.216,0,0,0,.446-2.339,5.368,5.368,0,0,0-.386-2.192,2.6,2.6,0,0,0-1.19-1.277,4.4,4.4,0,0,0-2.039-.419h-.48Q373.86,299.587,373.86,299.827Z" fill="#fff"/>
    </g>
    <g id="Grupo_703" data-name="Grupo 703">
      <path id="Trazado_5132" data-name="Trazado 5132" d="M264.63,320.587q-.24,0-.24.222v4.574q0,.445-.514.446h-2.535a.337.337,0,0,1-.411-.394V313.477q0-.358.291-.359H264.1q.291,0,.291.325v4.18c0,.217.092.326.274.326h3.409c.183,0,.274-.109.274-.326v-4.18q0-.325.292-.325h2.878q.291,0,.291.359v11.958a.337.337,0,0,1-.411.394h-2.536c-.342,0-.514-.149-.514-.446v-4.574c0-.148-.08-.222-.239-.222Z" fill="#fff"/>
      <path id="Trazado_5133" data-name="Trazado 5133" d="M274.189,313.118h8.959q.274,0,.274.325v1.782a.363.363,0,0,1-.411.411h-5.293q-.36,0-.36.308v1.936c0,.217.091.326.274.326h3.34c.217,0,.326.1.326.308v1.9a.283.283,0,0,1-.06.18.254.254,0,0,1-.214.077h-3.409c-.171,0-.257.08-.257.24v2.176c0,.148.063.223.188.223h5.705q.342,0,.342.291v1.884a.363.363,0,0,1-.085.24.339.339,0,0,1-.274.1h-8.925q-.411,0-.411-.394V313.477C273.9,313.238,273.994,313.118,274.189,313.118Z" fill="#fff"/>
      <path id="Trazado_5134" data-name="Trazado 5134" d="M285.084,325.383V313.477q0-.358.325-.359h4.2a.6.6,0,0,1,.291.051.456.456,0,0,1,.155.24l2.158,6.27c.034.091.074.134.12.128s.086-.048.12-.128l2-6.116q.137-.445.429-.445h4.334q.291,0,.291.325v11.94q0,.445-.5.446h-2.553a.337.337,0,0,1-.411-.394v-8.086c0-.08-.023-.12-.068-.12s-.086.046-.12.137l-2.707,8.171a.408.408,0,0,1-.394.292h-1.61a.4.4,0,0,1-.411-.292l-2.707-8.051c-.034-.114-.071-.165-.111-.154s-.06.068-.06.171v7.983a.394.394,0,0,1-.069.274.427.427,0,0,1-.291.069h-2.021Q285.083,325.829,285.084,325.383Z" fill="#fff"/>
      <path id="Trazado_5135" data-name="Trazado 5135" d="M304.767,313.118q.291,0,.291.325v11.923a.438.438,0,0,1-.129.36.61.61,0,0,1-.385.1h-2.535a.337.337,0,0,1-.412-.394V313.477q0-.358.292-.359Z" fill="#fff"/>
      <path id="Trazado_5136" data-name="Trazado 5136" d="M313.717,315.636a3,3,0,0,0-1.533-.308,2.547,2.547,0,0,0-1.473.334.955.955,0,0,0-.463.779.84.84,0,0,0,.1.386,1.164,1.164,0,0,0,.368.385,2.211,2.211,0,0,0,.763.308l2.775.754a4.162,4.162,0,0,1,2.347,1.4,3.879,3.879,0,0,1,.094,4.411,4.094,4.094,0,0,1-1.824,1.413,7.281,7.281,0,0,1-2.827.5,9.231,9.231,0,0,1-2.287-.274,6.692,6.692,0,0,1-1.884-.78,3.589,3.589,0,0,1-1.225-1.19.333.333,0,0,1,.1-.531l1.541-1.062a.534.534,0,0,1,.369-.129.348.348,0,0,1,.231.146,4.884,4.884,0,0,0,.788.831,2.543,2.543,0,0,0,.9.462,4.4,4.4,0,0,0,1.208.146,3.8,3.8,0,0,0,1.645-.3.959.959,0,0,0,.616-.9.874.874,0,0,0-.128-.454,1.223,1.223,0,0,0-.394-.386,2.542,2.542,0,0,0-.728-.291l-2.6-.685a4.969,4.969,0,0,1-1.73-.822,3.866,3.866,0,0,1-1.105-1.285,3.489,3.489,0,0,1,.24-3.589,4.287,4.287,0,0,1,1.773-1.431,6.407,6.407,0,0,1,2.706-.531,7.872,7.872,0,0,1,1.893.223,6.187,6.187,0,0,1,1.611.634,3.7,3.7,0,0,1,1.122.959,1.605,1.605,0,0,1,.111.24q.042.12-.111.24l-1.679,1.216a.214.214,0,0,1-.2.06.739.739,0,0,1-.266-.2A3.842,3.842,0,0,0,313.717,315.636Z" fill="#fff"/>
      <path id="Trazado_5137" data-name="Trazado 5137" d="M319.07,313.118h8.84c.182,0,.274.108.274.325l-.017,1.782q0,.411-.377.411H322.6c-.24,0-.359.1-.359.308v2.09c0,.217.091.326.274.326h3.409c.217,0,.325.1.325.308v1.867c0,.172-.1.257-.291.257H322.5c-.172,0-.257.08-.257.24v4.351c0,.3-.172.446-.514.446H319.19a.337.337,0,0,1-.411-.394V313.477Q318.779,313.119,319.07,313.118Z" fill="#fff"/>
      <path id="Trazado_5138" data-name="Trazado 5138" d="M329.708,313.118h8.96c.182,0,.274.108.274.325v1.782a.363.363,0,0,1-.411.411h-5.294c-.24,0-.359.1-.359.308v1.936c0,.217.091.326.274.326h3.34c.217,0,.326.1.326.308v1.9a.283.283,0,0,1-.06.18.258.258,0,0,1-.215.077h-3.408c-.172,0-.257.08-.257.24v2.176c0,.148.062.223.188.223h5.7q.344,0,.343.291v1.884a.364.364,0,0,1-.086.24.338.338,0,0,1-.274.1h-8.925q-.411,0-.411-.394V313.477Q329.417,313.119,329.708,313.118Z" fill="#fff"/>
      <path id="Trazado_5139" data-name="Trazado 5139" d="M351.49,325.675a.311.311,0,0,1-.283.154h-2.929a.416.416,0,0,1-.428-.326l-1.714-4.608q-.1-.256-.513-.257h-1.182a.176.176,0,0,0-.163.069.228.228,0,0,0-.043.119v4.54q0,.463-.514.463h-2.552a.406.406,0,0,1-.309-.1.434.434,0,0,1-.085-.3V313.477c0-.239.1-.359.291-.359h5.55a6.4,6.4,0,0,1,3.717.925,3.028,3.028,0,0,1,1.319,2.638,3.668,3.668,0,0,1-.308,1.525,3.462,3.462,0,0,1-1.987,1.867c-.1.046-.126.148-.068.308l2.209,4.934A.382.382,0,0,1,351.49,325.675Zm-3.846-7.718a1.522,1.522,0,0,0-.06-2.175,1.861,1.861,0,0,0-1.191-.386h-1.8q-.36,0-.36.308V318c0,.229.086.343.257.343h1.9A1.812,1.812,0,0,0,347.644,317.957Z" fill="#fff"/>
      <path id="Trazado_5140" data-name="Trazado 5140" d="M356.466,313.118q.291,0,.291.325v11.923a.441.441,0,0,1-.128.36.613.613,0,0,1-.386.1h-2.535a.337.337,0,0,1-.411-.394V313.477q0-.358.291-.359Z" fill="#fff"/>
      <path id="Trazado_5141" data-name="Trazado 5141" d="M361.254,325.212a5.269,5.269,0,0,1-2.1-2.253,8.428,8.428,0,0,1,.018-6.929,5.491,5.491,0,0,1,2.107-2.278,6.651,6.651,0,0,1,6.347,0,5.466,5.466,0,0,1,2.09,2.278,7.623,7.623,0,0,1,.745,3.477,7.545,7.545,0,0,1-.737,3.444,5.351,5.351,0,0,1-2.09,2.252,6.166,6.166,0,0,1-3.186.8A6.271,6.271,0,0,1,361.254,325.212Zm5.019-2.553a6.4,6.4,0,0,0,.557-3.1,6.893,6.893,0,0,0-.565-3.238,2.165,2.165,0,0,0-3.641,0,6.813,6.813,0,0,0-.573,3.238,6.317,6.317,0,0,0,.565,3.1,1.988,1.988,0,0,0,1.85.943A1.936,1.936,0,0,0,366.273,322.659Z" fill="#fff"/>
      <path id="Trazado_5142" data-name="Trazado 5142" d="M378.213,315.636a3,3,0,0,0-1.533-.308,2.547,2.547,0,0,0-1.473.334.953.953,0,0,0-.463.779.84.84,0,0,0,.1.386,1.164,1.164,0,0,0,.368.385,2.211,2.211,0,0,0,.763.308l2.775.754a4.162,4.162,0,0,1,2.347,1.4,3.879,3.879,0,0,1,.094,4.411,4.094,4.094,0,0,1-1.824,1.413,7.281,7.281,0,0,1-2.827.5,9.231,9.231,0,0,1-2.287-.274,6.692,6.692,0,0,1-1.884-.78,3.589,3.589,0,0,1-1.225-1.19.333.333,0,0,1,.1-.531l1.541-1.062a.532.532,0,0,1,.369-.129.348.348,0,0,1,.231.146,4.884,4.884,0,0,0,.788.831,2.543,2.543,0,0,0,.9.462,4.4,4.4,0,0,0,1.208.146,3.8,3.8,0,0,0,1.645-.3.959.959,0,0,0,.616-.9.874.874,0,0,0-.128-.454,1.223,1.223,0,0,0-.394-.386,2.542,2.542,0,0,0-.728-.291l-2.6-.685a4.969,4.969,0,0,1-1.73-.822,3.866,3.866,0,0,1-1.105-1.285,3.489,3.489,0,0,1,.24-3.589,4.287,4.287,0,0,1,1.773-1.431,6.407,6.407,0,0,1,2.706-.531,7.872,7.872,0,0,1,1.893.223,6.187,6.187,0,0,1,1.611.634,3.7,3.7,0,0,1,1.122.959,1.608,1.608,0,0,1,.111.24q.042.12-.111.24l-1.679,1.216a.214.214,0,0,1-.2.06.739.739,0,0,1-.266-.2A3.842,3.842,0,0,0,378.213,315.636Z" fill="#fff"/>
    </g>
    <path id="Trazado_5143" data-name="Trazado 5143" d="M253.835,318.064a2.259,2.259,0,0,0-.787-4.257c1.178-1.38,1.543-3.324,1.543-5.773V297.522a.386.386,0,0,0-.386-.386h-5.6a.386.386,0,0,0-.386.386v10.53c0,1.758-1.426,1.838-3.184,1.838s-3.185-.08-3.185-1.838v-10.53a.386.386,0,0,0-.386-.386h-5.6a.386.386,0,0,0-.386.386v10.512c0,2.449.365,4.393,1.543,5.773a2.259,2.259,0,0,0-.787,4.257l-.419.067a.347.347,0,0,0-.293.342l-.021,7a.348.348,0,0,0,.347.349l5.648.017a.348.348,0,0,0,.349-.348v-7.912a.348.348,0,0,0-.4-.344l-2.575.411a2.245,2.245,0,0,0,.568-2.2,19.938,19.938,0,0,0,11.189,0,2.245,2.245,0,0,0,.568,2.2l-2.575-.411a.348.348,0,0,0-.4.344v7.912a.348.348,0,0,0,.349.348l5.648-.017a.348.348,0,0,0,.347-.349l-.021-7a.347.347,0,0,0-.293-.342Z" fill="#fff"/>
  </g>
</svg>
