<svg xmlns="http://www.w3.org/2000/svg" width="84.487" height="46.454" viewBox="0 0 84.487 46.454">
  <g id="Grupo_609" data-name="Grupo 609" transform="translate(-513.439 -215.546)">
    <g id="Grupo_602" data-name="Grupo 602">
      <g id="Grupo_601" data-name="Grupo 601">
        <path id="Trazado_3216" data-name="Trazado 3216" d="M536.471,221.948H536l-.078-.268a.8.8,0,0,1-.7.379,1.566,1.566,0,0,1-.481-.075,1.1,1.1,0,0,1-.678-.611,1.292,1.292,0,0,1-.1-.537v-4.068a1.275,1.275,0,0,1,.1-.517,1.185,1.185,0,0,1,.264-.382,1.108,1.108,0,0,1,.391-.24,1.342,1.342,0,0,1,.476-.083,1.316,1.316,0,0,1,.478.087,1.187,1.187,0,0,1,.39.244,1.131,1.131,0,0,1,.26.382,1.3,1.3,0,0,1,.094.509v.205H535.7v-.205a.465.465,0,0,0-.154-.394.57.57,0,0,0-.359-.119.554.554,0,0,0-.37.127.476.476,0,0,0-.15.386v4.068a.466.466,0,0,0,.166.367.562.562,0,0,0,.386.146.551.551,0,0,0,.378-.146.466.466,0,0,0,.166-.367v-1.71h-.584v-.655h1.293Z" fill="#fff"/>
        <path id="Trazado_3217" data-name="Trazado 3217" d="M550.939,221.948h-.71v-2.223a.675.675,0,0,0-.05-.264.788.788,0,0,0-.135-.217.607.607,0,0,0-.2-.15.523.523,0,0,0-.232-.055H549.2v2.909h-.71v-6.3h1.23a.946.946,0,0,1,.442.111,1.39,1.39,0,0,1,.379.287,1.446,1.446,0,0,1,.263.4,1.128,1.128,0,0,1,.1.461v.867a.94.94,0,0,1-.158.54.8.8,0,0,1-.41.32,1.019,1.019,0,0,1,.43.366,1.092,1.092,0,0,1,.177.635Zm-.749-4.912a.735.735,0,0,0-.161-.485.568.568,0,0,0-.462-.193h-.37v2.026h.37a.527.527,0,0,0,.233-.055.669.669,0,0,0,.2-.15.729.729,0,0,0,.138-.217.675.675,0,0,0,.051-.264Z" fill="#fff"/>
        <path id="Trazado_3218" data-name="Trazado 3218" d="M565.408,220.836a1.23,1.23,0,0,1-.1.477,1.2,1.2,0,0,1-.651.651,1.234,1.234,0,0,1-1.344-.26,1.254,1.254,0,0,1-.264-.391,1.181,1.181,0,0,1-.1-.477v-5.188h.71v5.188a.489.489,0,0,0,.15.367.506.506,0,0,0,.371.146.5.5,0,0,0,.357-.146.479.479,0,0,0,.155-.367v-5.188h.71Z" fill="#fff"/>
        <path id="Trazado_3219" data-name="Trazado 3219" d="M579.9,218.061a1.657,1.657,0,0,1-.072.493,1.132,1.132,0,0,1-.216.406,1.064,1.064,0,0,1-.367.276,1.249,1.249,0,0,1-.528.1h-.56v2.609h-.71v-6.3h1.27a1.12,1.12,0,0,1,.887.336,1.351,1.351,0,0,1,.3.926Zm-.71-1.025a.764.764,0,0,0-.142-.528.628.628,0,0,0-.473-.15h-.418v2.271h.418a.64.64,0,0,0,.453-.15.714.714,0,0,0,.162-.536Z" fill="#fff"/>
        <path id="Trazado_3220" data-name="Trazado 3220" d="M594.233,220.836a1.277,1.277,0,0,1-.094.5,1.135,1.135,0,0,1-.26.383,1.249,1.249,0,0,1-.39.248,1.278,1.278,0,0,1-.478.091,1.311,1.311,0,0,1-.477-.087,1.128,1.128,0,0,1-.39-.249,1.207,1.207,0,0,1-.363-.887v-4.068a1.282,1.282,0,0,1,.1-.513,1.188,1.188,0,0,1,.265-.386,1.122,1.122,0,0,1,.39-.24,1.415,1.415,0,0,1,.955,0,1.1,1.1,0,0,1,.65.622,1.327,1.327,0,0,1,.094.517Zm-.709-4.068a.487.487,0,0,0-.154-.363.514.514,0,0,0-.879.363v4.068a.489.489,0,0,0,.15.367.528.528,0,0,0,.729,0,.482.482,0,0,0,.154-.367Z" fill="#fff"/>
      </g>
    </g>
    <g id="Grupo_606" data-name="Grupo 606">
      <g id="Grupo_605" data-name="Grupo 605">
        <g id="Grupo_603" data-name="Grupo 603">
          <path id="Trazado_3221" data-name="Trazado 3221" d="M525.237,217.162v3.079a7.788,7.788,0,0,0-2.966-.741,2.885,2.885,0,0,0-1.528.37,1.647,1.647,0,0,0-.764.855,11.815,11.815,0,0,0-.157,2.573l0,3.3h5.1v2.72h-5.106l-.018,21.731h-3.146V229.321h-3.214V226.6h3.214v-3.82a10.374,10.374,0,0,1,.483-3.753,3.855,3.855,0,0,1,1.64-1.809,5.4,5.4,0,0,1,2.8-.686A13.346,13.346,0,0,1,525.237,217.162Z" fill="#fff"/>
          <path id="Trazado_3222" data-name="Trazado 3222" d="M553.06,226.6v24.451h-3.1v-4.2a13.464,13.464,0,0,1-4.438,3.619,12.395,12.395,0,0,1-14.247-2.551,12.621,12.621,0,0,1-3.675-9.158,12.391,12.391,0,0,1,3.708-9.034,12.09,12.09,0,0,1,8.921-3.753,11.535,11.535,0,0,1,5.45,1.281,12.393,12.393,0,0,1,4.281,3.843V226.6Zm-12.574,2.4a9.49,9.49,0,0,0-8.384,4.916,9.908,9.908,0,0,0,.011,9.877,9.643,9.643,0,0,0,3.558,3.67,9.3,9.3,0,0,0,4.793,1.314,9.824,9.824,0,0,0,4.893-1.3,9.106,9.106,0,0,0,3.558-3.524,10.064,10.064,0,0,0,1.246-5,9.734,9.734,0,0,0-2.795-7.1A9.259,9.259,0,0,0,540.486,229.006Z" fill="#fff"/>
          <path id="Trazado_3223" data-name="Trazado 3223" d="M558.027,226.6h3.213v3.574a11.306,11.306,0,0,1,3.034-3.158,5.984,5.984,0,0,1,3.326-1.045,5.745,5.745,0,0,1,2.787.832l-1.641,2.652a4.37,4.37,0,0,0-1.662-.428,4.547,4.547,0,0,0-3.034,1.293,8.162,8.162,0,0,0-2.225,4.012,38.41,38.41,0,0,0-.585,8.449v8.27h-3.213Z" fill="#fff"/>
        </g>
        <g id="Grupo_604" data-name="Grupo 604">
          <path id="Trazado_3224" data-name="Trazado 3224" d="M587.819,250.061a11.555,11.555,0,1,1,2.558-22.046,12.707,12.707,0,1,0,2.947,19.5A11.472,11.472,0,0,1,587.819,250.061Z" fill="#fff"/>
          <path id="Trazado_3225" data-name="Trazado 3225" d="M595.257,242.788a9.761,9.761,0,1,1-11.642-14.7,10.735,10.735,0,1,0,13.41,9.89A9.721,9.721,0,0,1,595.257,242.788Z" fill="#fff"/>
          <path id="Trazado_3226" data-name="Trazado 3226" d="M595.147,234.192a8.024,8.024,0,1,1-15.307-1.775,8.823,8.823,0,1,0,13.545-2.047A7.974,7.974,0,0,1,595.147,234.192Z" fill="#fff"/>
        </g>
      </g>
    </g>
    <g id="Grupo_608" data-name="Grupo 608">
      <g id="Grupo_607" data-name="Grupo 607">
        <path id="Trazado_3227" data-name="Trazado 3227" d="M517.514,260.537h-.753v-6.7h.753Z" fill="#fff"/>
        <path id="Trazado_3228" data-name="Trazado 3228" d="M521.459,260.537h-.5l-.172-.249a.865.865,0,0,1-.813.368c-.694,0-1.122-.531-1.122-1.361V256.5a1.115,1.115,0,0,1,1.147-1.266.843.843,0,0,1,.7.248v-1.678l.762-.248ZM520.7,256.5a.548.548,0,1,0-1.1,0v2.851a.548.548,0,1,0,1.1,0Z" fill="#fff"/>
        <path id="Trazado_3229" data-name="Trazado 3229" d="M525.412,259.355a1.276,1.276,0,1,1-2.551,0V256.5a1.2,1.2,0,0,1,1.3-1.266,1.268,1.268,0,0,1,1.3,1.37c0,1.412-.548,1.823-1.849,2.49v.257a.519.519,0,1,0,1.036,0v-.085l.762-.249Zm-1.25-3.407a.515.515,0,0,0-.548.556v1.764a1.5,1.5,0,0,0,1.1-1.618C524.71,256.127,524.462,255.948,524.162,255.948Z" fill="#fff"/>
        <path id="Trazado_3230" data-name="Trazado 3230" d="M529.382,260.537h-.5l-.171-.3a.873.873,0,0,1-.813.419c-.556,0-1.139-.394-1.139-1.369,0-1.532,1.336-1.952,1.866-2.526V256.5c0-.325-.137-.556-.445-.556a.516.516,0,0,0-.556.351l-.634-.411a1.245,1.245,0,0,1,1.2-.65,1.146,1.146,0,0,1,1.191,1.266Zm-.737-2.8c-.376.24-1.147.71-1.147,1.481,0,.437.2.685.565.685.4,0,.582-.326.582-.685Z" fill="#fff"/>
        <path id="Trazado_3231" data-name="Trazado 3231" d="M532.05,260.656a1.247,1.247,0,0,1-1.31-1.3v-.36l.754.163v.2a.523.523,0,0,0,.556.548c.386,0,.582-.189.582-.548a.927.927,0,0,0-.2-.608c-.36-.4-.84-.668-1.208-1.1a1.692,1.692,0,0,1-.419-1.13,1.225,1.225,0,0,1,1.284-1.275,1.153,1.153,0,0,1,1.224,1.266v.36l-.736-.171V256.5a.5.5,0,0,0-.514-.556c-.317,0-.505.222-.505.574,0,.8,1.165,1.2,1.644,1.986a1.458,1.458,0,0,1,.2.71A1.314,1.314,0,0,1,532.05,260.656Z" fill="#fff"/>
        <path id="Trazado_3232" data-name="Trazado 3232" d="M539.716,262h-.762v-1.626c-.077.128-.248.282-.684.282a1.124,1.124,0,0,1-1.165-1.267v-4.083h.753v4.049a.548.548,0,1,0,1.1,0v-4.049h.762Z" fill="#fff"/>
        <path id="Trazado_3233" data-name="Trazado 3233" d="M546.133,260.537h-.5l-.172-.3a.872.872,0,0,1-.813.419c-.556,0-1.139-.394-1.139-1.369,0-1.532,1.336-1.952,1.867-2.526V256.5c0-.325-.138-.556-.446-.556a.516.516,0,0,0-.556.351l-.634-.411a1.245,1.245,0,0,1,1.2-.65,1.145,1.145,0,0,1,1.19,1.266Zm-.736-2.8c-.377.24-1.148.71-1.148,1.481,0,.437.2.685.565.685.4,0,.583-.326.583-.685Z" fill="#fff"/>
        <path id="Trazado_3234" data-name="Trazado 3234" d="M548.271,256.5v2.851a.548.548,0,1,0,1.1,0v-.085l.753-.249v.334a1.3,1.3,0,1,1-2.6,0V256.5a1.149,1.149,0,0,1,1.3-1.266,1.168,1.168,0,0,1,1.3,1.266v.223h-.753V256.5a.548.548,0,1,0-1.1,0Z" fill="#fff"/>
        <path id="Trazado_3235" data-name="Trazado 3235" d="M552.214,256.5v2.851a.548.548,0,1,0,1.1,0v-.085l.753-.249v.334a1.3,1.3,0,1,1-2.6,0V256.5a1.149,1.149,0,0,1,1.3-1.266,1.168,1.168,0,0,1,1.3,1.266v.223h-.753V256.5a.548.548,0,1,0-1.1,0Z" fill="#fff"/>
        <path id="Trazado_3236" data-name="Trazado 3236" d="M555.8,254.493a.473.473,0,0,1,0-.933.426.426,0,0,1,.385.462C556.176,254.287,556.023,254.493,555.8,254.493Zm.36,6.044h-.753v-5.231h.753Z" fill="#fff"/>
        <path id="Trazado_3237" data-name="Trazado 3237" d="M560.146,259.355a1.253,1.253,0,0,1-1.3,1.3,1.24,1.24,0,0,1-1.3-1.3V256.5a1.222,1.222,0,0,1,1.3-1.266,1.235,1.235,0,0,1,1.3,1.266Zm-.753-2.851a.548.548,0,1,0-1.1,0v2.851a.548.548,0,1,0,1.1,0Zm-.574-1.592h-.47l.8-1.352h.71Z" fill="#fff"/>
        <path id="Trazado_3238" data-name="Trazado 3238" d="M564.236,260.537h-.753V256.5a.592.592,0,0,0-1.182,0v4.033h-.753v-5.231h.5l.171.249a1.006,1.006,0,0,1,.822-.317,1.158,1.158,0,0,1,1.2,1.241Z" fill="#fff"/>
        <path id="Trazado_3239" data-name="Trazado 3239" d="M568.829,256.5v2.851a.548.548,0,1,0,1.1,0v-.085l.753-.249v.334a1.3,1.3,0,0,1-2.6,0V256.5a1.15,1.15,0,0,1,1.3-1.266,1.168,1.168,0,0,1,1.3,1.266v.223h-.753V256.5a.548.548,0,1,0-1.1,0Z" fill="#fff"/>
        <path id="Trazado_3240" data-name="Trazado 3240" d="M574.621,259.355a1.253,1.253,0,0,1-1.3,1.3,1.239,1.239,0,0,1-1.3-1.3V256.5a1.221,1.221,0,0,1,1.3-1.266,1.235,1.235,0,0,1,1.3,1.266Zm-.752-2.851a.548.548,0,1,0-1.1,0v2.851a.548.548,0,1,0,1.1,0Z" fill="#fff"/>
        <path id="Trazado_3241" data-name="Trazado 3241" d="M576.777,260.537h-.753v-6.729l.753-.248Z" fill="#fff"/>
        <path id="Trazado_3242" data-name="Trazado 3242" d="M580.739,259.355a1.276,1.276,0,1,1-2.551,0V256.5a1.2,1.2,0,0,1,1.3-1.266,1.268,1.268,0,0,1,1.3,1.37c0,1.412-.548,1.823-1.849,2.49v.257a.519.519,0,1,0,1.036,0v-.085l.762-.249Zm-1.25-3.407a.515.515,0,0,0-.548.556v1.764a1.5,1.5,0,0,0,1.1-1.618C580.037,256.127,579.789,255.948,579.489,255.948Z" fill="#fff"/>
        <path id="Trazado_3243" data-name="Trazado 3243" d="M582.894,256.5v2.851a.548.548,0,1,0,1.1,0v-.085l.754-.249v.334a1.3,1.3,0,0,1-2.6,0V256.5a1.15,1.15,0,0,1,1.3-1.266,1.169,1.169,0,0,1,1.3,1.266v.223h-.754V256.5a.548.548,0,1,0-1.1,0Z" fill="#fff"/>
        <path id="Trazado_3244" data-name="Trazado 3244" d="M587.959,259.732l.521.565a1.158,1.158,0,0,1-.83.359c-.787,0-1.172-.453-1.172-1.293v-3.389H586v-.668h.479v-.95l.753-.257v1.207h.993v.668h-.993v3.389c0,.351.129.54.385.54A.379.379,0,0,0,587.959,259.732Z" fill="#fff"/>
        <path id="Trazado_3245" data-name="Trazado 3245" d="M590.122,254.493a.475.475,0,1,1,.386-.471C590.5,254.287,590.345,254.493,590.122,254.493Zm.361,6.044h-.754v-5.231h.754Z" fill="#fff"/>
        <path id="Trazado_3246" data-name="Trazado 3246" d="M594.308,255.306l-.968,5.231h-.7l-.942-5.231h.856l.488,3.287.488-3.287Z" fill="#fff"/>
        <path id="Trazado_3247" data-name="Trazado 3247" d="M597.926,260.537h-.5l-.171-.3a.874.874,0,0,1-.814.419c-.556,0-1.139-.394-1.139-1.369,0-1.532,1.337-1.952,1.868-2.526V256.5c0-.325-.138-.556-.446-.556a.517.517,0,0,0-.557.351l-.633-.411a1.245,1.245,0,0,1,1.2-.65,1.144,1.144,0,0,1,1.189,1.266Zm-.735-2.8c-.377.24-1.148.71-1.148,1.481,0,.437.2.685.565.685.4,0,.583-.326.583-.685Z" fill="#fff"/>
      </g>
    </g>
  </g>
</svg>
