<svg xmlns="http://www.w3.org/2000/svg" width="76" height="43.423" viewBox="0 0 76 43.423">
  <g id="Grupo_699" data-name="Grupo 699" transform="translate(-820 -216.012)">
    <path id="Trazado_5003" data-name="Trazado 5003" d="M851.228,229.507a1.225,1.225,0,0,0,.854-.315,1.033,1.033,0,0,0,.348-.8,1,1,0,0,0-.359-.783,1.287,1.287,0,0,0-1.687,0,1,1,0,0,0-.358.783,1.028,1.028,0,0,0,.358.792A1.214,1.214,0,0,0,851.228,229.507Z" fill="#fff"/>
    <path id="Trazado_5004" data-name="Trazado 5004" d="M851.523,223.918a1.22,1.22,0,0,0,.844-.325,1.055,1.055,0,0,0,0-1.586,1.286,1.286,0,0,0-1.7-.01,1.1,1.1,0,0,0,0,1.606A1.227,1.227,0,0,0,851.523,223.918Z" fill="#fff"/>
    <path id="Trazado_5005" data-name="Trazado 5005" d="M848.423,227.292a1.237,1.237,0,0,0-.844.315,1,1,0,0,0-.358.783,1.034,1.034,0,0,0,.348.8,1.315,1.315,0,0,0,1.708,0,1.034,1.034,0,0,0,.348-.8,1,1,0,0,0-.359-.783A1.236,1.236,0,0,0,848.423,227.292Z" fill="#fff"/>
    <path id="Trazado_5006" data-name="Trazado 5006" d="M845.491,230.28a1.129,1.129,0,0,0-1.245,1v.264q-.021,1.077-.21,1.24a2.91,2.91,0,0,1,1.307-.183h.317a1.238,1.238,0,0,0,.769-.386,1.089,1.089,0,0,0,.307-.772,1.071,1.071,0,0,0-.369-.824A1.263,1.263,0,0,0,845.491,230.28Z" fill="#fff"/>
    <path id="Trazado_5007" data-name="Trazado 5007" d="M842.454,235.687a1.237,1.237,0,0,0-.844.315,1,1,0,0,0-.358.783,1.032,1.032,0,0,0,.358.793,1.288,1.288,0,0,0,1.7.009,1.034,1.034,0,0,0,.348-.8A1,1,0,0,0,843.3,236,1.236,1.236,0,0,0,842.454,235.687Z" fill="#fff"/>
    <path id="Trazado_5008" data-name="Trazado 5008" d="M842.475,232.963h-.064l.022.02a1.128,1.128,0,0,0-.707,1.962,1.256,1.256,0,0,0,.875.335,1.129,1.129,0,0,0,1.245-1,1.113,1.113,0,0,0,0-.3,2.334,2.334,0,0,1,.19-1.2,2.881,2.881,0,0,1-1.329.183Z" fill="#fff"/>
    <path id="Trazado_5009" data-name="Trazado 5009" d="M845.554,229.751v-.02a1.216,1.216,0,0,0,.76-.376,1.139,1.139,0,0,0-.064-1.6,1.268,1.268,0,0,0-.885-.326,1.245,1.245,0,0,0-.813.285,1.1,1.1,0,0,0-.411.711h-.021v.265a2.469,2.469,0,0,1-.19,1.239,2.745,2.745,0,0,1,1.287-.183Z" fill="#fff"/>
    <path id="Trazado_5010" data-name="Trazado 5010" d="M842.475,232.435a1.284,1.284,0,0,0,.822-.285,1.091,1.091,0,0,0,.423-.711,1.2,1.2,0,0,0,0-.306c.013-.69.084-1.09.21-1.2a3.029,3.029,0,0,1-1.349.183h-.3l.021.02a1.128,1.128,0,0,0-.706,1.962A1.257,1.257,0,0,0,842.475,232.435Z" fill="#fff"/>
    <path id="Trazado_5011" data-name="Trazado 5011" d="M845.786,226.642a1.244,1.244,0,0,0,.812-.285,1.1,1.1,0,0,0,.412-.712,1.2,1.2,0,0,0,0-.305,2.4,2.4,0,0,1,.211-1.2,2.87,2.87,0,0,1-1.329.183h-.3v.021a1.221,1.221,0,0,0-.759.376,1.139,1.139,0,0,0,.064,1.6A1.268,1.268,0,0,0,845.786,226.642Z" fill="#fff"/>
    <path id="Trazado_5012" data-name="Trazado 5012" d="M848.845,223.938a1.127,1.127,0,0,0,.706-1.961,1.253,1.253,0,0,0-.875-.336,1.285,1.285,0,0,0-.823.285,1.093,1.093,0,0,0-.422.711v.041a.6.6,0,0,0,0,.223q-.021,1.077-.21,1.24a1.442,1.442,0,0,1,.738-.162Z" fill="#fff"/>
    <path id="Trazado_5013" data-name="Trazado 5013" d="M846.414,242.717c7.819,0,14.18-5.99,14.18-13.352s-6.361-13.353-14.18-13.353-14.18,5.99-14.18,13.353S838.595,242.717,846.414,242.717Zm0-24.276c6.479,0,11.751,4.9,11.751,10.924s-5.272,10.923-11.751,10.923-11.751-4.9-11.751-10.923S839.934,218.441,846.414,218.441Z" fill="#fff"/>
    <path id="Trazado_5014" data-name="Trazado 5014" d="M830.728,239.311q.76-.27.76-.784a.756.756,0,0,0-.2-.464A15.571,15.571,0,0,0,829.5,236.2a3.665,3.665,0,0,0-2.262-.858,3.519,3.519,0,0,0-.688.074,3.725,3.725,0,0,0-2.484,1.938,11.213,11.213,0,0,0-1.106,3.41q-.271,1.791-.541,3.582-1.895-.171-2.41.662a.967.967,0,0,0,.716,1.128,7.79,7.79,0,0,0,1.384.123v6.256c0,.13.179.258.538.38a3.453,3.453,0,0,0,1.126.184q1.077,0,1.126-.565l.419-6.386a9.205,9.205,0,0,0,1.134.073,5.261,5.261,0,0,0,1.418-.159.677.677,0,0,0,.555-.7,1.417,1.417,0,0,0-.049-.342q-.564-.686-2.894-.686a7,7,0,0,1-.123-1.372,10.066,10.066,0,0,1,.589-3.43q.613-1.74,1.5-2.083a1.388,1.388,0,0,1,.466-.1q.564,0,1.239,1t1.287,1A1.827,1.827,0,0,0,830.728,239.311Z" fill="#fff"/>
    <path id="Trazado_5015" data-name="Trazado 5015" d="M892.271,243.8a3.031,3.031,0,0,1,.466-1.843,6.91,6.91,0,0,1,1.619-1.3,3.334,3.334,0,0,1-2.109-.369,6.889,6.889,0,0,1-1.006-1.6,3.249,3.249,0,0,1-.563,2.018,5.224,5.224,0,0,1-1.521,1.132,2.536,2.536,0,0,1,.49-.049Q891.045,241.788,892.271,243.8Z" fill="#fff"/>
    <path id="Trazado_5016" data-name="Trazado 5016" d="M895.829,250.373a2.388,2.388,0,0,0-1.176.442,2.058,2.058,0,0,1-2.155.246q-.883-.467-.883-2.944,0-2.748.73-3.582-1.594-.932-2.355,0a4.31,4.31,0,0,0-.613,2.644c0,.056.006.109.006.165a2.924,2.924,0,0,1-1.912.625,1.184,1.184,0,0,1-.736-1.055,3.227,3.227,0,0,0-.344-1.276,5.122,5.122,0,0,0-3.924-2.06,10.874,10.874,0,0,0-1.643.172,10.857,10.857,0,0,1-1.521.172,2.71,2.71,0,0,1-1.128-.221,3.557,3.557,0,0,1,.1,1.031q0,1.323-.3,4.144a5.1,5.1,0,0,0-1.545.675,4.885,4.885,0,0,1-1.5.7.265.265,0,0,1-.2-.074,3.209,3.209,0,0,1-.564-2.256,14.928,14.928,0,0,1,.54-3.925,3.852,3.852,0,0,1-.442.025,5.165,5.165,0,0,1-2.158-.638,10.566,10.566,0,0,0-3.017-.661,3.02,3.02,0,0,0-2.158.785,6.638,6.638,0,0,0-2.134,5.127,7.568,7.568,0,0,0,.09,1.112c-.1.059-.212.123-.332.2a2.76,2.76,0,0,1-1.226.527.743.743,0,0,1-.614-.318,10.821,10.821,0,0,1-.245-3.359,39.955,39.955,0,0,1,.344-5.566q.391-2.99,1.152-3.284a1.088,1.088,0,0,0-.478-.76,1.587,1.587,0,0,0-.969-.319,1.61,1.61,0,0,0-1.569.98,21.511,21.511,0,0,0-.859,5.783,1.674,1.674,0,0,1-.908.246,6.36,6.36,0,0,1-1.324-.221,6.357,6.357,0,0,0-1.349-.22,1.988,1.988,0,0,0-1.692.883q-1.105,1.864-1.4,2.453a6.4,6.4,0,0,0-.736,2.747,3.9,3.9,0,0,0,.17,1.134l-.166.055a3.23,3.23,0,0,1-1.24.257q-.613-.2-.613-1.276,0-.342.082-1.177t.083-1.25a4.027,4.027,0,0,0-.049-.663,2.966,2.966,0,0,0-1.985-1.717,14.618,14.618,0,0,0-2.719-.368,1.268,1.268,0,0,0-1.054.454,5.961,5.961,0,0,0-.882,1.705q-.049-.714-.1-1.454a3.092,3.092,0,0,0-.319-1.255,1.783,1.783,0,0,0-1.4-.494,1.206,1.206,0,0,0-1.177.713q.613.468.614,2.065a21.723,21.723,0,0,1-.27,2.9c-.061.4-.114.755-.162,1.074-.047.023-.086.041-.135.066a3.357,3.357,0,0,1-1.742.5q-.784-.1-.784-1.988a8.463,8.463,0,0,1,.343-2.381,2.761,2.761,0,0,1,.883-1.545,1.726,1.726,0,0,0-1.446-.663,1.184,1.184,0,0,0-1.054.564,11.356,11.356,0,0,0-1.495,2.405,28.779,28.779,0,0,1-1.446,2.6q-.81,1.2-1.544,1.129-.981-.2-.981-2.478a17.538,17.538,0,0,1,.706-4.762l-1.914-.123a11.009,11.009,0,0,0-1.03,4.494,4.678,4.678,0,0,0,1.423,3.709,3.206,3.206,0,0,0,1.766.417,5.166,5.166,0,0,0,2.306-.517,3.007,3.007,0,0,0,1.569-1.647l1.055,1.6a1.482,1.482,0,0,0,1.177.344,6.8,6.8,0,0,0,2.145-.371c-.032.226-.052.38-.057.444a2.9,2.9,0,0,0,1.79.59,4.088,4.088,0,0,0,.441-.024q.882-2.112,1.765-4.223,1.126-2.406,2.231-2.234.956.146.956,1.541a11.759,11.759,0,0,1-.124,1.4,11.615,11.615,0,0,0-.125,1.272,1.625,1.625,0,0,0,.933,1.3A3.281,3.281,0,0,0,850.7,252q1.767-.2,2.308-.317c.113-.026.2-.058.295-.087.045.073.08.148.13.221a4.308,4.308,0,0,0,3.213,1.619q2.035,0,3.9-2.479a1.666,1.666,0,0,0,1.52,1.153,5.853,5.853,0,0,0,2.6-.552c.361-.132.662-.256.916-.374a3.631,3.631,0,0,0,.5.364,4.058,4.058,0,0,0,2.134.59,4.9,4.9,0,0,0,3.752-1.917,3.305,3.305,0,0,0,2.674,1.4,3.4,3.4,0,0,0,1.5-.343q.81-.344,1.619-.711c.013-.007.022-.014.035-.02q-.395,3.374-1.111,8.371l.417.392a3.925,3.925,0,0,0,.956.123,1.674,1.674,0,0,0,1.227-.393l.809-7.934a8.813,8.813,0,0,0,3.409,1.129,3.637,3.637,0,0,0,1.1-.172,2.048,2.048,0,0,0,1.276-.883q.391-.687.785-1.4a8.969,8.969,0,0,0,2.8-1.067,12.555,12.555,0,0,0,.528,2.623,3.026,3.026,0,0,0,2.38.857h1.374q2.256-.765,2.256-1.406A.629.629,0,0,0,895.829,250.373Zm-36.147-3.819a11.717,11.717,0,0,1-1.153,3.134q-.957,1.764-1.888,1.763a.917.917,0,0,1-.295-.049,1.3,1.3,0,0,1-.515-1.2,9.95,9.95,0,0,1,1.349-4.211,1.063,1.063,0,0,1,1.03-.563,1.789,1.789,0,0,1,1.092.355A.74.74,0,0,1,859.682,246.554Zm10.323,1.808q-1.129,1.984-2.134,1.863a1.5,1.5,0,0,1-.516-1.275,5.263,5.263,0,0,1,.7-2.391,7.26,7.26,0,0,1,1.63-2.147.735.735,0,0,1,.54-.2,1.187,1.187,0,0,1,.638.184.687.687,0,0,1,.344.4A8.071,8.071,0,0,1,870.005,248.362Zm13.37,2.266a1.238,1.238,0,0,1-.344.049,1.994,1.994,0,0,1-1.5-.956,4.451,4.451,0,0,1-.883-1.839,2.6,2.6,0,0,1,1.643-2.721,1.045,1.045,0,0,1,.491-.147q.441,0,.687,1.152.244,1.3.711,1.594a5.053,5.053,0,0,1,.1.931A2.245,2.245,0,0,1,883.375,250.628Z" fill="#fff"/>
  </g>
</svg>
