<svg xmlns="http://www.w3.org/2000/svg" width="293" height="32.093" viewBox="0 0 293 32.093">
  <g id="Grupo_696" data-name="Grupo 696" transform="translate(-162 -456.003)">
    <path id="Trazado_4856" data-name="Trazado 4856" d="M263.916,456.9H265.9l3.231,5.02,3.231-5.02h1.988v10.618h-1.866V459.9l-3.353,5.006h-.06l-3.323-4.975v7.584h-1.836Z" fill="#fff"/>
    <path id="Trazado_4857" data-name="Trazado 4857" d="M276.909,456.532h1.973v1.745h-1.973Zm.076,2.975h1.835v8.009h-1.835Z" fill="#fff"/>
    <path id="Trazado_4858" data-name="Trazado 4858" d="M281.218,459.507h1.836v1.244a2.88,2.88,0,0,1,2.5-1.413,2.752,2.752,0,0,1,2.852,3.081v5.1h-1.836v-4.551c0-1.244-.622-1.958-1.714-1.958A1.783,1.783,0,0,0,283.054,463v4.52h-1.836Z" fill="#fff"/>
    <path id="Trazado_4859" data-name="Trazado 4859" d="M290.659,456.532h1.973v1.745h-1.973Zm.076,2.975h1.835v8.009h-1.835Z" fill="#fff"/>
    <path id="Trazado_4860" data-name="Trazado 4860" d="M294.318,466.469l.819-1.244a4.487,4.487,0,0,0,2.624.985c.789,0,1.244-.332,1.244-.864v-.031c0-.622-.85-.833-1.79-1.123-1.183-.332-2.5-.819-2.5-2.35v-.03c0-1.517,1.259-2.443,2.852-2.443a5.542,5.542,0,0,1,2.944.912l-.729,1.3a4.649,4.649,0,0,0-2.26-.757c-.713,0-1.123.332-1.123.8v.031c0,.576.864.818,1.8,1.122,1.168.363,2.488.895,2.488,2.336v.031c0,1.683-1.3,2.519-2.973,2.519A5.629,5.629,0,0,1,294.318,466.469Z" fill="#fff"/>
    <path id="Trazado_4861" data-name="Trazado 4861" d="M302.786,465.3v-4.218H301.77v-1.576h1.016v-2.2h1.835v2.2h2.154v1.576h-2.154v3.931a.873.873,0,0,0,.986,1,2.458,2.458,0,0,0,1.138-.273v1.5a3.2,3.2,0,0,1-1.653.411A2.054,2.054,0,0,1,302.786,465.3Z" fill="#fff"/>
    <path id="Trazado_4862" data-name="Trazado 4862" d="M307.962,463.542v-.031a3.977,3.977,0,0,1,3.914-4.173c2.549,0,3.838,2,3.838,4.308,0,.169-.015.335-.031.518H309.8A2.237,2.237,0,0,0,312.1,466.2a2.911,2.911,0,0,0,2.169-.957l1.077.957a4.058,4.058,0,0,1-3.277,1.5A4,4,0,0,1,307.962,463.542Zm5.931-.594a2.078,2.078,0,0,0-2.031-2.107,2.168,2.168,0,0,0-2.08,2.107Z" fill="#fff"/>
    <path id="Trazado_4863" data-name="Trazado 4863" d="M317.569,459.507H319.4v1.8a2.836,2.836,0,0,1,2.837-1.956V461.3h-.106c-1.608,0-2.731,1.046-2.731,3.168v3.051h-1.836Z" fill="#fff"/>
    <path id="Trazado_4864" data-name="Trazado 4864" d="M323.867,456.532h1.973v1.745h-1.973Zm.076,2.975h1.835v8.009h-1.835Z" fill="#fff"/>
    <path id="Trazado_4865" data-name="Trazado 4865" d="M327.738,463.556v-.031a4.272,4.272,0,0,1,8.541-.031v.031a4.19,4.19,0,0,1-4.295,4.174A4.142,4.142,0,0,1,327.738,463.556Zm6.7,0v-.031a2.475,2.475,0,0,0-2.459-2.577,2.4,2.4,0,0,0-2.411,2.546v.031a2.484,2.484,0,0,0,2.442,2.581A2.416,2.416,0,0,0,334.443,463.556Z" fill="#fff"/>
    <path id="Trazado_4866" data-name="Trazado 4866" d="M342.293,463.525v-.031a3.824,3.824,0,0,1,3.717-4.156,3.313,3.313,0,0,1,2.73,1.413v-4.309h1.836v11.074H348.74v-1.334a3.205,3.205,0,0,1-2.73,1.5A3.84,3.84,0,0,1,342.293,463.525Zm6.478,0v-.031a2.4,2.4,0,0,0-2.322-2.563,2.347,2.347,0,0,0-2.3,2.563v.031a2.382,2.382,0,0,0,2.3,2.564A2.412,2.412,0,0,0,348.771,463.525Z" fill="#fff"/>
    <path id="Trazado_4867" data-name="Trazado 4867" d="M352.432,463.542v-.031a3.977,3.977,0,0,1,3.914-4.173c2.549,0,3.838,2,3.838,4.308,0,.169-.015.335-.031.518h-5.886a2.237,2.237,0,0,0,2.307,2.032,2.911,2.911,0,0,0,2.169-.957l1.077.957a4.058,4.058,0,0,1-3.277,1.5A4,4,0,0,1,352.432,463.542Zm5.931-.594a2.078,2.078,0,0,0-2.032-2.107,2.168,2.168,0,0,0-2.079,2.107Z" fill="#fff"/>
    <path id="Trazado_4868" data-name="Trazado 4868" d="M366.8,456.9h4.188c2.472,0,4.035,1.41,4.035,3.549v.031c0,2.38-1.912,3.624-4.248,3.624h-2.109v3.414H366.8Zm4.036,5.521c1.411,0,2.29-.79,2.29-1.9v-.031c0-1.244-.894-1.9-2.29-1.9h-2.17v3.824Z" fill="#fff"/>
    <path id="Trazado_4869" data-name="Trazado 4869" d="M376.73,459.507h1.836v1.8a2.837,2.837,0,0,1,2.837-1.956V461.3H381.3c-1.609,0-2.732,1.046-2.732,3.168v3.051H376.73Z" fill="#fff"/>
    <path id="Trazado_4870" data-name="Trazado 4870" d="M382.285,463.556v-.031a4.272,4.272,0,0,1,8.541-.031v.031a4.189,4.189,0,0,1-4.294,4.174A4.143,4.143,0,0,1,382.285,463.556Zm6.7,0v-.031a2.474,2.474,0,0,0-2.458-2.577,2.4,2.4,0,0,0-2.412,2.546v.031a2.485,2.485,0,0,0,2.443,2.581A2.416,2.416,0,0,0,388.99,463.556Z" fill="#fff"/>
    <path id="Trazado_4871" data-name="Trazado 4871" d="M392.287,463.525v-.031a3.824,3.824,0,0,1,3.718-4.156,3.313,3.313,0,0,1,2.729,1.413v-4.309h1.837v11.074h-1.837v-1.334a3.2,3.2,0,0,1-2.729,1.5A3.84,3.84,0,0,1,392.287,463.525Zm6.478,0v-.031a2.4,2.4,0,0,0-2.321-2.563,2.347,2.347,0,0,0-2.3,2.563v.031a2.382,2.382,0,0,0,2.3,2.564A2.412,2.412,0,0,0,398.765,463.525Z" fill="#fff"/>
    <path id="Trazado_4872" data-name="Trazado 4872" d="M402.776,464.6v-5.1h1.834v4.55c0,1.244.622,1.956,1.716,1.956a1.781,1.781,0,0,0,1.8-1.987v-4.519h1.836v8.009H408.13v-1.244a2.882,2.882,0,0,1-2.5,1.41A2.75,2.75,0,0,1,402.776,464.6Z" fill="#fff"/>
    <path id="Trazado_4873" data-name="Trazado 4873" d="M411.836,463.556v-.031a4.131,4.131,0,0,1,4.156-4.187,4.007,4.007,0,0,1,3.2,1.382l-1.139,1.229a2.689,2.689,0,0,0-2.078-1,2.4,2.4,0,0,0-2.306,2.546v.031a2.438,2.438,0,0,0,2.4,2.581,2.825,2.825,0,0,0,2.079-1l1.107,1.092a4.2,4.2,0,0,1-7.418-2.64Z" fill="#fff"/>
    <path id="Trazado_4874" data-name="Trazado 4874" d="M420.276,463.556v-.031a4.131,4.131,0,0,1,4.156-4.187,4,4,0,0,1,3.2,1.382l-1.138,1.229a2.689,2.689,0,0,0-2.078-1,2.4,2.4,0,0,0-2.307,2.546v.031a2.439,2.439,0,0,0,2.4,2.581,2.822,2.822,0,0,0,2.078-1l1.108,1.092a4.2,4.2,0,0,1-7.418-2.64Z" fill="#fff"/>
    <path id="Trazado_4875" data-name="Trazado 4875" d="M429.412,456.532h1.971v1.745h-1.971Zm.076,2.975h1.835v8.009h-1.835Z" fill="#fff"/>
    <path id="Trazado_4876" data-name="Trazado 4876" d="M433.283,463.556v-.031a4.272,4.272,0,0,1,8.541-.031v.031a4.19,4.19,0,0,1-4.3,4.174A4.142,4.142,0,0,1,433.283,463.556Zm6.705,0v-.031a2.475,2.475,0,0,0-2.459-2.577,2.4,2.4,0,0,0-2.411,2.546v.031a2.484,2.484,0,0,0,2.442,2.581A2.416,2.416,0,0,0,439.988,463.556ZM438.395,456l1.669.743-1.866,1.745h-1.381Z" fill="#fff"/>
    <path id="Trazado_4877" data-name="Trazado 4877" d="M443.693,459.507h1.836v1.244a2.88,2.88,0,0,1,2.5-1.413,2.752,2.752,0,0,1,2.852,3.081v5.1h-1.836v-4.551c0-1.244-.622-1.958-1.714-1.958A1.783,1.783,0,0,0,445.529,463v4.52h-1.836Z" fill="#fff"/>
    <path id="Trazado_4878" data-name="Trazado 4878" d="M452.467,468.943c.925-.183,1.365-.653,1.289-1.427h-.774v-2.08H455V467.2a2.209,2.209,0,0,1-2.336,2.519Z" fill="#fff"/>
    <path id="Trazado_4879" data-name="Trazado 4879" d="M162,480.343v-.031a5.373,5.373,0,0,1,5.476-5.49,5.536,5.536,0,0,1,4.157,1.651l-1.2,1.382a4.223,4.223,0,0,0-2.973-1.32,3.566,3.566,0,0,0-3.5,3.749v.028a3.592,3.592,0,0,0,3.5,3.779,4.157,4.157,0,0,0,3.049-1.381l1.2,1.213A5.478,5.478,0,0,1,167.4,485.8,5.34,5.34,0,0,1,162,480.343Z" fill="#fff"/>
    <path id="Trazado_4880" data-name="Trazado 4880" d="M172.867,481.663v-.031a4.272,4.272,0,0,1,8.541-.031v.031a4.189,4.189,0,0,1-4.294,4.173A4.142,4.142,0,0,1,172.867,481.663Zm6.705,0v-.031a2.475,2.475,0,0,0-2.458-2.578A2.4,2.4,0,0,0,174.7,481.6v.031a2.483,2.483,0,0,0,2.443,2.58A2.415,2.415,0,0,0,179.572,481.663Z" fill="#fff"/>
    <path id="Trazado_4881" data-name="Trazado 4881" d="M183.278,477.613h1.836v1.213a2.872,2.872,0,0,1,2.443-1.382,2.519,2.519,0,0,1,2.381,1.413,3.274,3.274,0,0,1,2.716-1.413c1.744,0,2.807,1.109,2.807,3.065v5.113h-1.836v-4.55c0-1.275-.591-1.959-1.623-1.959-1,0-1.715.7-1.715,1.99v4.519h-1.835v-4.567c0-1.244-.606-1.942-1.624-1.942s-1.714.76-1.714,2v4.505h-1.836Z" fill="#fff"/>
    <path id="Trazado_4882" data-name="Trazado 4882" d="M197.258,481.649v-.031a3.976,3.976,0,0,1,3.913-4.174c2.549,0,3.838,2,3.838,4.309,0,.169-.015.335-.031.518h-5.885A2.236,2.236,0,0,0,201.4,484.3a2.909,2.909,0,0,0,2.169-.957l1.077.957a4.056,4.056,0,0,1-3.277,1.5A4,4,0,0,1,197.258,481.649Zm5.931-.594a2.079,2.079,0,0,0-2.032-2.108,2.168,2.168,0,0,0-2.08,2.108Z" fill="#fff"/>
    <path id="Trazado_4883" data-name="Trazado 4883" d="M206.864,477.613H208.7v1.8a2.837,2.837,0,0,1,2.837-1.956V479.4h-.106c-1.608,0-2.731,1.047-2.731,3.169v3.05h-1.836Z" fill="#fff"/>
    <path id="Trazado_4884" data-name="Trazado 4884" d="M212.421,481.663v-.031a4.131,4.131,0,0,1,4.156-4.188,4,4,0,0,1,3.2,1.382l-1.138,1.23a2.69,2.69,0,0,0-2.078-1,2.4,2.4,0,0,0-2.307,2.547v.031a2.438,2.438,0,0,0,2.4,2.58,2.822,2.822,0,0,0,2.078-1l1.108,1.092a4.2,4.2,0,0,1-7.418-2.64Z" fill="#fff"/>
    <path id="Trazado_4885" data-name="Trazado 4885" d="M221.557,474.639h1.973v1.744h-1.973Zm.076,2.974h1.835v8.009h-1.835Z" fill="#fff"/>
    <path id="Trazado_4886" data-name="Trazado 4886" d="M225.428,481.663v-.031a4.272,4.272,0,0,1,8.541-.031v.031a4.189,4.189,0,0,1-4.295,4.173A4.142,4.142,0,0,1,225.428,481.663Zm6.705,0v-.031a2.475,2.475,0,0,0-2.459-2.578,2.4,2.4,0,0,0-2.411,2.547v.031a2.483,2.483,0,0,0,2.442,2.58A2.415,2.415,0,0,0,232.133,481.663Z" fill="#fff"/>
    <path id="Trazado_4887" data-name="Trazado 4887" d="M240.6,475h7.874v1.669h-6.008v2.761h5.326V481.1h-5.326v2.851h6.084v1.668H240.6Z" fill="#fff"/>
    <path id="Trazado_4888" data-name="Trazado 4888" d="M252.806,481.556l-2.837-3.943h2l1.851,2.64,1.851-2.64h1.956l-2.837,3.9,2.96,4.111h-2l-1.972-2.805-1.958,2.805h-1.957Z" fill="#fff"/>
    <path id="Trazado_4889" data-name="Trazado 4889" d="M259.743,483.408v-4.219h-1.016v-1.576h1.016v-2.2h1.835v2.2h2.154v1.576h-2.154v3.932a.873.873,0,0,0,.986,1,2.458,2.458,0,0,0,1.138-.273v1.5a3.2,3.2,0,0,1-1.653.411A2.054,2.054,0,0,1,259.743,483.408Z" fill="#fff"/>
    <path id="Trazado_4890" data-name="Trazado 4890" d="M264.919,481.649v-.031a3.977,3.977,0,0,1,3.914-4.174c2.549,0,3.838,2,3.838,4.309,0,.169-.015.335-.031.518h-5.886a2.237,2.237,0,0,0,2.306,2.032,2.911,2.911,0,0,0,2.17-.957l1.077.957a4.058,4.058,0,0,1-3.278,1.5A4,4,0,0,1,264.919,481.649Zm5.931-.594a2.079,2.079,0,0,0-2.032-2.108,2.168,2.168,0,0,0-2.079,2.108Z" fill="#fff"/>
    <path id="Trazado_4891" data-name="Trazado 4891" d="M274.524,477.613h1.836v1.8a2.837,2.837,0,0,1,2.837-1.956V479.4h-.1c-1.609,0-2.732,1.047-2.732,3.169v3.05h-1.836Z" fill="#fff"/>
    <path id="Trazado_4892" data-name="Trazado 4892" d="M280.824,474.639H282.8v1.744h-1.973Zm.076,2.974h1.835v8.009H280.9Z" fill="#fff"/>
    <path id="Trazado_4893" data-name="Trazado 4893" d="M284.7,481.663v-.031a4.272,4.272,0,0,1,8.541-.031v.031a4.189,4.189,0,0,1-4.295,4.173A4.142,4.142,0,0,1,284.7,481.663Zm6.7,0v-.031a2.475,2.475,0,0,0-2.459-2.578,2.4,2.4,0,0,0-2.411,2.547v.031a2.483,2.483,0,0,0,2.442,2.58A2.415,2.415,0,0,0,291.4,481.663Z" fill="#fff"/>
    <path id="Trazado_4894" data-name="Trazado 4894" d="M295.106,477.613h1.836v1.8a2.837,2.837,0,0,1,2.837-1.956V479.4h-.106c-1.608,0-2.731,1.047-2.731,3.169v3.05h-1.836Z" fill="#fff"/>
    <path id="Trazado_4895" data-name="Trazado 4895" d="M299.372,487.049c.925-.183,1.365-.653,1.289-1.427h-.774v-2.079H301.9V485.3a2.209,2.209,0,0,1-2.336,2.519Z" fill="#fff"/>
    <path id="Trazado_4896" data-name="Trazado 4896" d="M308.963,475h1.866v10.618h-1.866Z" fill="#fff"/>
    <path id="Trazado_4897" data-name="Trazado 4897" d="M313.454,477.613h1.837v1.244a2.88,2.88,0,0,1,2.5-1.413,2.752,2.752,0,0,1,2.852,3.082v5.1H318.81v-4.55c0-1.244-.622-1.959-1.714-1.959a1.784,1.784,0,0,0-1.805,1.99v4.519h-1.837Z" fill="#fff"/>
    <path id="Trazado_4898" data-name="Trazado 4898" d="M321.8,477.613h1.972l2.155,5.885,2.169-5.885h1.927l-3.277,8.071H325.1Z" fill="#fff"/>
    <path id="Trazado_4899" data-name="Trazado 4899" d="M330.7,481.649v-.031a3.976,3.976,0,0,1,3.913-4.174c2.55,0,3.839,2,3.839,4.309,0,.169-.016.335-.031.518h-5.886a2.237,2.237,0,0,0,2.306,2.032,2.913,2.913,0,0,0,2.17-.957l1.076.957a4.054,4.054,0,0,1-3.277,1.5A4,4,0,0,1,330.7,481.649Zm5.931-.594a2.079,2.079,0,0,0-2.033-2.108,2.169,2.169,0,0,0-2.079,2.108Z" fill="#fff"/>
    <path id="Trazado_4900" data-name="Trazado 4900" d="M340.3,477.613h1.836v1.8a2.837,2.837,0,0,1,2.837-1.956V479.4h-.105c-1.609,0-2.732,1.047-2.732,3.169v3.05H340.3Z" fill="#fff"/>
    <path id="Trazado_4901" data-name="Trazado 4901" d="M345.92,484.576l.819-1.244a4.494,4.494,0,0,0,2.625.985c.789,0,1.243-.332,1.243-.864v-.031c0-.622-.849-.833-1.789-1.123-1.184-.332-2.5-.819-2.5-2.35v-.031c0-1.517,1.26-2.443,2.853-2.443a5.542,5.542,0,0,1,2.943.912l-.729,1.3a4.649,4.649,0,0,0-2.259-.757c-.714,0-1.123.332-1.123.8v.031c0,.577.864.819,1.8,1.123,1.168.363,2.488.895,2.488,2.336v.031c0,1.683-1.3,2.518-2.974,2.518A5.63,5.63,0,0,1,345.92,484.576Z" fill="#fff"/>
    <path id="Trazado_4902" data-name="Trazado 4902" d="M354.191,474.639h1.972v1.744h-1.972Zm.076,2.974H356.1v8.009h-1.835Z" fill="#fff"/>
    <path id="Trazado_4903" data-name="Trazado 4903" d="M358.062,481.663v-.031a4.272,4.272,0,0,1,8.541-.031v.031a4.188,4.188,0,0,1-4.294,4.173A4.142,4.142,0,0,1,358.062,481.663Zm6.7,0v-.031a2.475,2.475,0,0,0-2.458-2.578A2.4,2.4,0,0,0,359.9,481.6v.031a2.483,2.483,0,0,0,2.443,2.58A2.415,2.415,0,0,0,364.767,481.663Z" fill="#fff"/>
    <path id="Trazado_4904" data-name="Trazado 4904" d="M368.473,477.613h1.837v1.244a2.88,2.88,0,0,1,2.5-1.413,2.752,2.752,0,0,1,2.852,3.082v5.1h-1.836v-4.55c0-1.244-.622-1.959-1.714-1.959a1.784,1.784,0,0,0-1.8,1.99v4.519h-1.837Z" fill="#fff"/>
    <path id="Trazado_4905" data-name="Trazado 4905" d="M377.444,481.649v-.031a3.976,3.976,0,0,1,3.913-4.174c2.549,0,3.838,2,3.838,4.309,0,.169-.015.335-.031.518h-5.886a2.237,2.237,0,0,0,2.307,2.032,2.909,2.909,0,0,0,2.169-.957l1.077.957a4.055,4.055,0,0,1-3.277,1.5A4,4,0,0,1,377.444,481.649Zm5.93-.594a2.079,2.079,0,0,0-2.033-2.108,2.168,2.168,0,0,0-2.078,2.108Z" fill="#fff"/>
    <path id="Trazado_4906" data-name="Trazado 4906" d="M386.4,484.576l.819-1.244a4.489,4.489,0,0,0,2.625.985c.789,0,1.243-.332,1.243-.864v-.031c0-.622-.849-.833-1.789-1.123-1.184-.332-2.5-.819-2.5-2.35v-.031c0-1.517,1.26-2.443,2.853-2.443a5.542,5.542,0,0,1,2.943.912l-.729,1.3a4.649,4.649,0,0,0-2.26-.757c-.713,0-1.122.332-1.122.8v.031c0,.577.864.819,1.805,1.123,1.168.363,2.488.895,2.488,2.336v.031c0,1.683-1.3,2.518-2.974,2.518A5.63,5.63,0,0,1,386.4,484.576Z" fill="#fff"/>
    <path id="Trazado_4907" data-name="Trazado 4907" d="M398.934,487.609l.622-1.365a2.252,2.252,0,0,0,1.078.3c.515,0,.834-.228,1.137-.926l-3.338-8.009h1.958l2.275,5.947,2.078-5.947h1.912l-3.185,8.237c-.638,1.638-1.351,2.246-2.64,2.246A3.739,3.739,0,0,1,398.934,487.609Z" fill="#fff"/>
    <path id="Trazado_4908" data-name="Trazado 4908" d="M413,475h4.188c2.472,0,4.035,1.41,4.035,3.549v.031c0,2.381-1.912,3.625-4.248,3.625h-2.109v3.413H413Zm4.036,5.522c1.411,0,2.291-.791,2.291-1.9V478.6c0-1.244-.9-1.9-2.291-1.9h-2.17v3.825Z" fill="#fff"/>
    <path id="Trazado_4909" data-name="Trazado 4909" d="M422.414,481.649v-.031a3.977,3.977,0,0,1,3.914-4.174c2.549,0,3.838,2,3.838,4.309,0,.169-.015.335-.031.518h-5.886a2.237,2.237,0,0,0,2.307,2.032,2.911,2.911,0,0,0,2.169-.957l1.077.957a4.057,4.057,0,0,1-3.277,1.5A4,4,0,0,1,422.414,481.649Zm5.931-.594a2.079,2.079,0,0,0-2.033-2.108,2.168,2.168,0,0,0-2.078,2.108Z" fill="#fff"/>
    <path id="Trazado_4910" data-name="Trazado 4910" d="M431.369,484.576l.819-1.244a4.487,4.487,0,0,0,2.624.985c.79,0,1.244-.332,1.244-.864v-.031c0-.622-.85-.833-1.79-1.123-1.183-.332-2.5-.819-2.5-2.35v-.031c0-1.517,1.26-2.443,2.852-2.443a5.542,5.542,0,0,1,2.944.912l-.729,1.3a4.649,4.649,0,0,0-2.26-.757c-.713,0-1.123.332-1.123.8v.031c0,.577.864.819,1.806,1.123,1.168.363,2.488.895,2.488,2.336v.031c0,1.683-1.3,2.518-2.974,2.518A5.63,5.63,0,0,1,431.369,484.576Z" fill="#fff"/>
    <path id="Trazado_4911" data-name="Trazado 4911" d="M439.17,481.663v-.031a4.132,4.132,0,0,1,4.157-4.188,4,4,0,0,1,3.2,1.382l-1.138,1.23a2.69,2.69,0,0,0-2.079-1,2.4,2.4,0,0,0-2.306,2.547v.031a2.438,2.438,0,0,0,2.4,2.58,2.822,2.822,0,0,0,2.078-1l1.107,1.092a4.2,4.2,0,0,1-7.418-2.64Z" fill="#fff"/>
    <path id="Trazado_4912" data-name="Trazado 4912" d="M453.176,485.622v-.985a3.239,3.239,0,0,1-2.594,1.151,2.563,2.563,0,0,1-2.852-2.47v-.031c0-1.776,1.38-2.626,3.246-2.626a6.734,6.734,0,0,1,2.214.335v-.152c0-1.109-.7-1.714-1.971-1.714a5.568,5.568,0,0,0-2.291.5l-.5-1.472a6.878,6.878,0,0,1,3.05-.667c2.366,0,3.519,1.244,3.519,3.383v4.747Zm.045-3.351a5.212,5.212,0,0,0-1.834-.321c-1.154,0-1.837.473-1.837,1.244v.031c0,.76.683,1.184,1.548,1.184,1.213,0,2.123-.683,2.123-1.685Z" fill="#fff"/>
  </g>
</svg>
