<svg xmlns="http://www.w3.org/2000/svg" width="205" height="47.234" viewBox="0 0 205 47.234">
  <g id="Grupo_698" data-name="Grupo 698" transform="translate(-1005 -374.843)">
    <path id="Trazado_4945" data-name="Trazado 4945" d="M1115,375.292h1.962l3.189,4.957,3.188-4.957h1.962v10.48h-1.842v-7.516l-3.308,4.941h-.059l-3.28-4.91v7.485H1115Z" fill="#fff"/>
    <path id="Trazado_4946" data-name="Trazado 4946" d="M1127.817,374.935h1.947v1.719h-1.947Zm.074,2.933h1.811v7.9h-1.811Z" fill="#fff"/>
    <path id="Trazado_4947" data-name="Trazado 4947" d="M1132.071,377.868h1.811v1.226a2.849,2.849,0,0,1,2.471-1.39,2.714,2.714,0,0,1,2.815,3.038v5.03h-1.811v-4.491c0-1.229-.616-1.932-1.691-1.932a1.76,1.76,0,0,0-1.784,1.963v4.46h-1.811Z" fill="#fff"/>
    <path id="Trazado_4948" data-name="Trazado 4948" d="M1141.389,374.935h1.947v1.719h-1.947Zm.074,2.933h1.812v7.9h-1.812Z" fill="#fff"/>
    <path id="Trazado_4949" data-name="Trazado 4949" d="M1145,384.737l.81-1.226a4.429,4.429,0,0,0,2.587.973c.78,0,1.229-.329,1.229-.853V383.6c0-.613-.837-.822-1.768-1.106-1.167-.329-2.467-.81-2.467-2.322v-.028a2.521,2.521,0,0,1,2.812-2.412,5.471,5.471,0,0,1,2.905.9l-.718,1.287a4.575,4.575,0,0,0-2.23-.748c-.7,0-1.109.329-1.109.791v.031c0,.57.853.807,1.781,1.109,1.155.357,2.455.881,2.455,2.3v.031c0,1.66-1.288,2.483-2.933,2.483A5.549,5.549,0,0,1,1145,384.737Z" fill="#fff"/>
    <path id="Trazado_4950" data-name="Trazado 4950" d="M1153.357,383.585v-4.162h-1v-1.555h1V375.7h1.811v2.172h2.126v1.555h-2.126V383.3a.863.863,0,0,0,.974.988,2.406,2.406,0,0,0,1.121-.271V385.5a3.16,3.16,0,0,1-1.633.4A2.025,2.025,0,0,1,1153.357,383.585Z" fill="#fff"/>
    <path id="Trazado_4951" data-name="Trazado 4951" d="M1158.461,381.851v-.031a3.922,3.922,0,0,1,3.863-4.116c2.514,0,3.789,1.975,3.789,4.251,0,.164-.015.33-.031.509h-5.809a2.208,2.208,0,0,0,2.276,2.005,2.873,2.873,0,0,0,2.141-.943l1.063.943a3.994,3.994,0,0,1-3.235,1.482A3.944,3.944,0,0,1,1158.461,381.851Zm5.853-.586a2.048,2.048,0,0,0-2.005-2.079,2.137,2.137,0,0,0-2.049,2.079Z" fill="#fff"/>
    <path id="Trazado_4952" data-name="Trazado 4952" d="M1167.943,377.868h1.811v1.78a2.805,2.805,0,0,1,2.8-1.931v1.916h-.1c-1.586,0-2.695,1.035-2.695,3.129v3.01h-1.811Z" fill="#fff"/>
    <path id="Trazado_4953" data-name="Trazado 4953" d="M1174.159,374.935h1.947v1.719h-1.947Zm.074,2.933h1.811v7.9h-1.811Z" fill="#fff"/>
    <path id="Trazado_4954" data-name="Trazado 4954" d="M1177.979,381.863v-.028a4.215,4.215,0,0,1,8.428-.031v.031a4.131,4.131,0,0,1-4.236,4.116A4.09,4.09,0,0,1,1177.979,381.863Zm6.617,0v-.028a2.442,2.442,0,0,0-2.425-2.544,2.372,2.372,0,0,0-2.381,2.513v.031a2.45,2.45,0,0,0,2.412,2.545A2.384,2.384,0,0,0,1184.6,381.863Z" fill="#fff"/>
    <path id="Trazado_4955" data-name="Trazado 4955" d="M1192.343,381.835V381.8a3.772,3.772,0,0,1,3.669-4.1,3.267,3.267,0,0,1,2.692,1.39v-4.251h1.811v10.929H1198.7v-1.318a3.16,3.16,0,0,1-2.692,1.481A3.789,3.789,0,0,1,1192.343,381.835Zm6.392,0V381.8a2.371,2.371,0,0,0-2.289-2.529,2.316,2.316,0,0,0-2.276,2.529v.031a2.352,2.352,0,0,0,2.276,2.529A2.379,2.379,0,0,0,1198.735,381.835Z" fill="#fff"/>
    <path id="Trazado_4956" data-name="Trazado 4956" d="M1202.348,381.851v-.031a3.922,3.922,0,0,1,3.863-4.116c2.514,0,3.789,1.975,3.789,4.251,0,.164-.015.33-.031.509h-5.81a2.209,2.209,0,0,0,2.277,2.005,2.873,2.873,0,0,0,2.141-.943l1.063.943a3.994,3.994,0,0,1-3.235,1.482A3.944,3.944,0,0,1,1202.348,381.851Zm5.853-.586a2.048,2.048,0,0,0-2.005-2.079,2.137,2.137,0,0,0-2.049,2.079Z" fill="#fff"/>
    <path id="Trazado_4957" data-name="Trazado 4957" d="M1008.576,394.487h-3.323V392.78h8.505v1.707h-3.324v8.77h-1.858Z" fill="#fff"/>
    <path id="Trazado_4958" data-name="Trazado 4958" d="M1013.354,399.335v-.03a3.924,3.924,0,0,1,3.863-4.116c2.514,0,3.789,1.975,3.789,4.251,0,.166-.015.33-.031.508h-5.81a2.21,2.21,0,0,0,2.277,2.006,2.862,2.862,0,0,0,2.141-.943l1.063.943a4,4,0,0,1-3.235,1.485A3.947,3.947,0,0,1,1013.354,399.335Zm5.853-.582a2.051,2.051,0,0,0-2-2.082,2.138,2.138,0,0,0-2.049,2.082Z" fill="#fff"/>
    <path id="Trazado_4959" data-name="Trazado 4959" d="M1022.94,392.331h1.812v10.926h-1.812Z" fill="#fff"/>
    <path id="Trazado_4960" data-name="Trazado 4960" d="M1026.686,399.335v-.03a3.924,3.924,0,0,1,3.863-4.116c2.514,0,3.789,1.975,3.789,4.251,0,.166-.015.33-.031.508H1028.5a2.209,2.209,0,0,0,2.276,2.006,2.861,2.861,0,0,0,2.141-.943l1.063.943a4,4,0,0,1-3.235,1.485A3.947,3.947,0,0,1,1026.686,399.335Zm5.853-.582a2.051,2.051,0,0,0-2-2.082,2.138,2.138,0,0,0-2.049,2.082Z" fill="#fff"/>
    <path id="Trazado_4961" data-name="Trazado 4961" d="M1035.734,399.351v-.031a4.076,4.076,0,0,1,4.1-4.131,3.948,3.948,0,0,1,3.157,1.362l-1.121,1.213a2.662,2.662,0,0,0-2.052-.988,2.371,2.371,0,0,0-2.276,2.516v.028a2.4,2.4,0,0,0,2.366,2.544,2.788,2.788,0,0,0,2.051-.985l1.094,1.075a4.144,4.144,0,0,1-7.322-2.6Z" fill="#fff"/>
    <path id="Trazado_4962" data-name="Trazado 4962" d="M1044.06,399.351v-.031a4.215,4.215,0,0,1,8.428-.028v.028a4.134,4.134,0,0,1-4.236,4.119A4.091,4.091,0,0,1,1044.06,399.351Zm6.617,0v-.031a2.441,2.441,0,0,0-2.425-2.544,2.374,2.374,0,0,0-2.381,2.516v.028a2.45,2.45,0,0,0,2.412,2.544A2.382,2.382,0,0,0,1050.677,399.351Z" fill="#fff"/>
    <path id="Trazado_4963" data-name="Trazado 4963" d="M1054.333,395.352h1.811v1.2a2.84,2.84,0,0,1,2.412-1.362,2.489,2.489,0,0,1,2.351,1.393,3.228,3.228,0,0,1,2.677-1.393c1.722,0,2.769,1.094,2.769,3.025v5.043h-1.811v-4.491c0-1.257-.582-1.929-1.6-1.929-.986,0-1.691.687-1.691,1.959v4.461h-1.812v-4.5c0-1.229-.6-1.916-1.6-1.916s-1.692.749-1.692,1.975v4.445h-1.811Z" fill="#fff"/>
    <path id="Trazado_4964" data-name="Trazado 4964" d="M1068.475,400.383v-5.031h1.812v4.492c0,1.229.613,1.931,1.691,1.931a1.76,1.76,0,0,0,1.784-1.959v-4.464h1.808v7.9h-1.808v-1.226a2.853,2.853,0,0,1-2.471,1.392A2.715,2.715,0,0,1,1068.475,400.383Z" fill="#fff"/>
    <path id="Trazado_4965" data-name="Trazado 4965" d="M1077.849,395.352h1.812v1.23a2.848,2.848,0,0,1,2.47-1.393,2.715,2.715,0,0,1,2.816,3.037v5.031h-1.812v-4.491c0-1.226-.616-1.929-1.691-1.929a1.757,1.757,0,0,0-1.783,1.959v4.461h-1.812Z" fill="#fff"/>
    <path id="Trazado_4966" data-name="Trazado 4966" d="M1087.168,392.42h1.946v1.722h-1.946Zm.074,2.932h1.811v7.9h-1.811Z" fill="#fff"/>
    <path id="Trazado_4967" data-name="Trazado 4967" d="M1090.984,399.351v-.031a4.077,4.077,0,0,1,4.1-4.131,3.95,3.95,0,0,1,3.158,1.362l-1.121,1.213a2.662,2.662,0,0,0-2.052-.988,2.371,2.371,0,0,0-2.276,2.516v.028a2.4,2.4,0,0,0,2.365,2.544,2.788,2.788,0,0,0,2.052-.985l1.093,1.075a4.144,4.144,0,0,1-7.322-2.6Z" fill="#fff"/>
    <path id="Trazado_4968" data-name="Trazado 4968" d="M1104.809,403.257v-.974a3.193,3.193,0,0,1-2.56,1.14,2.53,2.53,0,0,1-2.815-2.44v-.03c0-1.753,1.365-2.591,3.2-2.591a6.673,6.673,0,0,1,2.187.33v-.148c0-1.094-.69-1.694-1.947-1.694a5.535,5.535,0,0,0-2.261.495l-.493-1.454a6.8,6.8,0,0,1,3.009-.656c2.335,0,3.472,1.226,3.472,3.336v4.686Zm.043-3.309a5.2,5.2,0,0,0-1.811-.314c-1.137,0-1.811.465-1.811,1.229v.028c0,.749.674,1.168,1.528,1.168,1.2,0,2.094-.672,2.094-1.661Z" fill="#fff"/>
    <path id="Trazado_4969" data-name="Trazado 4969" d="M1108.33,399.351v-.031a4.077,4.077,0,0,1,4.1-4.131,3.95,3.95,0,0,1,3.158,1.362l-1.122,1.213a2.658,2.658,0,0,0-2.051-.988,2.372,2.372,0,0,0-2.277,2.516v.028a2.4,2.4,0,0,0,2.366,2.544,2.788,2.788,0,0,0,2.052-.985l1.093,1.075a4.144,4.144,0,0,1-7.322-2.6Z" fill="#fff"/>
    <path id="Trazado_4970" data-name="Trazado 4970" d="M1117.347,392.42h1.946v1.722h-1.946Zm.074,2.932h1.811v7.9h-1.811Z" fill="#fff"/>
    <path id="Trazado_4971" data-name="Trazado 4971" d="M1121.166,399.351v-.031a4.215,4.215,0,0,1,8.428-.028v.028a4.133,4.133,0,0,1-4.235,4.119A4.091,4.091,0,0,1,1121.166,399.351Zm6.617,0v-.031a2.441,2.441,0,0,0-2.424-2.544,2.373,2.373,0,0,0-2.381,2.516v.028a2.45,2.45,0,0,0,2.412,2.544A2.382,2.382,0,0,0,1127.783,399.351Z" fill="#fff"/>
    <path id="Trazado_4972" data-name="Trazado 4972" d="M1131.44,395.352h1.811v1.23a2.848,2.848,0,0,1,2.47-1.393,2.715,2.715,0,0,1,2.816,3.037v5.031h-1.811v-4.491c0-1.226-.616-1.929-1.692-1.929a1.758,1.758,0,0,0-1.783,1.959v4.461h-1.811Z" fill="#fff"/>
    <path id="Trazado_4973" data-name="Trazado 4973" d="M1140.293,399.335v-.03a3.924,3.924,0,0,1,3.863-4.116c2.513,0,3.789,1.975,3.789,4.251,0,.166-.016.33-.031.508h-5.81a2.209,2.209,0,0,0,2.277,2.006,2.858,2.858,0,0,0,2.14-.943l1.063.943a4,4,0,0,1-3.234,1.485A3.947,3.947,0,0,1,1140.293,399.335Zm5.853-.582a2.051,2.051,0,0,0-2.006-2.082,2.137,2.137,0,0,0-2.048,2.082Z" fill="#fff"/>
    <path id="Trazado_4974" data-name="Trazado 4974" d="M1149.131,402.225l.81-1.229a4.428,4.428,0,0,0,2.587.973c.78,0,1.229-.329,1.229-.853v-.028c0-.616-.837-.825-1.768-1.109-1.167-.329-2.467-.807-2.467-2.319v-.031a2.519,2.519,0,0,1,2.812-2.409,5.5,5.5,0,0,1,2.905.9l-.718,1.288a4.609,4.609,0,0,0-2.23-.749c-.7,0-1.109.33-1.109.8v.031c0,.567.853.807,1.781,1.106,1.155.36,2.455.884,2.455,2.3v.031c0,1.663-1.288,2.486-2.933,2.486A5.549,5.549,0,0,1,1149.131,402.225Z" fill="#fff"/>
    <path id="Trazado_4975" data-name="Trazado 4975" d="M1161.5,405.219l.613-1.349a2.2,2.2,0,0,0,1.062.3c.509,0,.823-.225,1.122-.915l-3.293-7.9h1.931l2.246,5.869,2.051-5.869h1.886l-3.143,8.13c-.628,1.617-1.333,2.215-2.606,2.215A3.686,3.686,0,0,1,1161.5,405.219Z" fill="#fff"/>
    <path id="Trazado_4976" data-name="Trazado 4976" d="M1174.772,399.32v-.028a3.773,3.773,0,0,1,3.669-4.1,3.266,3.266,0,0,1,2.692,1.393v-4.251h1.812v10.926h-1.812v-1.316a3.157,3.157,0,0,1-2.692,1.482A3.79,3.79,0,0,1,1174.772,399.32Zm6.392,0v-.028a2.373,2.373,0,0,0-2.289-2.532,2.317,2.317,0,0,0-2.276,2.532v.028a2.35,2.35,0,0,0,2.276,2.529A2.379,2.379,0,0,0,1181.164,399.32Z" fill="#fff"/>
    <path id="Trazado_4977" data-name="Trazado 4977" d="M1184.777,399.335v-.03a3.924,3.924,0,0,1,3.863-4.116c2.514,0,3.789,1.975,3.789,4.251,0,.166-.015.33-.031.508h-5.809a2.209,2.209,0,0,0,2.276,2.006,2.86,2.86,0,0,0,2.141-.943l1.063.943a4,4,0,0,1-3.235,1.485A3.947,3.947,0,0,1,1184.777,399.335Zm5.853-.582a2.051,2.051,0,0,0-2.005-2.082,2.138,2.138,0,0,0-2.049,2.082Z" fill="#fff"/>
    <path id="Trazado_4978" data-name="Trazado 4978" d="M1198.855,392.331h1.811v10.926h-1.811Z" fill="#fff"/>
    <path id="Trazado_4979" data-name="Trazado 4979" d="M1207.871,403.257v-.974a3.192,3.192,0,0,1-2.559,1.14,2.531,2.531,0,0,1-2.816-2.44v-.03c0-1.753,1.365-2.591,3.2-2.591a6.673,6.673,0,0,1,2.187.33v-.148c0-1.094-.69-1.694-1.947-1.694a5.535,5.535,0,0,0-2.261.495l-.493-1.454a6.8,6.8,0,0,1,3.01-.656c2.335,0,3.471,1.226,3.471,3.336v4.686Zm.044-3.309a5.2,5.2,0,0,0-1.812-.314c-1.136,0-1.808.465-1.808,1.229v.028c0,.749.672,1.168,1.525,1.168,1.2,0,2.1-.672,2.1-1.661Z" fill="#fff"/>
    <path id="Trazado_4980" data-name="Trazado 4980" d="M1005,420.37l1.109-1.318a4.818,4.818,0,0,0,3.3,1.361c1.14,0,1.858-.523,1.858-1.315v-.031c0-.748-.419-1.152-2.366-1.6-2.23-.539-3.487-1.2-3.487-3.129v-.028c0-1.8,1.5-3.041,3.576-3.041a5.816,5.816,0,0,1,3.8,1.319l-.989,1.392a4.747,4.747,0,0,0-2.843-1.078c-1.079,0-1.707.555-1.707,1.242v.03c0,.807.478,1.168,2.483,1.645,2.218.539,3.37,1.334,3.37,3.071v.028c0,1.962-1.543,3.13-3.743,3.13A6.461,6.461,0,0,1,1005,420.37Z" fill="#fff"/>
    <path id="Trazado_4981" data-name="Trazado 4981" d="M1014.645,417.989v-.031a4.215,4.215,0,0,1,8.428-.028v.028a4.134,4.134,0,0,1-4.236,4.119A4.09,4.09,0,0,1,1014.645,417.989Zm6.617,0v-.031a2.442,2.442,0,0,0-2.425-2.544,2.373,2.373,0,0,0-2.381,2.516v.028a2.45,2.45,0,0,0,2.412,2.545A2.383,2.383,0,0,0,1021.262,417.989Z" fill="#fff"/>
    <path id="Trazado_4982" data-name="Trazado 4982" d="M1024.484,417.989v-.031a4.077,4.077,0,0,1,4.1-4.131,3.948,3.948,0,0,1,3.157,1.362l-1.121,1.214a2.658,2.658,0,0,0-2.051-.989,2.372,2.372,0,0,0-2.277,2.516v.028a2.4,2.4,0,0,0,2.366,2.545,2.787,2.787,0,0,0,2.051-.986l1.094,1.075a4.144,4.144,0,0,1-7.322-2.6Z" fill="#fff"/>
    <path id="Trazado_4983" data-name="Trazado 4983" d="M1033.5,411.058h1.947v1.722H1033.5Zm.074,2.933h1.812v7.9h-1.812Z" fill="#fff"/>
    <path id="Trazado_4984" data-name="Trazado 4984" d="M1037.32,417.974v-.031a3.924,3.924,0,0,1,3.863-4.116c2.513,0,3.789,1.975,3.789,4.251,0,.167-.016.33-.031.509h-5.81a2.209,2.209,0,0,0,2.277,2.005,2.862,2.862,0,0,0,2.141-.943l1.062.943a4,4,0,0,1-3.234,1.485A3.946,3.946,0,0,1,1037.32,417.974Zm5.853-.583a2.051,2.051,0,0,0-2.006-2.082,2.137,2.137,0,0,0-2.048,2.082Z" fill="#fff"/>
    <path id="Trazado_4985" data-name="Trazado 4985" d="M1046.4,417.958v-.028a3.773,3.773,0,0,1,3.669-4.1,3.269,3.269,0,0,1,2.692,1.393v-4.251h1.811v10.926h-1.811V420.58a3.16,3.16,0,0,1-2.692,1.481A3.79,3.79,0,0,1,1046.4,417.958Zm6.392,0v-.028a2.374,2.374,0,0,0-2.289-2.532,2.317,2.317,0,0,0-2.276,2.532v.028a2.35,2.35,0,0,0,2.276,2.529A2.379,2.379,0,0,0,1052.79,417.958Z" fill="#fff"/>
    <path id="Trazado_4986" data-name="Trazado 4986" d="M1061.674,421.895v-.973a3.2,3.2,0,0,1-2.56,1.139,2.53,2.53,0,0,1-2.815-2.439v-.031c0-1.753,1.364-2.591,3.2-2.591a6.673,6.673,0,0,1,2.187.33v-.148c0-1.094-.69-1.694-1.947-1.694a5.519,5.519,0,0,0-2.261.5l-.492-1.454a6.793,6.793,0,0,1,3.009-.656c2.335,0,3.472,1.226,3.472,3.336v4.685Zm.043-3.308a5.171,5.171,0,0,0-1.811-.315c-1.137,0-1.809.466-1.809,1.229v.028c0,.749.672,1.168,1.525,1.168,1.2,0,2.1-.672,2.1-1.661Z" fill="#fff"/>
    <path id="Trazado_4987" data-name="Trazado 4987" d="M1065.226,417.958v-.028a3.772,3.772,0,0,1,3.668-4.1,3.271,3.271,0,0,1,2.693,1.393v-4.251h1.811v10.926h-1.811V420.58a3.16,3.16,0,0,1-2.693,1.481A3.79,3.79,0,0,1,1065.226,417.958Zm6.392,0v-.028a2.374,2.374,0,0,0-2.289-2.532,2.317,2.317,0,0,0-2.277,2.532v.028a2.351,2.351,0,0,0,2.277,2.529A2.38,2.38,0,0,0,1071.618,417.958Z" fill="#fff"/>
    <path id="Trazado_4988" data-name="Trazado 4988" d="M1079.753,417.958v-.028a3.773,3.773,0,0,1,3.669-4.1,3.269,3.269,0,0,1,2.692,1.393v-4.251h1.811v10.926h-1.811V420.58a3.16,3.16,0,0,1-2.692,1.481A3.79,3.79,0,0,1,1079.753,417.958Zm6.392,0v-.028a2.374,2.374,0,0,0-2.289-2.532,2.317,2.317,0,0,0-2.276,2.532v.028a2.35,2.35,0,0,0,2.276,2.529A2.379,2.379,0,0,0,1086.145,417.958Z" fill="#fff"/>
    <path id="Trazado_4989" data-name="Trazado 4989" d="M1089.758,417.974v-.031a3.924,3.924,0,0,1,3.863-4.116c2.514,0,3.789,1.975,3.789,4.251,0,.167-.015.33-.031.509h-5.809a2.208,2.208,0,0,0,2.276,2.005,2.862,2.862,0,0,0,2.141-.943l1.063.943a4,4,0,0,1-3.235,1.485A3.946,3.946,0,0,1,1089.758,417.974Zm5.853-.583a2.051,2.051,0,0,0-2.005-2.082,2.138,2.138,0,0,0-2.049,2.082Z" fill="#fff"/>
    <path id="Trazado_4990" data-name="Trazado 4990" d="M1103.836,410.969h1.811v10.926h-1.811Z" fill="#fff"/>
    <path id="Trazado_4991" data-name="Trazado 4991" d="M1112.852,421.895v-.973a3.2,3.2,0,0,1-2.56,1.139,2.53,2.53,0,0,1-2.815-2.439v-.031c0-1.753,1.365-2.591,3.2-2.591a6.674,6.674,0,0,1,2.187.33v-.148c0-1.094-.69-1.694-1.947-1.694a5.518,5.518,0,0,0-2.261.5l-.493-1.454a6.8,6.8,0,0,1,3.01-.656c2.334,0,3.471,1.226,3.471,3.336v4.685Zm.043-3.308a5.166,5.166,0,0,0-1.811-.315c-1.137,0-1.808.466-1.808,1.229v.028c0,.749.671,1.168,1.525,1.168,1.2,0,2.094-.672,2.094-1.661Z" fill="#fff"/>
    <path id="Trazado_4992" data-name="Trazado 4992" d="M1121.616,411.418h1.842v10.477h-1.842Z" fill="#fff"/>
    <path id="Trazado_4993" data-name="Trazado 4993" d="M1126.049,413.991h1.811v1.229a2.851,2.851,0,0,1,2.471-1.393,2.716,2.716,0,0,1,2.815,3.038v5.03h-1.811V417.4c0-1.226-.616-1.929-1.691-1.929a1.759,1.759,0,0,0-1.784,1.96v4.46h-1.811Z" fill="#fff"/>
    <path id="Trazado_4994" data-name="Trazado 4994" d="M1135.743,415.549h-1v-1.512h1v-.57a2.684,2.684,0,0,1,.641-1.959,2.4,2.4,0,0,1,1.783-.629,4.835,4.835,0,0,1,1.467.21v1.525a3.268,3.268,0,0,0-1.063-.194c-.69,0-1.048.375-1.048,1.2v.434h2.1v1.5h-2.064v6.346h-1.811Z" fill="#fff"/>
    <path id="Trazado_4995" data-name="Trazado 4995" d="M1140.382,417.989v-.031a4.215,4.215,0,0,1,8.428-.028v.028a4.134,4.134,0,0,1-4.235,4.119A4.091,4.091,0,0,1,1140.382,417.989Zm6.617,0v-.031a2.441,2.441,0,0,0-2.424-2.544,2.374,2.374,0,0,0-2.382,2.516v.028a2.451,2.451,0,0,0,2.412,2.545A2.382,2.382,0,0,0,1147,417.989Z" fill="#fff"/>
    <path id="Trazado_4996" data-name="Trazado 4996" d="M1150.658,413.991h1.812v1.783a2.8,2.8,0,0,1,2.8-1.931v1.916h-.1c-1.586,0-2.7,1.032-2.7,3.129v3.007h-1.812Z" fill="#fff"/>
    <path id="Trazado_4997" data-name="Trazado 4997" d="M1156.844,413.991h1.811v1.2a2.843,2.843,0,0,1,2.412-1.362,2.489,2.489,0,0,1,2.351,1.393,3.225,3.225,0,0,1,2.677-1.393c1.721,0,2.769,1.094,2.769,3.025v5.043h-1.811V417.4c0-1.257-.583-1.929-1.6-1.929-.986,0-1.691.687-1.691,1.96v4.46h-1.812v-4.5c0-1.229-.6-1.916-1.6-1.916s-1.691.749-1.691,1.975v4.445h-1.811Z" fill="#fff"/>
    <path id="Trazado_4998" data-name="Trazado 4998" d="M1175.909,421.895v-.973a3.2,3.2,0,0,1-2.56,1.139,2.531,2.531,0,0,1-2.816-2.439v-.031c0-1.753,1.365-2.591,3.2-2.591a6.673,6.673,0,0,1,2.187.33v-.148c0-1.094-.69-1.694-1.947-1.694a5.519,5.519,0,0,0-2.261.5l-.493-1.454a6.8,6.8,0,0,1,3.01-.656c2.335,0,3.472,1.226,3.472,3.336v4.685Zm.043-3.308a5.171,5.171,0,0,0-1.811-.315c-1.137,0-1.809.466-1.809,1.229v.028c0,.749.672,1.168,1.525,1.168,1.2,0,2.095-.672,2.095-1.661Z" fill="#fff"/>
    <path id="Trazado_4999" data-name="Trazado 4999" d="M1179.43,417.989v-.031a4.077,4.077,0,0,1,4.1-4.131,3.948,3.948,0,0,1,3.157,1.362l-1.121,1.214a2.658,2.658,0,0,0-2.052-.989,2.371,2.371,0,0,0-2.276,2.516v.028a2.4,2.4,0,0,0,2.366,2.545,2.787,2.787,0,0,0,2.051-.986l1.094,1.075a4.144,4.144,0,0,1-7.322-2.6Z" fill="#fff"/>
    <path id="Trazado_5000" data-name="Trazado 5000" d="M1188.446,411.058h1.947v1.722h-1.947Zm.074,2.933h1.811v7.9h-1.811Z" fill="#fff"/>
    <path id="Trazado_5001" data-name="Trazado 5001" d="M1192.266,417.989v-.031a4.215,4.215,0,0,1,8.428-.028v.028a4.134,4.134,0,0,1-4.236,4.119A4.09,4.09,0,0,1,1192.266,417.989Zm6.617,0v-.031a2.441,2.441,0,0,0-2.425-2.544,2.374,2.374,0,0,0-2.381,2.516v.028a2.45,2.45,0,0,0,2.412,2.545A2.383,2.383,0,0,0,1198.883,417.989Zm-1.571-7.455,1.648.733-1.842,1.722h-1.362Z" fill="#fff"/>
    <path id="Trazado_5002" data-name="Trazado 5002" d="M1202.539,413.991h1.811v1.229a2.852,2.852,0,0,1,2.471-1.393,2.716,2.716,0,0,1,2.816,3.038v5.03h-1.812V417.4c0-1.226-.616-1.929-1.691-1.929a1.759,1.759,0,0,0-1.784,1.96v4.46h-1.811Z" fill="#fff"/>
  </g>
</svg>
