<svg xmlns="http://www.w3.org/2000/svg" width="108.659" height="48.081" viewBox="0 0 108.659 48.081">
  <g id="Grupo_694" data-name="Grupo 694" transform="translate(-204.121 -214.919)">
    <rect id="Rectángulo_1607" data-name="Rectángulo 1607" width="15.679" height="15.679" rx="0.029" transform="translate(236.014 230.611) rotate(180)" fill="#fff"/>
    <rect id="Rectángulo_1608" data-name="Rectángulo 1608" width="15.679" height="15.679" rx="0.029" transform="translate(252.202 263) rotate(180)" fill="#fff"/>
    <rect id="Rectángulo_1609" data-name="Rectángulo 1609" width="15.679" height="15.679" rx="0.029" transform="translate(219.8 230.597) rotate(180)" fill="#fff"/>
    <path id="Trazado_4797" data-name="Trazado 4797" d="M219.4,231.16H204.519a.4.4,0,0,0-.4.4V246.44a.4.4,0,0,0,.4.4H219.4a.4.4,0,0,0,.4-.4V231.558A.4.4,0,0,0,219.4,231.16Zm-3.617,5.082H210.64v1.631h3.747v2.252H210.64v3.883h-2.5V233.99h7.649Z" fill="#fff"/>
    <g id="Grupo_692" data-name="Grupo 692">
      <path id="Trazado_4798" data-name="Trazado 4798" d="M243.835,236.495h-1.449V241.5h1.449a2.5,2.5,0,0,0,0-5.008Z" fill="#fff"/>
      <path id="Trazado_4799" data-name="Trazado 4799" d="M251.8,231.16H236.921a.4.4,0,0,0-.4.4v14.884a.4.4,0,0,0,.4.4H251.8a.4.4,0,0,0,.4-.4V231.557A.4.4,0,0,0,251.8,231.16Zm-7.97,12.848h-3.953V233.99h3.953a5.009,5.009,0,0,1,0,10.018Z" fill="#fff"/>
    </g>
    <path id="Trazado_4800" data-name="Trazado 4800" d="M235.617,231.16H220.733a.4.4,0,0,0-.4.4v14.884a.4.4,0,0,0,.4.4h14.884a.4.4,0,0,0,.4-.4V231.557A.4.4,0,0,0,235.617,231.16Zm-6.894,10.3a2.5,2.5,0,0,0,2.073-1.1l1.786,1.786a5.008,5.008,0,1,1,0-6.383l-1.786,1.786a2.5,2.5,0,1,0-2.073,3.91Z" fill="#fff"/>
    <g id="Grupo_693" data-name="Grupo 693">
      <path id="Trazado_4801" data-name="Trazado 4801" d="M257.279,242.006a3.483,3.483,0,0,1,6-2.235l-.773.726a2.259,2.259,0,0,0-1.719-.754,2.263,2.263,0,1,0,0,4.525,2.237,2.237,0,0,0,1.719-.763l.773.736a3.483,3.483,0,0,1-6-2.235Z" fill="#fff"/>
      <path id="Trazado_4802" data-name="Trazado 4802" d="M264.158,238.814a.7.7,0,0,1,.736-.69.685.685,0,0,1,.736.663.737.737,0,0,1-1.472.027Zm.157,1.5h1.149v4.912h-1.149Z" fill="#fff"/>
      <path id="Trazado_4803" data-name="Trazado 4803" d="M271.727,240.313v4.912h-1.094V244.6a2.007,2.007,0,0,1-1.582.69,1.943,1.943,0,0,1-2.116-2.171v-2.8h1.15v2.649c0,.892.423,1.315,1.15,1.315a1.294,1.294,0,0,0,1.343-1.48v-2.484Z" fill="#fff"/>
      <path id="Trazado_4804" data-name="Trazado 4804" d="M278.045,238.4v6.825h-1.1v-.635a2.027,2.027,0,0,1-1.628.7,2.516,2.516,0,0,1,0-5.031,2.015,2.015,0,0,1,1.582.662V238.4Zm-1.131,4.369a1.464,1.464,0,1,0-1.462,1.536A1.436,1.436,0,0,0,276.914,242.769Z" fill="#fff"/>
      <path id="Trazado_4805" data-name="Trazado 4805" d="M283.664,242.346v2.879h-1.085v-.6a1.741,1.741,0,0,1-1.545.662c-1.122,0-1.831-.616-1.831-1.471,0-.819.552-1.463,2.042-1.463h1.27v-.073c0-.672-.405-1.067-1.224-1.067a2.434,2.434,0,0,0-1.49.487l-.45-.837a3.449,3.449,0,0,1,2.078-.607C282.846,240.258,283.664,240.93,283.664,242.346Zm-1.149,1.343v-.571h-1.187c-.782,0-.993.295-.993.654,0,.413.349.68.938.68A1.253,1.253,0,0,0,282.515,243.689Z" fill="#fff"/>
      <path id="Trazado_4806" data-name="Trazado 4806" d="M289.991,238.4v6.825h-1.1v-.635a2.027,2.027,0,0,1-1.628.7,2.516,2.516,0,0,1,0-5.031,2.015,2.015,0,0,1,1.582.662V238.4Zm-1.131,4.369A1.464,1.464,0,1,0,287.4,244.3,1.436,1.436,0,0,0,288.86,242.769Z" fill="#fff"/>
      <path id="Trazado_4807" data-name="Trazado 4807" d="M295.61,242.346v2.879h-1.085v-.6a1.741,1.741,0,0,1-1.545.662c-1.122,0-1.831-.616-1.831-1.471,0-.819.552-1.463,2.042-1.463h1.27v-.073c0-.672-.4-1.067-1.224-1.067a2.434,2.434,0,0,0-1.49.487l-.45-.837a3.449,3.449,0,0,1,2.078-.607C294.792,240.258,295.61,240.93,295.61,242.346Zm-1.149,1.343v-.571h-1.187c-.782,0-.993.295-.993.654,0,.413.349.68.938.68A1.253,1.253,0,0,0,294.461,243.689Z" fill="#fff"/>
      <path id="Trazado_4808" data-name="Trazado 4808" d="M301.919,242.41v2.815h-1.15v-2.667c0-.874-.432-1.3-1.168-1.3a1.3,1.3,0,0,0-1.37,1.48v2.484h-1.15v-4.912h1.1v.635a2.133,2.133,0,0,1,1.692-.69A1.92,1.92,0,0,1,301.919,242.41Z" fill="#fff"/>
      <path id="Trazado_4809" data-name="Trazado 4809" d="M304.429,238.382h1.352l-1.6,1.26h-.993Zm-1.048,1.931h1.149v4.912h-1.149Z" fill="#fff"/>
      <path id="Trazado_4810" data-name="Trazado 4810" d="M310.149,242.346v2.879h-1.085v-.6a1.74,1.74,0,0,1-1.545.662c-1.122,0-1.83-.616-1.83-1.471,0-.819.552-1.463,2.042-1.463H309v-.073c0-.672-.4-1.067-1.223-1.067a2.434,2.434,0,0,0-1.49.487l-.451-.837a3.452,3.452,0,0,1,2.079-.607C309.331,240.258,310.149,240.93,310.149,242.346ZM309,243.689v-.571h-1.187c-.781,0-.993.295-.993.654,0,.413.35.68.938.68A1.252,1.252,0,0,0,309,243.689Z" fill="#fff"/>
      <path id="Trazado_4811" data-name="Trazado 4811" d="M262.227,249.51l-2.3,5.307a1.9,1.9,0,0,1-1.894,1.453,2.035,2.035,0,0,1-1.316-.451l.46-.846a1.245,1.245,0,0,0,.846.34c.4,0,.644-.193.865-.68l.083-.193-2.143-4.93h1.195l1.545,3.633,1.555-3.633Z" fill="#fff"/>
      <path id="Trazado_4812" data-name="Trazado 4812" d="M265.593,247.983h2.814a3.231,3.231,0,1,1,0,6.438h-2.814Zm2.759,5.427a2.213,2.213,0,1,0,0-4.415h-1.564v4.415Z" fill="#fff"/>
      <path id="Trazado_4813" data-name="Trazado 4813" d="M277.677,252.333h-3.854a1.487,1.487,0,0,0,1.592,1.178,1.757,1.757,0,0,0,1.333-.534l.617.708a2.758,2.758,0,0,1-4.691-1.719,2.442,2.442,0,0,1,2.538-2.511,2.4,2.4,0,0,1,2.484,2.538C277.7,252.085,277.686,252.223,277.677,252.333Zm-3.863-.763H276.6a1.337,1.337,0,0,0-1.389-1.2A1.358,1.358,0,0,0,273.814,251.57Z" fill="#fff"/>
      <path id="Trazado_4814" data-name="Trazado 4814" d="M278.238,253.934l.441-.874a3.307,3.307,0,0,0,1.711.488c.726,0,1.03-.2,1.03-.543,0-.938-3.035-.055-3.035-2.014,0-.929.837-1.536,2.161-1.536a3.909,3.909,0,0,1,1.84.423l-.442.874a2.687,2.687,0,0,0-1.407-.368c-.7,0-1.03.23-1.03.551,0,.994,3.035.111,3.035,2.033,0,.92-.846,1.518-2.226,1.518A3.906,3.906,0,0,1,278.238,253.934Z" fill="#fff"/>
      <path id="Trazado_4815" data-name="Trazado 4815" d="M287.646,251.542v2.879h-1.085v-.6a1.742,1.742,0,0,1-1.545.663c-1.122,0-1.831-.617-1.831-1.472,0-.819.552-1.462,2.042-1.462H286.5v-.074c0-.671-.4-1.067-1.223-1.067a2.429,2.429,0,0,0-1.49.488l-.45-.837a3.449,3.449,0,0,1,2.078-.607C286.828,249.455,287.646,250.126,287.646,251.542Zm-1.15,1.343v-.57H285.31c-.782,0-.993.294-.993.653,0,.414.349.681.938.681A1.251,1.251,0,0,0,286.5,252.885Z" fill="#fff"/>
      <path id="Trazado_4816" data-name="Trazado 4816" d="M291.959,249.455v1.094a1.491,1.491,0,0,0-.267-.027,1.338,1.338,0,0,0-1.425,1.517v2.382h-1.15V249.51h1.1v.717A1.931,1.931,0,0,1,291.959,249.455Z" fill="#fff"/>
      <path id="Trazado_4817" data-name="Trazado 4817" d="M295.776,249.455v1.094a1.491,1.491,0,0,0-.267-.027,1.339,1.339,0,0,0-1.426,1.517v2.382h-1.149V249.51h1.094v.717A1.933,1.933,0,0,1,295.776,249.455Z" fill="#fff"/>
      <path id="Trazado_4818" data-name="Trazado 4818" d="M296.3,251.966a2.619,2.619,0,1,1,2.613,2.52A2.472,2.472,0,0,1,296.3,251.966Zm4.075,0a1.46,1.46,0,1,0-1.462,1.536A1.43,1.43,0,0,0,300.374,251.966Z" fill="#fff"/>
      <path id="Trazado_4819" data-name="Trazado 4819" d="M302.636,247.6h1.15v6.824h-1.15Z" fill="#fff"/>
      <path id="Trazado_4820" data-name="Trazado 4820" d="M305.293,247.6h1.15v6.824h-1.15Z" fill="#fff"/>
      <path id="Trazado_4821" data-name="Trazado 4821" d="M307.546,251.966a2.619,2.619,0,1,1,2.612,2.52A2.472,2.472,0,0,1,307.546,251.966Zm4.075,0a1.46,1.46,0,1,0-1.463,1.536A1.43,1.43,0,0,0,311.621,251.966Z" fill="#fff"/>
    </g>
  </g>
</svg>
