<svg xmlns="http://www.w3.org/2000/svg" width="161.295" height="30.017" viewBox="0 0 161.295 30.017">
  <g id="Grupo_695" data-name="Grupo 695" transform="translate(-227.705 -376.356)">
    <path id="Trazado_4822" data-name="Trazado 4822" d="M268.039,376.786H272c2.34,0,3.817,1.337,3.817,3.359v.028c0,2.252-1.807,3.429-4.017,3.429H269.8v3.23h-1.765Zm3.816,5.224c1.334,0,2.167-.744,2.167-1.792v-.031c0-1.177-.847-1.792-2.167-1.792H269.8v3.615Z" fill="#fff"/>
    <path id="Trazado_4823" data-name="Trazado 4823" d="M277.436,379.255h1.735v1.707a2.691,2.691,0,0,1,2.684-1.851v1.837h-.1c-1.52,0-2.582.992-2.582,3v2.884h-1.735Z" fill="#fff"/>
    <path id="Trazado_4824" data-name="Trazado 4824" d="M282.694,383.071v-.028a3.762,3.762,0,0,1,3.7-3.946c2.41,0,3.63,1.893,3.63,4.075,0,.158-.014.318-.028.489h-5.568a2.115,2.115,0,0,0,2.181,1.921,2.753,2.753,0,0,0,2.052-.9l1.019.9a3.829,3.829,0,0,1-3.1,1.421A3.781,3.781,0,0,1,282.694,383.071Zm5.612-.559a1.97,1.97,0,0,0-1.924-1.994,2.05,2.05,0,0,0-1.965,1.994Z" fill="#fff"/>
    <path id="Trazado_4825" data-name="Trazado 4825" d="M291.173,385.84l.775-1.176a4.249,4.249,0,0,0,2.483.935c.745,0,1.176-.317,1.176-.82v-.028c0-.587-.8-.789-1.693-1.062-1.119-.314-2.368-.775-2.368-2.224v-.028a2.417,2.417,0,0,1,2.7-2.311,5.252,5.252,0,0,1,2.783.862l-.688,1.233a4.406,4.406,0,0,0-2.139-.717c-.674,0-1.061.315-1.061.762v.028c0,.544.818.775,1.707,1.061,1.1.343,2.354.846,2.354,2.21v.029c0,1.592-1.235,2.381-2.813,2.381A5.323,5.323,0,0,1,291.173,385.84Z" fill="#fff"/>
    <path id="Trazado_4826" data-name="Trazado 4826" d="M299,376.443h1.865v1.649H299Zm.071,2.812h1.737v7.577h-1.737Z" fill="#fff"/>
    <path id="Trazado_4827" data-name="Trazado 4827" d="M302.7,383.057v-.028a3.616,3.616,0,0,1,3.515-3.932,3.14,3.14,0,0,1,2.583,1.334v-4.075h1.736v10.476h-1.736v-1.264a3.034,3.034,0,0,1-2.583,1.421A3.632,3.632,0,0,1,302.7,383.057Zm6.126,0v-.028a2.272,2.272,0,0,0-2.194-2.423,2.221,2.221,0,0,0-2.182,2.423v.028a2.257,2.257,0,0,0,2.182,2.427A2.284,2.284,0,0,0,308.822,383.057Z" fill="#fff"/>
    <path id="Trazado_4828" data-name="Trazado 4828" d="M312.294,383.071v-.028A3.762,3.762,0,0,1,316,379.1c2.409,0,3.629,1.893,3.629,4.075,0,.158-.014.318-.028.489h-5.567a2.113,2.113,0,0,0,2.18,1.921,2.752,2.752,0,0,0,2.052-.9l1.019.9a3.828,3.828,0,0,1-3.1,1.421A3.78,3.78,0,0,1,312.294,383.071Zm5.611-.559a1.968,1.968,0,0,0-1.923-1.994,2.049,2.049,0,0,0-1.965,1.994Z" fill="#fff"/>
    <path id="Trazado_4829" data-name="Trazado 4829" d="M321.389,379.255h1.735v1.176a2.731,2.731,0,0,1,2.368-1.334,2.6,2.6,0,0,1,2.7,2.913v4.822h-1.735v-4.3c0-1.177-.589-1.851-1.622-1.851a1.685,1.685,0,0,0-1.708,1.879v4.277h-1.735Z" fill="#fff"/>
    <path id="Trazado_4830" data-name="Trazado 4830" d="M329.881,383.085v-.028a3.909,3.909,0,0,1,3.932-3.96,3.783,3.783,0,0,1,3.028,1.306l-1.076,1.163a2.551,2.551,0,0,0-1.966-.946,2.273,2.273,0,0,0-2.181,2.409v.028a2.305,2.305,0,0,0,2.267,2.441,2.668,2.668,0,0,0,1.966-.947l1.047,1.031A3.825,3.825,0,0,1,333.8,387,3.869,3.869,0,0,1,329.881,383.085Z" fill="#fff"/>
    <path id="Trazado_4831" data-name="Trazado 4831" d="M338.53,376.443H340.4v1.649H338.53Zm.072,2.812h1.737v7.577H338.6Z" fill="#fff"/>
    <path id="Trazado_4832" data-name="Trazado 4832" d="M347.246,386.832V385.9a3.059,3.059,0,0,1-2.453,1.09,2.425,2.425,0,0,1-2.7-2.339v-.028c0-1.68,1.306-2.483,3.071-2.483a6.321,6.321,0,0,1,2.094.317v-.143c0-1.047-.66-1.623-1.865-1.623a5.3,5.3,0,0,0-2.167.474l-.473-1.393a6.493,6.493,0,0,1,2.884-.631c2.239,0,3.33,1.176,3.33,3.2v4.491Zm.043-3.171a4.987,4.987,0,0,0-1.737-.3c-1.089,0-1.735.443-1.735,1.174v.03c0,.717.646,1.118,1.463,1.118,1.149,0,2.009-.646,2.009-1.592Z" fill="#fff"/>
    <path id="Trazado_4833" data-name="Trazado 4833" d="M354.969,383.057v-.028a3.616,3.616,0,0,1,3.515-3.932,3.14,3.14,0,0,1,2.583,1.334v-4.075H362.8v10.476h-1.736v-1.264a3.034,3.034,0,0,1-2.583,1.421A3.633,3.633,0,0,1,354.969,383.057Zm6.127,0v-.028a2.273,2.273,0,0,0-2.2-2.423,2.221,2.221,0,0,0-2.182,2.423v.028a2.257,2.257,0,0,0,2.182,2.427A2.285,2.285,0,0,0,361.1,383.057Z" fill="#fff"/>
    <path id="Trazado_4834" data-name="Trazado 4834" d="M364.567,383.071v-.028a3.762,3.762,0,0,1,3.7-3.946c2.409,0,3.63,1.893,3.63,4.075,0,.158-.015.318-.029.489H366.3a2.114,2.114,0,0,0,2.18,1.921,2.752,2.752,0,0,0,2.052-.9l1.02.9a3.831,3.831,0,0,1-3.1,1.421A3.78,3.78,0,0,1,364.567,383.071Zm5.611-.559a1.968,1.968,0,0,0-1.922-1.994,2.049,2.049,0,0,0-1.966,1.994Z" fill="#fff"/>
    <path id="Trazado_4835" data-name="Trazado 4835" d="M378.072,376.356h1.737v10.476h-1.737Z" fill="#fff"/>
    <path id="Trazado_4836" data-name="Trazado 4836" d="M386.715,386.832V385.9a3.058,3.058,0,0,1-2.453,1.09,2.424,2.424,0,0,1-2.7-2.339v-.028c0-1.68,1.306-2.483,3.071-2.483a6.319,6.319,0,0,1,2.093.317v-.143c0-1.047-.66-1.623-1.864-1.623a5.291,5.291,0,0,0-2.167.474l-.473-1.393a6.493,6.493,0,0,1,2.884-.631c2.238,0,3.329,1.176,3.329,3.2v4.491Zm.044-3.171a4.992,4.992,0,0,0-1.737-.3c-1.09,0-1.736.443-1.736,1.174v.03c0,.717.646,1.118,1.463,1.118,1.149,0,2.01-.646,2.01-1.592Z" fill="#fff"/>
    <path id="Trazado_4837" data-name="Trazado 4837" d="M227.705,394.03h4.477a4.045,4.045,0,0,1,2.9,1.005,3.038,3.038,0,0,1,.833,2.168v.028a3.015,3.015,0,0,1-2.4,3.042l2.713,3.8h-2.081l-2.469-3.5h-2.208v3.5h-1.766Zm4.348,4.979c1.262,0,2.065-.66,2.065-1.677v-.03c0-1.076-.773-1.663-2.079-1.663h-2.568v3.37Z" fill="#fff"/>
    <path id="Trazado_4838" data-name="Trazado 4838" d="M237.333,400.315v-.028a3.762,3.762,0,0,1,3.7-3.946c2.409,0,3.629,1.893,3.629,4.075,0,.157-.014.317-.028.489H239.07a2.113,2.113,0,0,0,2.18,1.921,2.753,2.753,0,0,0,2.052-.9l1.019.9a3.828,3.828,0,0,1-3.1,1.421A3.78,3.78,0,0,1,237.333,400.315Zm5.611-.559a1.968,1.968,0,0,0-1.924-1.994,2.048,2.048,0,0,0-1.964,1.994Z" fill="#fff"/>
    <path id="Trazado_4839" data-name="Trazado 4839" d="M246.428,396.5h1.735v1.264a3.031,3.031,0,0,1,2.569-1.421,3.635,3.635,0,0,1,3.53,3.932v.028a3.627,3.627,0,0,1-3.53,3.932,3.09,3.09,0,0,1-2.569-1.334v3.474h-1.735Zm6.069,3.8v-.028a2.243,2.243,0,0,0-2.167-2.424,2.284,2.284,0,0,0-2.21,2.424v.028a2.277,2.277,0,0,0,2.21,2.426A2.219,2.219,0,0,0,252.5,400.3Z" fill="#fff"/>
    <path id="Trazado_4840" data-name="Trazado 4840" d="M255.968,401.32V396.5H257.7V400.8c0,1.176.588,1.85,1.62,1.85a1.685,1.685,0,0,0,1.709-1.878V396.5h1.736v7.578h-1.736V402.9a2.731,2.731,0,0,1-2.369,1.334A2.6,2.6,0,0,1,255.968,401.32Zm4.19-8.136,1.578.7-1.765,1.651h-1.306Z" fill="#fff"/>
    <path id="Trazado_4841" data-name="Trazado 4841" d="M266.7,402.9v1.177h-1.736V393.6H266.7v4.162a3.028,3.028,0,0,1,2.568-1.421,3.635,3.635,0,0,1,3.53,3.932v.028a3.627,3.627,0,0,1-3.53,3.932A3.089,3.089,0,0,1,266.7,402.9Zm4.333-2.6v-.028a2.243,2.243,0,0,0-2.166-2.424,2.284,2.284,0,0,0-2.211,2.424v.028a2.278,2.278,0,0,0,2.211,2.426A2.219,2.219,0,0,0,271.032,400.3Z" fill="#fff"/>
    <path id="Trazado_4842" data-name="Trazado 4842" d="M274.69,393.6h1.737v10.476H274.69Z" fill="#fff"/>
    <path id="Trazado_4843" data-name="Trazado 4843" d="M278.727,393.687h1.867v1.649h-1.867Zm.072,2.811h1.737v7.578H278.8Z" fill="#fff"/>
    <path id="Trazado_4844" data-name="Trazado 4844" d="M282.392,400.329V400.3a3.909,3.909,0,0,1,3.932-3.96,3.783,3.783,0,0,1,3.028,1.306l-1.076,1.163a2.552,2.552,0,0,0-1.966-.947,2.274,2.274,0,0,0-2.181,2.41v.028a2.305,2.305,0,0,0,2.267,2.441,2.668,2.668,0,0,0,1.966-.947l1.047,1.031a3.825,3.825,0,0,1-3.1,1.421A3.869,3.869,0,0,1,282.392,400.329Z" fill="#fff"/>
    <path id="Trazado_4845" data-name="Trazado 4845" d="M295.648,404.076v-.933a3.059,3.059,0,0,1-2.453,1.09,2.425,2.425,0,0,1-2.7-2.34v-.028c0-1.679,1.306-2.482,3.071-2.482a6.341,6.341,0,0,1,2.1.317v-.143c0-1.048-.662-1.623-1.867-1.623a5.29,5.29,0,0,0-2.166.474l-.474-1.393a6.5,6.5,0,0,1,2.885-.632c2.238,0,3.329,1.177,3.329,3.2v4.491Zm.044-3.171a4.967,4.967,0,0,0-1.737-.3c-1.09,0-1.736.444-1.736,1.174v.031c0,.716.646,1.118,1.463,1.118,1.149,0,2.01-.646,2.01-1.593Z" fill="#fff"/>
    <path id="Trazado_4846" data-name="Trazado 4846" d="M303.371,400.3v-.028a3.617,3.617,0,0,1,3.515-3.932,3.142,3.142,0,0,1,2.584,1.334V393.6H311.2v10.476H309.47v-1.264a3.037,3.037,0,0,1-2.584,1.421A3.633,3.633,0,0,1,303.371,400.3Zm6.127,0v-.028a2.273,2.273,0,0,0-2.195-2.424,2.221,2.221,0,0,0-2.182,2.424v.028a2.256,2.256,0,0,0,2.182,2.426A2.284,2.284,0,0,0,309.5,400.3Z" fill="#fff"/>
    <path id="Trazado_4847" data-name="Trazado 4847" d="M312.968,400.315v-.028a3.762,3.762,0,0,1,3.7-3.946c2.409,0,3.629,1.893,3.629,4.075,0,.157-.014.317-.028.489H314.7a2.113,2.113,0,0,0,2.18,1.921,2.753,2.753,0,0,0,2.052-.9l1.019.9a3.828,3.828,0,0,1-3.1,1.421A3.78,3.78,0,0,1,312.968,400.315Zm5.611-.559a1.967,1.967,0,0,0-1.922-1.994,2.048,2.048,0,0,0-1.966,1.994Z" fill="#fff"/>
    <path id="Trazado_4848" data-name="Trazado 4848" d="M322.164,393.6H323.9v10.476h-1.737Z" fill="#fff"/>
    <path id="Trazado_4849" data-name="Trazado 4849" d="M330.685,394.03h7.446v1.578H332.45v2.612h5.035V399.8H332.45v2.7H338.2v1.579h-7.518Z" fill="#fff"/>
    <path id="Trazado_4850" data-name="Trazado 4850" d="M339.549,400.329V400.3a3.909,3.909,0,0,1,3.932-3.96,3.783,3.783,0,0,1,3.028,1.306l-1.076,1.163a2.552,2.552,0,0,0-1.966-.947,2.274,2.274,0,0,0-2.181,2.41v.028a2.305,2.305,0,0,0,2.267,2.441,2.668,2.668,0,0,0,1.966-.947l1.047,1.031a3.825,3.825,0,0,1-3.1,1.421A3.869,3.869,0,0,1,339.549,400.329Z" fill="#fff"/>
    <path id="Trazado_4851" data-name="Trazado 4851" d="M348.084,401.32V396.5h1.737V400.8c0,1.176.589,1.85,1.621,1.85a1.685,1.685,0,0,0,1.709-1.878V396.5h1.735v7.578h-1.735V402.9a2.734,2.734,0,0,1-2.369,1.334A2.6,2.6,0,0,1,348.084,401.32Z" fill="#fff"/>
    <path id="Trazado_4852" data-name="Trazado 4852" d="M361.713,404.076v-.933a3.058,3.058,0,0,1-2.453,1.09,2.424,2.424,0,0,1-2.7-2.34v-.028c0-1.679,1.306-2.482,3.071-2.482a6.339,6.339,0,0,1,2.1.317v-.143c0-1.048-.662-1.623-1.866-1.623a5.291,5.291,0,0,0-2.167.474l-.473-1.393a6.5,6.5,0,0,1,2.884-.632c2.238,0,3.329,1.177,3.329,3.2v4.491Zm.044-3.171a4.967,4.967,0,0,0-1.737-.3c-1.09,0-1.736.444-1.736,1.174v.031c0,.716.646,1.118,1.464,1.118,1.148,0,2.009-.646,2.009-1.593Z" fill="#fff"/>
    <path id="Trazado_4853" data-name="Trazado 4853" d="M365.127,400.3v-.028a3.617,3.617,0,0,1,3.515-3.932,3.143,3.143,0,0,1,2.584,1.334V393.6h1.735v10.476h-1.735v-1.264a3.037,3.037,0,0,1-2.584,1.421A3.633,3.633,0,0,1,365.127,400.3Zm6.127,0v-.028a2.273,2.273,0,0,0-2.2-2.424,2.222,2.222,0,0,0-2.182,2.424v.028a2.256,2.256,0,0,0,2.182,2.426A2.284,2.284,0,0,0,371.254,400.3Z" fill="#fff"/>
    <path id="Trazado_4854" data-name="Trazado 4854" d="M374.723,400.329V400.3a4.041,4.041,0,0,1,8.079-.028v.028a3.96,3.96,0,0,1-4.06,3.946A3.919,3.919,0,0,1,374.723,400.329Zm6.343,0V400.3a2.341,2.341,0,0,0-2.324-2.438,2.273,2.273,0,0,0-2.282,2.41v.028a2.349,2.349,0,0,0,2.31,2.441A2.287,2.287,0,0,0,381.066,400.329Z" fill="#fff"/>
    <path id="Trazado_4855" data-name="Trazado 4855" d="M384.581,396.5h1.736v1.708A2.689,2.689,0,0,1,389,396.355v1.837h-.1c-1.521,0-2.582.991-2.582,3v2.885h-1.736Z" fill="#fff"/>
  </g>
</svg>
