<svg xmlns="http://www.w3.org/2000/svg" width="140" height="28.541" viewBox="0 0 140 28.541">
  <g id="Grupo_697" data-name="Grupo 697" transform="translate(-638 -375.617)">
    <path id="Trazado_4913" data-name="Trazado 4913" d="M638,385.14l1.073-1.277a4.674,4.674,0,0,0,3.2,1.319c1.1,0,1.8-.507,1.8-1.274v-.031c0-.725-.406-1.114-2.29-1.551-2.158-.521-3.376-1.159-3.376-3.028v-.028c0-1.739,1.449-2.943,3.463-2.943a5.626,5.626,0,0,1,3.682,1.277l-.957,1.348a4.6,4.6,0,0,0-2.753-1.046c-1.044,0-1.652.538-1.652,1.2v.028c0,.783.464,1.13,2.4,1.6,2.145.522,3.262,1.289,3.262,2.972v.028c0,1.9-1.493,3.028-3.624,3.028A6.257,6.257,0,0,1,638,385.14Z" fill="#fff"/>
    <path id="Trazado_4914" data-name="Trazado 4914" d="M647.326,382.82v-.029a3.8,3.8,0,0,1,3.739-3.986c2.435,0,3.667,1.914,3.667,4.116,0,.161-.014.319-.03.493h-5.623a2.138,2.138,0,0,0,2.2,1.943,2.773,2.773,0,0,0,2.072-.914l1.029.914a3.872,3.872,0,0,1-3.13,1.435A3.819,3.819,0,0,1,647.326,382.82Zm5.666-.564a1.986,1.986,0,0,0-1.941-2.016,2.072,2.072,0,0,0-1.986,2.016Z" fill="#fff"/>
    <path id="Trazado_4915" data-name="Trazado 4915" d="M656.071,382.834V382.8a3.947,3.947,0,0,1,3.97-4,3.822,3.822,0,0,1,3.059,1.319l-1.087,1.173a2.581,2.581,0,0,0-1.986-.956,2.3,2.3,0,0,0-2.2,2.436v.028a2.329,2.329,0,0,0,2.291,2.464,2.693,2.693,0,0,0,1.984-.955l1.059,1.043a4.012,4.012,0,0,1-7.087-2.523Z" fill="#fff"/>
    <path id="Trazado_4916" data-name="Trazado 4916" d="M664.759,378.966h1.754v1.722a2.717,2.717,0,0,1,2.71-1.869v1.855h-.1c-1.537,0-2.609,1-2.609,3.031v2.912h-1.754Z" fill="#fff"/>
    <path id="Trazado_4917" data-name="Trazado 4917" d="M670.059,382.82v-.029a3.8,3.8,0,0,1,3.74-3.986c2.434,0,3.666,1.914,3.666,4.116,0,.161-.014.319-.029.493h-5.623a2.137,2.137,0,0,0,2.2,1.943,2.775,2.775,0,0,0,2.072-.914l1.029.914a3.875,3.875,0,0,1-3.131,1.435A3.819,3.819,0,0,1,670.059,382.82Zm5.667-.564a1.988,1.988,0,0,0-1.941-2.016,2.071,2.071,0,0,0-1.986,2.016Z" fill="#fff"/>
    <path id="Trazado_4918" data-name="Trazado 4918" d="M679.587,384.5v-4.029h-.97v-1.505h.97v-2.1h1.753v2.1H683.4v1.505H681.34v3.755a.835.835,0,0,0,.943.956,2.381,2.381,0,0,0,1.087-.259v1.432a3.059,3.059,0,0,1-1.58.392A1.961,1.961,0,0,1,679.587,384.5Z" fill="#fff"/>
    <path id="Trazado_4919" data-name="Trazado 4919" d="M689.843,386.617v-.942a3.093,3.093,0,0,1-2.478,1.1,2.45,2.45,0,0,1-2.725-2.363v-.031c0-1.694,1.319-2.506,3.1-2.506a6.455,6.455,0,0,1,2.116.318v-.143c0-1.06-.666-1.638-1.883-1.638a5.382,5.382,0,0,0-2.19.476l-.477-1.4a6.558,6.558,0,0,1,2.913-.637c2.261,0,3.362,1.187,3.362,3.231v4.536Zm.043-3.2a5,5,0,0,0-1.753-.3c-1.1,0-1.754.448-1.754,1.19v.028c0,.724.653,1.13,1.479,1.13,1.159,0,2.028-.654,2.028-1.61Z" fill="#fff"/>
    <path id="Trazado_4920" data-name="Trazado 4920" d="M693.661,378.966h1.754v1.722a2.717,2.717,0,0,1,2.71-1.869v1.855h-.1c-1.537,0-2.609,1-2.609,3.031v2.912h-1.754Z" fill="#fff"/>
    <path id="Trazado_4921" data-name="Trazado 4921" d="M699.743,378.966H701.5v7.651h-1.754Zm1.682-3.349,1.594.71-1.783,1.666h-1.318Z" fill="#fff"/>
    <path id="Trazado_4922" data-name="Trazado 4922" d="M708.464,386.617v-.942a3.09,3.09,0,0,1-2.478,1.1,2.449,2.449,0,0,1-2.724-2.363v-.031c0-1.694,1.319-2.506,3.1-2.506a6.467,6.467,0,0,1,2.117.318v-.143c0-1.06-.667-1.638-1.885-1.638a5.381,5.381,0,0,0-2.189.476l-.478-1.4a6.57,6.57,0,0,1,2.914-.637c2.261,0,3.36,1.187,3.36,3.231v4.536Zm.044-3.2a5.012,5.012,0,0,0-1.753-.3c-1.1,0-1.754.448-1.754,1.19v.028c0,.724.653,1.13,1.479,1.13,1.158,0,2.028-.654,2.028-1.61Z" fill="#fff"/>
    <path id="Trazado_4923" data-name="Trazado 4923" d="M716.83,376.474h1.652l5.433,7.014v-7.014h1.753v10.143h-1.491l-5.593-7.217v7.217H716.83Z" fill="#fff"/>
    <path id="Trazado_4924" data-name="Trazado 4924" d="M732.747,386.617v-.942a3.093,3.093,0,0,1-2.478,1.1,2.448,2.448,0,0,1-2.723-2.363v-.031c0-1.694,1.316-2.506,3.1-2.506a6.447,6.447,0,0,1,2.114.318v-.143c0-1.06-.665-1.638-1.883-1.638a5.369,5.369,0,0,0-2.188.476l-.479-1.4a6.554,6.554,0,0,1,2.912-.637c2.261,0,3.364,1.187,3.364,3.231v4.536Zm.045-3.2a5.021,5.021,0,0,0-1.753-.3c-1.1,0-1.757.448-1.757,1.19v.028c0,.724.654,1.13,1.48,1.13,1.159,0,2.03-.654,2.03-1.61Z" fill="#fff"/>
    <path id="Trazado_4925" data-name="Trazado 4925" d="M736.147,382.834V382.8a3.946,3.946,0,0,1,3.969-4,3.824,3.824,0,0,1,3.059,1.319l-1.088,1.173a2.575,2.575,0,0,0-1.985-.956,2.3,2.3,0,0,0-2.2,2.436v.028a2.328,2.328,0,0,0,2.289,2.464,2.693,2.693,0,0,0,1.984-.955l1.058,1.043a4.011,4.011,0,0,1-7.085-2.523Z" fill="#fff"/>
    <path id="Trazado_4926" data-name="Trazado 4926" d="M744.864,376.124h1.883v1.666h-1.883Zm.073,2.842h1.754v7.651h-1.754Z" fill="#fff"/>
    <path id="Trazado_4927" data-name="Trazado 4927" d="M748.557,382.834V382.8a4.08,4.08,0,0,1,8.158-.028v.028a4,4,0,0,1-4.1,3.987A3.957,3.957,0,0,1,748.557,382.834Zm6.4,0V382.8a2.367,2.367,0,0,0-2.348-2.464,2.3,2.3,0,0,0-2.3,2.436v.028a2.37,2.37,0,0,0,2.332,2.464A2.308,2.308,0,0,0,754.962,382.834Z" fill="#fff"/>
    <path id="Trazado_4928" data-name="Trazado 4928" d="M758.489,378.966h1.753v1.187a2.748,2.748,0,0,1,2.391-1.348,2.626,2.626,0,0,1,2.723,2.943v4.869H763.6V382.27c0-1.19-.592-1.869-1.638-1.869a1.7,1.7,0,0,0-1.723,1.9v4.319h-1.753Z" fill="#fff"/>
    <path id="Trazado_4929" data-name="Trazado 4929" d="M772.147,386.617v-.942a3.093,3.093,0,0,1-2.478,1.1,2.448,2.448,0,0,1-2.723-2.363v-.031c0-1.694,1.317-2.506,3.1-2.506a6.449,6.449,0,0,1,2.115.318v-.143c0-1.06-.666-1.638-1.884-1.638a5.36,5.36,0,0,0-2.187.476l-.48-1.4a6.562,6.562,0,0,1,2.913-.637c2.261,0,3.363,1.187,3.363,3.231v4.536Zm.046-3.2a5.027,5.027,0,0,0-1.754-.3c-1.1,0-1.756.448-1.756,1.19v.028c0,.724.654,1.13,1.48,1.13,1.158,0,2.03-.654,2.03-1.61Z" fill="#fff"/>
    <path id="Trazado_4930" data-name="Trazado 4930" d="M776.069,376.037h1.753v10.58h-1.753Z" fill="#fff"/>
    <path id="Trazado_4931" data-name="Trazado 4931" d="M664.239,400.171v-.028a3.653,3.653,0,0,1,3.551-3.972,3.164,3.164,0,0,1,2.608,1.348V393.4h1.753v10.58H670.4v-1.274a3.068,3.068,0,0,1-2.608,1.434A3.669,3.669,0,0,1,664.239,400.171Zm6.188,0v-.028a2.3,2.3,0,0,0-2.217-2.45,2.244,2.244,0,0,0-2.2,2.45v.028a2.278,2.278,0,0,0,2.2,2.45A2.306,2.306,0,0,0,670.427,400.171Z" fill="#fff"/>
    <path id="Trazado_4932" data-name="Trazado 4932" d="M673.91,400.185v-.028a3.8,3.8,0,0,1,3.74-3.986c2.434,0,3.666,1.914,3.666,4.116,0,.161-.014.318-.029.493h-5.623a2.137,2.137,0,0,0,2.2,1.943,2.775,2.775,0,0,0,2.072-.914l1.029.914a3.875,3.875,0,0,1-3.131,1.435A3.819,3.819,0,0,1,673.91,400.185Zm5.667-.563a1.988,1.988,0,0,0-1.941-2.016,2.071,2.071,0,0,0-1.986,2.016Z" fill="#fff"/>
    <path id="Trazado_4933" data-name="Trazado 4933" d="M687.624,393.84h4c2.363,0,3.855,1.347,3.855,3.388v.031c0,2.275-1.826,3.462-4.058,3.462h-2.014v3.262h-1.783Zm3.855,5.274c1.348,0,2.189-.755,2.189-1.813v-.028c0-1.189-.855-1.812-2.189-1.812h-2.072v3.653Z" fill="#fff"/>
    <path id="Trazado_4934" data-name="Trazado 4934" d="M697.2,393.4h1.753v10.58H697.2Z" fill="#fff"/>
    <path id="Trazado_4935" data-name="Trazado 4935" d="M705.916,403.983v-.942a3.092,3.092,0,0,1-2.478,1.1,2.45,2.45,0,0,1-2.725-2.362v-.031c0-1.694,1.32-2.506,3.1-2.506a6.458,6.458,0,0,1,2.117.318v-.143c0-1.06-.666-1.638-1.884-1.638a5.374,5.374,0,0,0-2.189.476l-.478-1.4a6.55,6.55,0,0,1,2.914-.637c2.26,0,3.361,1.187,3.361,3.231v4.536Zm.044-3.2a4.992,4.992,0,0,0-1.754-.3c-1.1,0-1.753.448-1.753,1.189v.029c0,.724.652,1.13,1.478,1.13,1.159,0,2.029-.654,2.029-1.61Z" fill="#fff"/>
    <path id="Trazado_4936" data-name="Trazado 4936" d="M709.734,396.332h1.754v1.187a2.755,2.755,0,0,1,2.391-1.348,2.629,2.629,0,0,1,2.726,2.943v4.869h-1.754v-4.347c0-1.19-.6-1.869-1.638-1.869a1.7,1.7,0,0,0-1.725,1.9v4.319h-1.754Z" fill="#fff"/>
    <path id="Trazado_4937" data-name="Trazado 4937" d="M718.742,393.49h1.883v1.666h-1.883Zm.073,2.842h1.753v7.651h-1.753Z" fill="#fff"/>
    <path id="Trazado_4938" data-name="Trazado 4938" d="M723.244,397.837h-.97v-1.463h.97v-.55a2.606,2.606,0,0,1,.626-1.9,2.307,2.307,0,0,1,1.722-.609,4.729,4.729,0,0,1,1.421.2V395a3.1,3.1,0,0,0-1.029-.189c-.665,0-1.015.361-1.015,1.159v.42H727v1.449h-2v6.146h-1.753Zm5.088-4.347h1.884v1.666h-1.884Zm.074,2.842h1.753v7.651h-1.753Z" fill="#fff"/>
    <path id="Trazado_4939" data-name="Trazado 4939" d="M732.02,400.2v-.029a3.946,3.946,0,0,1,3.969-4,3.825,3.825,0,0,1,3.059,1.319l-1.088,1.173a2.576,2.576,0,0,0-1.985-.956,2.3,2.3,0,0,0-2.2,2.436v.028a2.328,2.328,0,0,0,2.289,2.464,2.7,2.7,0,0,0,1.985-.955l1.057,1.043a4.01,4.01,0,0,1-7.084-2.523Z" fill="#fff"/>
    <path id="Trazado_4940" data-name="Trazado 4940" d="M745.388,403.983v-.942a3.092,3.092,0,0,1-2.478,1.1,2.448,2.448,0,0,1-2.723-2.362v-.031c0-1.694,1.316-2.506,3.1-2.506a6.447,6.447,0,0,1,2.114.318v-.143c0-1.06-.665-1.638-1.883-1.638a5.369,5.369,0,0,0-2.188.476l-.479-1.4a6.541,6.541,0,0,1,2.912-.637c2.261,0,3.364,1.187,3.364,3.231v4.536Zm.045-3.2a5,5,0,0,0-1.753-.3c-1.1,0-1.757.448-1.757,1.189v.029c0,.724.654,1.13,1.48,1.13,1.159,0,2.03-.654,2.03-1.61Z" fill="#fff"/>
    <path id="Trazado_4941" data-name="Trazado 4941" d="M748.788,400.2v-.029a3.946,3.946,0,0,1,3.969-4,3.824,3.824,0,0,1,3.059,1.319l-1.088,1.173a2.574,2.574,0,0,0-1.985-.956,2.3,2.3,0,0,0-2.2,2.436v.028a2.328,2.328,0,0,0,2.289,2.464,2.693,2.693,0,0,0,1.984-.955l1.058,1.043a4.011,4.011,0,0,1-7.085-2.523Z" fill="#fff"/>
    <path id="Trazado_4942" data-name="Trazado 4942" d="M757.505,393.49h1.883v1.666h-1.883Zm.073,2.842h1.754v7.651h-1.754Z" fill="#fff"/>
    <path id="Trazado_4943" data-name="Trazado 4943" d="M761.2,400.2v-.029a4.081,4.081,0,0,1,8.159-.028v.028a4,4,0,0,1-4.1,3.987A3.957,3.957,0,0,1,761.2,400.2Zm6.405,0v-.029a2.367,2.367,0,0,0-2.348-2.464,2.3,2.3,0,0,0-2.3,2.436v.028a2.37,2.37,0,0,0,2.332,2.464A2.308,2.308,0,0,0,767.6,400.2Zm-1.522-7.217,1.592.71-1.781,1.666h-1.32Z" fill="#fff"/>
    <path id="Trazado_4944" data-name="Trazado 4944" d="M771.133,396.332h1.753v1.187a2.748,2.748,0,0,1,2.391-1.348A2.626,2.626,0,0,1,778,399.114v4.869h-1.754v-4.347c0-1.19-.592-1.869-1.637-1.869a1.7,1.7,0,0,0-1.723,1.9v4.319h-1.753Z" fill="#fff"/>
  </g>
</svg>
